<svg width="32" height="32" viewBox="0 0 32 32" fill="none" xmlns="http://www.w3.org/2000/svg">
<path fill-rule="evenodd" clip-rule="evenodd" d="M16 32C24.8366 32 32 24.8366 32 16C32 7.16344 24.8366 0 16 0C7.16344 0 0 7.16344 0 16C0 24.8366 7.16344 32 16 32Z" fill="#6ED7D3"/>
<path fill-rule="evenodd" clip-rule="evenodd" d="M16 16C18.21 16 20 14.21 20 12C20 9.79 18.21 8 16 8C13.79 8 12 9.79 12 12C12 14.21 13.79 16 16 16V16ZM16 18C13.33 18 8 19.34 8 22V24H24V22C24 19.34 18.67 18 16 18V18Z" fill="#E7FFFE"/>
</svg>
