<svg width="350" height="280" viewBox="0 0 350 280" fill="none" xmlns="http://www.w3.org/2000/svg">
<mask id="mask0" mask-type="alpha" maskUnits="userSpaceOnUse" x="0" y="0" width="350" height="280">
<path fill-rule="evenodd" clip-rule="evenodd" d="M0.0739746 0.28125H349.341V279.926H0.0739746V0.28125Z" fill="white"/>
</mask>
<g mask="url(#mask0)">
<path fill-rule="evenodd" clip-rule="evenodd" d="M0.0739746 279.926H349.341V0.28125H0.0739746V279.926Z" fill="#FFFFFE"/>
</g>
<path fill-rule="evenodd" clip-rule="evenodd" d="M267 135C267 137.762 264.761 140 261.999 140C259.238 140 257 137.762 257 135C257 132.238 259.238 130 261.999 130C264.761 130 267 132.238 267 135" fill="#EDF7FA"/>
<path fill-rule="evenodd" clip-rule="evenodd" d="M184.623 178C184.279 178 184 177.777 184 177.5C184 177.224 184.279 177 184.623 177H221.377C221.721 177 222 177.224 222 177.5C222 177.777 221.721 178 221.377 178H184.623Z" fill="#3D4040"/>
<path fill-rule="evenodd" clip-rule="evenodd" d="M221.377 186H184.623C184.279 186 184 185.777 184 185.5C184 185.224 184.279 185 184.623 185H221.377C221.721 185 222 185.224 222 185.5C222 185.777 221.721 186 221.377 186" fill="#3D4040"/>
<path fill-rule="evenodd" clip-rule="evenodd" d="M221.377 194H184.623C184.279 194 184 193.776 184 193.5C184 193.223 184.279 193 184.623 193H221.377C221.721 193 222 193.223 222 193.5C222 193.776 221.721 194 221.377 194" fill="#3D4040"/>
<path fill-rule="evenodd" clip-rule="evenodd" d="M221.377 210H184.623C184.279 210 184 209.776 184 209.5C184 209.223 184.279 209 184.623 209H221.377C221.721 209 222 209.223 222 209.5C222 209.776 221.721 210 221.377 210" fill="#3D4040"/>
<path fill-rule="evenodd" clip-rule="evenodd" d="M221.377 202H184.623C184.279 202 184 201.776 184 201.5C184 201.223 184.279 201 184.623 201H221.377C221.721 201 222 201.223 222 201.5C222 201.776 221.721 202 221.377 202" fill="#3D4040"/>
<path fill-rule="evenodd" clip-rule="evenodd" d="M174 209H127V202.823C127 197.666 131.53 193.484 137.119 193.484L150.499 192L163.881 193.484C169.469 193.484 174 197.666 174 202.823V209" fill="#E2787F"/>
<path fill-rule="evenodd" clip-rule="evenodd" d="M141.357 173.203C141.366 173.215 141.371 173.224 141.382 173.238L142.127 179.874C142.568 183.795 147.876 188 151.5 188C155.124 188 160.433 183.795 160.873 179.874L161.629 173.147C162.315 172.181 163.011 170.718 163 167.635C163 157.744 159.461 160.434 159.461 160.434C159.461 160.434 158.484 155 150.956 155C144.637 155 141.093 160.434 141.093 160.434L142.601 161.111C142.601 161.111 140.781 162.598 140.359 164.25C139.938 165.901 139.827 168.379 140.359 169.535C140.891 170.69 140.224 171.599 141.357 173.203" fill="#FAD59A"/>
<path fill-rule="evenodd" clip-rule="evenodd" d="M161.623 173C162.312 172.095 163.011 170.725 163 167.836C163 158.57 159.446 161.091 159.446 161.091C159.446 161.091 158.464 156 150.902 156C144.556 156 140.996 161.091 140.996 161.091L142.511 161.725C142.511 161.725 140.683 163.118 140.259 164.665C140.006 165.59 139.61 169.108 140.932 172.548C140.932 172.548 143.647 170.528 143.397 166.793C149.968 168.556 154.806 168.361 158.185 164.651C158.093 167.088 158.543 171.87 161.623 173" fill="#8B989A"/>
<path fill-rule="evenodd" clip-rule="evenodd" d="M141.415 174.327C141.422 174.336 141.432 174.351 141.435 174.356C141.491 174.44 141.538 174.553 141.549 174.654L142.29 181.245C142.697 184.877 147.75 188.769 150.999 188.769C154.248 188.769 159.301 184.877 159.71 181.245L160.459 174.564C160.469 174.488 160.49 174.414 160.524 174.346C161.334 172.761 161.816 170.823 161.816 169.162C161.816 164.375 160.816 163.023 160.22 162.644C159.683 162.303 159.172 162.555 159.167 162.56C159.001 162.647 158.804 162.65 158.637 162.565C158.469 162.479 158.351 162.316 158.315 162.125C158.278 161.927 157.311 157.231 150.459 157.231C145.815 157.231 142.72 160.413 141.615 161.763L142.406 162.119C142.598 162.204 142.732 162.389 142.759 162.604C142.786 162.818 142.702 163.033 142.539 163.167C142.522 163.18 140.881 164.54 140.519 165.959C140.09 167.64 140.072 169.894 140.481 170.783C140.745 171.356 140.77 171.88 140.791 172.343C140.822 172.976 140.848 173.523 141.415 174.327ZM150.999 190C147.187 190 141.603 185.741 141.114 181.386L140.391 174.955C139.68 173.901 139.64 173.073 139.609 172.403C139.589 171.99 139.573 171.665 139.413 171.314C138.815 170.014 138.924 167.41 139.374 165.643C139.66 164.525 140.483 163.505 141.094 162.87L140.441 162.577C140.28 162.505 140.156 162.36 140.108 162.183C140.058 162.008 140.087 161.817 140.185 161.666C140.336 161.435 143.952 156 150.459 156C156.751 156 158.741 159.732 159.292 161.259C159.735 161.197 160.293 161.249 160.837 161.593C162.273 162.506 163 165.052 163 169.162C163 171.006 162.499 173.061 161.623 174.82L160.885 181.386C160.396 185.741 154.812 190 150.999 190V190Z" fill="#3D4040"/>
<path fill-rule="evenodd" clip-rule="evenodd" d="M140.65 175C140.487 175 140.323 174.942 140.197 174.823C139.939 174.586 139.934 174.195 140.185 173.949C142.722 171.479 142.299 167.796 142.294 167.759C142.269 167.553 142.355 167.347 142.523 167.213C142.692 167.08 142.92 167.033 143.129 167.094C149.017 168.795 153.486 168.691 156.417 166.787C159.407 164.844 159.699 161.605 159.702 161.574C159.729 161.233 160.023 160.967 160.398 161.003C160.755 161.028 161.023 161.322 160.998 161.662C160.987 161.818 160.675 165.504 157.17 167.794C154.052 169.835 149.498 170.077 143.628 168.521C143.618 169.931 143.289 172.697 141.116 174.815C140.987 174.937 140.819 175 140.65 175" fill="#3D4040"/>
<path fill-rule="evenodd" clip-rule="evenodd" d="M162.24 174C162.104 174 161.964 173.97 161.839 173.91C155.662 170.918 157.133 164.741 157.199 164.481C157.279 164.159 157.674 163.943 158.089 164.013C158.501 164.076 158.768 164.386 158.689 164.707C158.675 164.763 157.363 170.349 162.641 172.905C162.998 173.077 163.106 173.442 162.886 173.719C162.742 173.901 162.494 174 162.24 174" fill="#3D4040"/>
<path fill-rule="evenodd" clip-rule="evenodd" d="M174.382 210C174.04 210 173.764 209.731 173.764 209.4V202.933C173.764 197.871 169.524 193.755 164.314 193.755L150.999 192.205L137.759 193.75C132.476 193.755 128.236 197.871 128.236 202.933V209.4C128.236 209.731 127.96 210 127.618 210C127.277 210 127 209.731 127 209.4V202.933C127 197.21 131.794 192.555 137.686 192.555L150.926 191.005C150.975 190.998 151.025 190.998 151.074 191.005L164.388 192.558C164.39 192.558 164.393 192.558 164.395 192.558C170.211 192.558 175 197.212 175 202.933V209.4C175 209.731 174.723 210 174.382 210" fill="#3D4040"/>
<path fill-rule="evenodd" clip-rule="evenodd" d="M155 195.885L152.941 199H149.059L147 195.885L150.999 192L155 195.885" fill="#FFFFFE"/>
<path fill-rule="evenodd" clip-rule="evenodd" d="M149.918 198.864H153.082L154.671 196.456L151.499 193.372L148.329 196.456L149.918 198.864ZM153.4 200H149.6C149.4 200 149.215 199.901 149.108 199.739L147.092 196.685C146.944 196.459 146.977 196.165 147.172 195.976L151.087 192.166C151.315 191.945 151.684 191.945 151.913 192.166L155.828 195.976C156.023 196.165 156.056 196.459 155.908 196.685L153.892 199.739C153.783 199.901 153.599 200 153.4 200V200Z" fill="#3D4040"/>
<path fill-rule="evenodd" clip-rule="evenodd" d="M148 209L148.906 199H153.094L154 209H148" fill="#FFFFFE"/>
<path fill-rule="evenodd" clip-rule="evenodd" d="M154.381 210C154.062 210 153.791 209.736 153.765 209.389L152.941 198.328H150.058L149.235 209.389C149.207 209.754 148.923 210.027 148.568 209.997C148.228 209.968 147.975 209.648 148.002 209.283L148.871 197.611C148.897 197.266 149.165 197 149.488 197H153.512C153.833 197 154.102 197.266 154.128 197.611L154.998 209.283C155.025 209.648 154.772 209.968 154.432 209.997C154.414 209.999 154.397 210 154.381 210" fill="#3D4040"/>
<path fill-rule="evenodd" clip-rule="evenodd" d="M101.97 188.022C96.34 189.326 90.7341 185.747 89.4508 180.031C88.1662 174.314 91.6889 168.623 97.3194 167.319C102.95 166.016 108.556 169.592 109.84 175.309C111.125 181.025 107.602 186.718 101.97 188.022ZM118.964 166.751C118.669 166.076 117.888 165.771 117.222 166.071L114.427 167.332C113.854 167.591 113.199 167.391 112.817 166.886C111.81 165.558 110.564 164.368 109.151 163.376C108.403 162.851 108.072 161.903 108.422 161.05L109.005 159.622C109.291 158.921 108.947 158.117 108.246 157.853L106.201 157.084C105.534 156.833 104.789 157.165 104.521 157.834L103.628 160.061C103.387 160.66 102.776 160.98 102.144 160.895C100.303 160.649 98.2902 160.765 96.4999 161.096C95.6718 161.25 94.8561 160.778 94.514 159.998L94.2568 159.41C93.8397 158.455 92.7385 158.024 91.796 158.449L90.7169 158.936C89.7756 159.36 89.3523 160.479 89.7707 161.435L90.0315 162.032C90.3884 162.845 90.1115 163.768 89.4286 164.328C88.2142 165.321 87.0908 166.533 86.1643 167.871C85.6475 168.618 84.7308 168.954 83.8978 168.614L82.3918 167.999C81.7052 167.721 80.9264 168.068 80.6655 168.771L80.1204 170.239C79.7439 171.254 80.2816 172.379 81.2967 172.71L82.094 172.969C82.9529 173.249 83.4352 174.122 83.322 175.029C83.1239 176.608 83.1436 178.192 83.3774 179.71C83.5127 180.59 83.1104 181.462 82.3081 181.823L81.9919 181.967C81.0506 182.392 80.6261 183.51 81.0445 184.465L81.5243 185.561C81.9427 186.517 83.0439 186.946 83.9852 186.523L84.2916 186.383C85.0606 186.037 85.9773 186.241 86.4904 186.918C87.6199 188.407 89.0853 189.927 90.632 191.018C91.1623 191.392 91.4121 192.056 91.1943 192.674L90.4142 194.893C90.1755 195.572 90.5089 196.321 91.1697 196.588L92.7877 197.243C93.7671 197.639 94.8757 197.13 95.2326 196.122L95.5476 195.23C95.8367 194.412 96.6402 193.875 97.4892 193.991C99.277 194.232 101.121 194.192 102.823 193.876C103.437 193.762 104.05 194.058 104.303 194.638L105.427 197.204C105.723 197.88 106.502 198.184 107.168 197.885L109.243 196.948C109.91 196.648 110.209 195.856 109.914 195.179L108.796 192.627C108.54 192.041 108.738 191.367 109.243 190.984C110.766 189.822 112.296 188.288 113.408 186.639C113.768 186.106 114.416 185.858 115.014 186.083L117.132 186.879C117.806 187.131 118.555 186.789 118.817 186.109L119.679 183.877C119.937 183.21 119.631 182.455 118.986 182.164L116.69 181.129C116.138 180.88 115.848 180.289 115.93 179.682C116.2 177.653 116.054 175.354 115.676 173.405C115.556 172.778 115.851 172.146 116.427 171.886L119.216 170.628C119.883 170.327 120.182 169.535 119.885 168.859L118.964 166.751V166.751Z" fill="#FAD59A"/>
<path fill-rule="evenodd" clip-rule="evenodd" d="M99.1489 167.236C98.4307 167.236 97.7015 167.317 96.971 167.486C91.7099 168.704 88.4064 174.039 89.6067 179.379C90.1879 181.966 91.727 184.167 93.9404 185.581C96.1525 186.991 98.7745 187.445 101.324 186.855C106.585 185.636 109.89 180.302 108.69 174.96C107.656 170.362 103.612 167.236 99.1489 167.236ZM99.1268 188.35C97.0787 188.35 95.066 187.766 93.2895 186.632C90.7996 185.043 89.0683 182.565 88.4138 179.656C87.7604 176.745 88.2608 173.751 89.8269 171.224C91.3906 168.695 93.8327 166.938 96.6994 166.275C99.5685 165.61 102.517 166.12 105.007 167.708C107.497 169.298 109.228 171.774 109.883 174.685C111.232 180.693 107.515 186.696 101.597 188.065C100.776 188.255 99.949 188.35 99.1268 188.35ZM102.565 192.635C103.33 192.635 104.028 193.074 104.339 193.785L105.456 196.336C105.613 196.695 106.031 196.855 106.38 196.697L108.444 195.766C108.615 195.69 108.746 195.549 108.813 195.372C108.881 195.195 108.876 195.001 108.8 194.827L107.688 192.29C107.322 191.452 107.583 190.472 108.325 189.907C109.905 188.704 111.326 187.221 112.329 185.736C112.851 184.958 113.804 184.634 114.642 184.951L116.749 185.742C117.105 185.874 117.504 185.691 117.643 185.333L118.5 183.114C118.637 182.759 118.475 182.359 118.132 182.205L115.849 181.176C115.063 180.822 114.614 179.982 114.734 179.087C114.974 177.291 114.884 175.091 114.488 173.049C114.311 172.128 114.762 171.225 115.587 170.853L118.36 169.602C118.713 169.443 118.873 169.021 118.715 168.663L117.799 166.568C117.642 166.211 117.23 166.05 116.874 166.207L114.095 167.461C113.282 167.83 112.321 167.568 111.761 166.828C110.798 165.559 109.617 164.43 108.253 163.471C107.249 162.767 106.861 161.508 107.31 160.411L107.89 158.992C107.963 158.811 107.962 158.613 107.885 158.436C107.808 158.257 107.667 158.121 107.487 158.053L105.455 157.288C105.099 157.154 104.706 157.328 104.563 157.685L103.675 159.898C103.333 160.748 102.479 161.222 101.552 161.11C99.9209 160.891 97.9951 160.959 96.1292 161.305C95.0403 161.509 93.9502 160.913 93.4877 159.855L93.2307 159.271C93.0962 158.962 92.8515 158.726 92.5419 158.606C92.2324 158.483 91.8934 158.494 91.5912 158.631L90.5194 159.115C90.2148 159.251 89.9823 159.5 89.8636 159.814C89.745 160.128 89.7535 160.47 89.8881 160.778L90.1475 161.372C90.6075 162.422 90.2955 163.634 89.373 164.39C88.1997 165.349 87.1181 166.524 86.2433 167.786C85.5532 168.786 84.326 169.18 83.2603 168.743L81.764 168.133C81.5878 168.062 81.3945 168.065 81.2207 168.143C81.047 168.221 80.9149 168.363 80.8476 168.543L80.3056 170.003C80.1844 170.33 80.1991 170.681 80.3496 170.995C80.4989 171.31 80.7619 171.54 81.0898 171.647L81.8827 171.904C82.9863 172.263 83.6763 173.407 83.5234 174.624C83.3325 176.135 83.3509 177.642 83.576 179.102C83.7583 180.29 83.1881 181.402 82.1567 181.866L81.8435 182.008C81.5389 182.146 81.3052 182.395 81.1865 182.709C81.0678 183.022 81.0764 183.365 81.211 183.673L81.6881 184.762C81.9659 185.398 82.7036 185.686 83.3276 185.403L83.6323 185.264C84.6747 184.793 85.875 185.091 86.5516 185.984C87.747 187.56 89.1613 188.961 90.5341 189.929C91.3098 190.476 91.6267 191.427 91.3208 192.295L90.5451 194.499C90.4179 194.862 90.5941 195.257 90.9464 195.398L92.5554 196.049C92.871 196.177 93.2161 196.17 93.5244 196.027C93.8352 195.885 94.0688 195.628 94.1839 195.303L94.4971 194.416C94.8862 193.316 95.9726 192.618 97.0848 192.779C98.7989 193.009 100.566 192.971 102.198 192.669C102.321 192.647 102.444 192.635 102.565 192.635ZM106.1 198C105.362 198 104.657 197.568 104.338 196.84L103.221 194.289C103.089 193.986 102.763 193.825 102.417 193.891C100.661 194.217 98.761 194.257 96.9233 194.01C96.3776 193.931 95.8442 194.283 95.6484 194.836L95.3364 195.722C95.1076 196.368 94.6427 196.879 94.0272 197.159C93.4118 197.439 92.7279 197.455 92.1027 197.203L90.4937 196.553C89.5259 196.162 89.0427 195.077 89.3938 194.082L90.1683 191.877C90.2857 191.545 90.1524 191.171 89.8367 190.949C88.3624 189.908 86.8513 188.414 85.5826 186.742C85.2498 186.303 84.6527 186.163 84.129 186.399L83.8244 186.538C83.2224 186.807 82.5519 186.827 81.9377 186.586C81.3223 186.345 80.8366 185.877 80.5698 185.266L80.0927 184.177C79.8247 183.566 79.8076 182.887 80.0449 182.262C80.2811 181.639 80.7423 181.146 81.3443 180.874L81.6575 180.732C82.1787 180.497 82.4626 179.919 82.3659 179.294C82.1237 177.719 82.1053 176.093 82.3097 174.466C82.388 173.834 82.0588 173.267 81.5083 173.088L80.7167 172.831C80.0657 172.62 79.5445 172.159 79.2472 171.536C78.9499 170.912 78.9205 170.212 79.1603 169.565L79.7036 168.104C79.8871 167.609 80.2517 167.219 80.7289 167.007C81.2061 166.793 81.7346 166.783 82.2191 166.982L83.7167 167.592C84.2612 167.813 84.8741 167.604 85.2424 167.072C86.1821 165.715 87.3444 164.453 88.6059 163.423C89.0904 163.027 89.2604 162.404 89.0292 161.877L88.7698 161.283C88.5031 160.671 88.4847 159.993 88.7221 159.368C88.9582 158.745 89.4207 158.251 90.0215 157.98L91.0945 157.495C91.6977 157.225 92.3669 157.206 92.9824 157.447C93.5966 157.687 94.0823 158.156 94.349 158.766L94.6047 159.351C94.8384 159.882 95.3743 160.189 95.9102 160.083C97.8972 159.716 99.9576 159.644 101.713 159.879C102.076 159.936 102.413 159.749 102.542 159.43L103.43 157.217C103.824 156.236 104.898 155.756 105.879 156.123L107.912 156.889C108.406 157.075 108.795 157.447 109.005 157.938C109.217 158.429 109.222 158.972 109.02 159.468L108.439 160.886C108.214 161.44 108.423 162.082 108.948 162.45C110.417 163.481 111.69 164.701 112.73 166.072C112.95 166.36 113.299 166.464 113.599 166.326L116.377 165.072C117.349 164.636 118.486 165.082 118.917 166.064L119.834 168.159C120.265 169.143 119.827 170.297 118.858 170.737L116.084 171.988C115.784 172.122 115.622 172.461 115.69 172.81C116.11 174.98 116.203 177.329 115.946 179.253C115.9 179.602 116.057 179.912 116.345 180.041L118.628 181.07C119.572 181.495 120.016 182.591 119.639 183.568L118.783 185.787C118.402 186.769 117.298 187.272 116.325 186.906L114.219 186.116C113.9 185.998 113.548 186.127 113.338 186.437C112.262 188.032 110.743 189.616 109.059 190.901C108.775 191.117 108.673 191.48 108.806 191.786L109.917 194.323C110.126 194.801 110.14 195.331 109.955 195.818C109.77 196.305 109.41 196.69 108.941 196.901L106.877 197.832C106.625 197.947 106.359 198 106.1 198V198Z" fill="#3D4040"/>
<path fill-rule="evenodd" clip-rule="evenodd" d="M101 146V135.121C101 131.836 100.21 130 98.7132 130H33.1436C31.6457 130 32.0496 131.836 32.0496 135.121V146H101" fill="#6ED7D3"/>
<path fill-rule="evenodd" clip-rule="evenodd" d="M223.384 210H35.3038C33.4818 210 32 208.535 32 206.734V130.609C32 130.273 32.2761 130 32.6164 130C32.9579 130 33.2328 130.273 33.2328 130.609V206.734C33.2328 207.863 34.1623 208.781 35.3038 208.781H223.384C223.724 208.781 224 209.053 224 209.391C224 209.727 223.724 210 223.384 210" fill="#3D4040"/>
<path fill-rule="evenodd" clip-rule="evenodd" d="M100.415 159C100.093 159 99.831 158.715 99.831 158.364V133.406C99.831 132.229 98.9507 131.272 97.8682 131.272H84.5845C84.2619 131.272 84 130.987 84 130.636C84 130.284 84.2619 130 84.5845 130H97.8682C99.5948 130 101 131.528 101 133.406V158.364C101 158.715 100.738 159 100.415 159" fill="#3D4040"/>
<path fill-rule="evenodd" clip-rule="evenodd" d="M38 143C38 143.553 37.552 144 37 144C36.448 144 36 143.553 36 143C36 142.449 36.448 142 37 142C37.552 142 38 142.449 38 143" fill="#3D4040"/>
<path fill-rule="evenodd" clip-rule="evenodd" d="M42 143C42 143.553 41.552 144 41 144C40.447 144 40 143.553 40 143C40 142.449 40.447 142 41 142C41.552 142 42 142.449 42 143" fill="#3D4040"/>
<path fill-rule="evenodd" clip-rule="evenodd" d="M46 143C46 143.553 45.552 144 45 144C44.448 144 44 143.553 44 143C44 142.449 44.448 142 45 142C45.552 142 46 142.449 46 143" fill="#3D4040"/>
<path fill-rule="evenodd" clip-rule="evenodd" d="M32 147H101V146H32V147Z" fill="#3D4040"/>
<path fill-rule="evenodd" clip-rule="evenodd" d="M51.3505 153H38.6495C38.291 153 38 152.777 38 152.5C38 152.224 38.291 152 38.6495 152H51.3505C51.709 152 52 152.224 52 152.5C52 152.777 51.709 153 51.3505 153" fill="#3D4040"/>
<path fill-rule="evenodd" clip-rule="evenodd" d="M43.6232 172.752H52.2779L50.4512 167.589L48.4647 171.573C48.3013 171.902 47.9966 172.128 47.6488 172.175C47.3057 172.223 46.952 172.084 46.7139 171.81L45.2841 170.139L43.6232 172.752ZM52.3654 173.989H43.4551C43.0571 173.989 42.693 173.757 42.505 173.384C42.3171 173.011 42.3381 172.561 42.5599 172.209L44.3795 169.348C44.5663 169.054 44.8639 168.872 45.1954 168.846C45.5222 168.817 45.8467 168.955 46.072 169.217L47.4924 170.877L49.5116 166.826C49.7136 166.42 50.1081 166.198 50.5364 166.219C50.9683 166.25 51.3289 166.535 51.4772 166.966L53.3762 172.454C53.4976 172.804 53.4497 173.195 53.249 173.501C53.047 173.806 52.7167 173.989 52.3654 173.989ZM41.269 164.237C40.6609 164.237 40.1672 164.76 40.1672 165.403V174.597C40.1672 175.24 40.6609 175.763 41.269 175.763H53.731C54.3391 175.763 54.8328 175.24 54.8328 174.597V165.403C54.8328 164.76 54.3391 164.237 53.731 164.237H41.269ZM53.731 177H41.269C40.0178 177 39 175.921 39 174.597V165.403C39 164.079 40.0178 163 41.269 163H53.731C54.9822 163 56 164.079 56 165.403V174.597C56 175.921 54.9822 177 53.731 177V177Z" fill="#3D4040"/>
<path fill-rule="evenodd" clip-rule="evenodd" d="M69.4069 164H61.5931C61.2645 164 61 163.776 61 163.5C61 163.223 61.2645 163 61.5931 163H69.4069C69.7355 163 70 163.223 70 163.5C70 163.776 69.7355 164 69.4069 164" fill="#3D4040"/>
<path fill-rule="evenodd" clip-rule="evenodd" d="M69.4069 166H61.5931C61.2645 166 61 165.776 61 165.5C61 165.223 61.2645 165 61.5931 165H69.4069C69.7355 165 70 165.223 70 165.5C70 165.776 69.7355 166 69.4069 166" fill="#3D4040"/>
<path fill-rule="evenodd" clip-rule="evenodd" d="M69.4069 171H61.5931C61.2645 171 61 170.776 61 170.5C61 170.224 61.2645 170 61.5931 170H69.4069C69.7355 170 70 170.224 70 170.5C70 170.776 69.7355 171 69.4069 171" fill="#3D4040"/>
<path fill-rule="evenodd" clip-rule="evenodd" d="M69.4069 177H61.5931C61.2645 177 61 176.776 61 176.5C61 176.224 61.2645 176 61.5931 176H69.4069C69.7355 176 70 176.224 70 176.5C70 176.776 69.7355 177 69.4069 177" fill="#3D4040"/>
<path fill-rule="evenodd" clip-rule="evenodd" d="M69.4069 173H61.5931C61.2645 173 61 172.776 61 172.5C61 172.224 61.2645 172 61.5931 172H69.4069C69.7355 172 70 172.224 70 172.5C70 172.776 69.7355 173 69.4069 173" fill="#3D4040"/>
<path fill-rule="evenodd" clip-rule="evenodd" d="M76.6807 184H32.6139C32.275 184 32 183.713 32 183.358V156.642C32 156.286 32.275 156 32.6139 156H86.3861C86.725 156 87 156.286 87 156.642C87 156.996 86.725 157.283 86.3861 157.283H33.2279V182.717H76.6807C77.0209 182.717 77.2947 183.004 77.2947 183.358C77.2947 183.713 77.0209 184 76.6807 184" fill="#3D4040"/>
<path fill-rule="evenodd" clip-rule="evenodd" d="M69.394 189H39.606C39.2715 189 39 188.776 39 188.5C39 188.223 39.2715 188 39.606 188H69.394C69.7297 188 70 188.223 70 188.5C70 188.776 69.7297 189 69.394 189" fill="#3D4040"/>
<path fill-rule="evenodd" clip-rule="evenodd" d="M69.394 194H39.606C39.2715 194 39 193.776 39 193.5C39 193.224 39.2715 193 39.606 193H69.394C69.7297 193 70 193.224 70 193.5C70 193.776 69.7297 194 69.394 194" fill="#3D4040"/>
<path fill-rule="evenodd" clip-rule="evenodd" d="M69.394 196H39.606C39.2715 196 39 195.776 39 195.5C39 195.224 39.2715 195 39.606 195H69.394C69.7297 195 70 195.224 70 195.5C70 195.776 69.7297 196 69.394 196" fill="#3D4040"/>
<path fill-rule="evenodd" clip-rule="evenodd" d="M69.394 202H39.606C39.2715 202 39 201.777 39 201.5C39 201.224 39.2715 201 39.606 201H69.394C69.7297 201 70 201.224 70 201.5C70 201.777 69.7297 202 69.394 202" fill="#3D4040"/>
<path fill-rule="evenodd" clip-rule="evenodd" d="M69.394 200H39.606C39.2715 200 39 199.776 39 199.5C39 199.224 39.2715 199 39.606 199H69.394C69.7297 199 70 199.224 70 199.5C70 199.776 69.7297 200 69.394 200" fill="#3D4040"/>
<path fill-rule="evenodd" clip-rule="evenodd" d="M74.9676 67.1059C85.322 56.9337 102.342 57.053 112.696 67.2253C114.316 68.817 115.236 69.6731 116.535 71.5266L117 54H34V80H67.7643C68.7745 75.6671 71.1657 70.8397 74.9676 67.1059" fill="#F5C140"/>
<path fill-rule="evenodd" clip-rule="evenodd" d="M33.2361 81.7472H65.7979C66.9969 76.8713 69.6161 72.1282 73.0326 68.6655C78.1055 63.5228 84.8927 60.6952 92.1559 60.6952C92.1979 60.6952 92.2399 60.6952 92.282 60.6952C99.576 60.7278 106.41 63.6017 111.528 68.7883L111.868 69.1328C112.835 70.1112 113.576 70.8604 114.347 71.8276L114.746 56.2528H33.2361V81.7472ZM66.2861 83H32.618C32.2769 83 32 82.7206 32 82.3736V55.6264C32 55.2794 32.2769 55 32.618 55H115.382C115.547 55 115.708 55.0689 115.824 55.1892C115.94 55.3094 116.003 55.4736 116 55.6427L115.536 73.6729C115.529 73.9435 115.351 74.1791 115.094 74.2567C114.839 74.3332 114.561 74.2354 114.409 74.0124C113.24 72.2911 112.395 71.4354 110.995 70.0198L110.654 69.674C105.769 64.7242 99.2423 61.9793 92.277 61.948C92.2362 61.948 92.1967 61.948 92.1559 61.948C85.224 61.948 78.747 64.6453 73.9065 69.5512C70.5358 72.9664 67.9783 77.6919 66.8881 82.5139C66.8238 82.7983 66.5742 83 66.2861 83V83Z" fill="#3D4040"/>
<path fill-rule="evenodd" clip-rule="evenodd" d="M116 43V39.07C116 37.7081 115.755 37 114.172 37H35.5184C33.9356 37 32 37.7081 32 39.07V43H116" fill="#EDF7FA"/>
<path fill-rule="evenodd" clip-rule="evenodd" d="M77.4982 130H33.6115C33.2739 130 33 129.726 33 129.387C33 129.048 33.2739 128.773 33.6115 128.773H76.8867V109.968H36.697C34.8185 109.968 33.2911 108.436 33.2911 106.552V39.4169C33.2911 37.5324 34.8185 36 36.697 36H113.35C115.229 36 116.756 37.5324 116.756 39.4169V71.8107H190.389C190.726 71.8107 191 72.0855 191 72.4241C191 72.7628 190.726 73.0376 190.389 73.0376H116.145C115.807 73.0376 115.533 72.7628 115.533 72.4241V39.4169C115.533 38.2084 114.554 37.2269 113.35 37.2269H36.697C35.4936 37.2269 34.514 38.2084 34.514 39.4169V106.552C34.514 107.759 35.4936 108.742 36.697 108.742H77.4982C77.8369 108.742 78.1109 109.016 78.1109 109.355V129.387C78.1109 129.726 77.8369 130 77.4982 130" fill="#3D4040"/>
<path fill-rule="evenodd" clip-rule="evenodd" d="M38 40C38 40.5525 37.5525 41 37 41C36.4475 41 36 40.5525 36 40C36 39.4485 36.4475 39 37 39C37.5525 39 38 39.4485 38 40" fill="#3D4040"/>
<path fill-rule="evenodd" clip-rule="evenodd" d="M42 40C42 40.5525 41.5527 41 41.0005 41C40.4483 41 40 40.5525 40 40C40 39.4485 40.4483 39 41.0005 39C41.5527 39 42 39.4485 42 40" fill="#3D4040"/>
<path fill-rule="evenodd" clip-rule="evenodd" d="M46 40C46 40.5525 45.5525 41 45 41C44.4475 41 44 40.5525 44 40C44 39.4485 44.4475 39 45 39C45.5525 39 46 39.4485 46 40" fill="#3D4040"/>
<path fill-rule="evenodd" clip-rule="evenodd" d="M32 44H116V43H32V44Z" fill="#3D4040"/>
<path fill-rule="evenodd" clip-rule="evenodd" d="M51.3778 50H38.6222C38.2775 50 38 49.776 38 49.499C38 49.223 38.2775 49 38.6222 49H51.3778C51.7212 49 52 49.223 52 49.499C52 49.776 51.7212 50 51.3778 50" fill="#3D4040"/>
<path fill-rule="evenodd" clip-rule="evenodd" d="M44.9521 67.5324L43.0234 70.6029L52.8854 70.4925L50.8131 64.8324L48.5549 69.1787C48.3776 69.524 48.043 69.7601 47.6623 69.8083C47.2828 69.8591 46.8995 69.7144 46.6411 69.425L44.9521 67.5324ZM52.9553 71.7606H42.9647C42.529 71.7606 42.1308 71.5182 41.9261 71.1272C41.7201 70.7362 41.7438 70.264 41.986 69.8946L44.0271 66.8152C44.2318 66.508 44.5564 66.3163 44.9196 66.2897C45.2867 66.2706 45.6312 66.4052 45.8759 66.6794L47.5649 68.572L49.7832 64.1C50.003 63.6748 50.4374 63.4311 50.9043 63.4641C51.3749 63.4958 51.7681 63.7954 51.9304 64.246L54.0601 70.1511C54.1937 70.5179 54.14 70.9279 53.9203 71.249C53.7006 71.5689 53.3398 71.7606 52.9553 71.7606ZM40.5129 61.2694C39.8151 61.2694 39.2484 61.8456 39.2484 62.5552V72.4448C39.2484 73.1544 39.8151 73.7306 40.5129 73.7306H54.4871C55.1849 73.7306 55.7516 73.1544 55.7516 72.4448V62.5552C55.7516 61.8456 55.1849 61.2694 54.4871 61.2694H40.5129ZM54.4871 75H40.5129C39.1273 75 38 73.8538 38 72.4448V62.5552C38 61.1462 39.1273 60 40.5129 60H54.4871C55.8727 60 57 61.1462 57 62.5552V72.4448C57 73.8538 55.8727 75 54.4871 75V75Z" fill="#3D4040"/>
<path fill-rule="evenodd" clip-rule="evenodd" d="M75.3854 61H62.6146C62.2754 61 62 60.777 62 60.5C62 60.224 62.2754 60 62.6146 60H75.3854C75.7246 60 76 60.224 76 60.5C76 60.777 75.7246 61 75.3854 61" fill="#3D4040"/>
<path fill-rule="evenodd" clip-rule="evenodd" d="M71.4334 65H62.5666C62.2539 65 62 64.776 62 64.5C62 64.223 62.2539 64 62.5666 64H71.4334C71.7461 64 72 64.223 72 64.5C72 64.776 71.7461 65 71.4334 65" fill="#3D4040"/>
<path fill-rule="evenodd" clip-rule="evenodd" d="M69.4036 68H62.5964C62.2672 68 62 67.776 62 67.5C62 67.223 62.2672 67 62.5964 67H69.4036C69.7328 67 70 67.223 70 67.5C70 67.776 69.7328 68 69.4036 68" fill="#3D4040"/>
<path fill-rule="evenodd" clip-rule="evenodd" d="M67.26 75H62.74C62.3315 75 62 74.776 62 74.5C62 74.224 62.3315 74 62.74 74H67.26C67.6685 74 68 74.224 68 74.5C68 74.776 67.6685 75 67.26 75" fill="#3D4040"/>
<path fill-rule="evenodd" clip-rule="evenodd" d="M68.3516 72H62.6484C62.2905 72 62 71.776 62 71.5C62 71.224 62.2905 71 62.6484 71H68.3516C68.7108 71 69 71.224 69 71.5C69 71.776 68.7108 72 68.3516 72" fill="#3D4040"/>
<path fill-rule="evenodd" clip-rule="evenodd" d="M66.0554 82H31.6227C31.279 82 31 81.7154 31 81.3647V53.6353C31 53.2833 31.279 53 31.6227 53H115.377C115.721 53 116 53.2833 116 53.6353C116 53.986 115.721 54.2706 115.377 54.2706H32.2454V80.7294H66.0554C66.4004 80.7294 66.6794 81.0128 66.6794 81.3647C66.6794 81.7154 66.4004 82 66.0554 82" fill="#3D4040"/>
<path fill-rule="evenodd" clip-rule="evenodd" d="M65.3561 88H38.6439C38.2872 88 38 87.776 38 87.5C38 87.223 38.2872 87 38.6439 87H65.3561C65.7116 87 66 87.223 66 87.5C66 87.776 65.7116 88 65.3561 88" fill="#3D4040"/>
<path fill-rule="evenodd" clip-rule="evenodd" d="M65.3757 93H38.6243C38.2785 93 38 92.776 38 92.5C38 92.223 38.2785 92 38.6243 92H65.3757C65.7203 92 66 92.223 66 92.5C66 92.776 65.7203 93 65.3757 93" fill="#3D4040"/>
<path fill-rule="evenodd" clip-rule="evenodd" d="M66.378 95H38.622C38.2774 95 38 94.776 38 94.5C38 94.224 38.2774 94 38.622 94H66.378C66.7214 94 67 94.224 67 94.5C67 94.776 66.7214 95 66.378 95" fill="#3D4040"/>
<path fill-rule="evenodd" clip-rule="evenodd" d="M69.3907 102H39.6093C39.2717 102 39 101.776 39 101.5C39 101.223 39.2717 101 39.6093 101H69.3907C69.727 101 70 101.223 70 101.5C70 101.776 69.727 102 69.3907 102" fill="#3D4040"/>
<path fill-rule="evenodd" clip-rule="evenodd" d="M67.3844 100H38.6168C38.2751 100 38 99.7762 38 99.5005C38 99.2238 38.2751 99 38.6168 99H67.3844C67.7249 99 68 99.2238 68 99.5005C68 99.7762 67.7249 100 67.3844 100" fill="#3D4040"/>
<path fill-rule="evenodd" clip-rule="evenodd" d="M118 106.802L113.803 111L108 105.197L112.197 101L118 106.802" fill="#B7C5C9"/>
<path fill-rule="evenodd" clip-rule="evenodd" d="M108.596 106.557L114.438 112.403L118.404 108.434L112.562 102.589L108.596 106.557ZM114.438 114C114.262 114 114.095 113.93 113.971 113.806L107.193 107.026C106.936 106.768 106.936 106.348 107.193 106.09L112.096 101.186C112.343 100.938 112.782 100.938 113.031 101.186L119.807 107.967C120.064 108.225 120.064 108.643 119.807 108.902L114.906 113.806C114.781 113.93 114.613 114 114.438 114V114Z" fill="#3D4040"/>
<path fill-rule="evenodd" clip-rule="evenodd" d="M132.692 126.516L131.516 127.692C129.771 129.436 126.943 129.436 125.197 127.692L112 114.495L119.495 107L132.692 120.199C134.436 121.943 134.436 124.771 132.692 126.516" fill="#8B989A"/>
<path fill-rule="evenodd" clip-rule="evenodd" d="M113.508 114.034L126.115 126.641C127.548 128.074 130.045 128.073 131.477 126.641L132.64 125.479C133.356 124.763 133.751 123.81 133.751 122.797C133.751 121.784 133.356 120.832 132.64 120.115L120.034 107.508L113.508 114.034ZM128.796 129C127.505 129 126.214 128.508 125.232 127.524L112.182 114.475C112.066 114.358 112 114.199 112 114.034C112 113.868 112.066 113.709 112.182 113.592L119.592 106.183C119.836 105.939 120.232 105.939 120.475 106.183L133.523 119.232C134.475 120.184 135 121.451 135 122.797C135 124.143 134.475 125.41 133.523 126.362L132.36 127.524C131.378 128.508 130.088 129 128.796 129V129Z" fill="#3D4040"/>
<path fill-rule="evenodd" clip-rule="evenodd" d="M106.727 74.2708C113.757 81.301 113.757 92.6981 106.727 99.7282C99.6985 106.757 88.3015 106.757 81.2716 99.7282C74.2428 92.6981 74.2428 81.301 81.2716 74.2708C88.3015 67.242 99.6985 67.242 106.727 74.2708ZM77.0294 70.0286C67.6569 79.4025 67.6569 94.5978 77.0294 103.97C86.4019 113.343 101.598 113.343 110.971 103.97C120.343 94.5978 120.343 79.4025 110.971 70.0286C101.598 60.6571 86.4019 60.6571 77.0294 70.0286V70.0286Z" fill="#B7C5C9"/>
<path fill-rule="evenodd" clip-rule="evenodd" d="M93.4995 70.2099C89.0706 70.2099 84.6417 71.8961 81.2695 75.2684C74.5262 82.013 74.5262 92.9867 81.2695 99.7301C88.0153 106.476 98.9888 106.475 105.731 99.7301C112.475 92.9867 112.475 82.013 105.731 75.2684C102.36 71.8961 97.9284 70.2099 93.4995 70.2099ZM93.4995 106.03C88.7528 106.03 84.0048 104.222 80.3916 100.608C73.1641 93.3803 73.1641 81.6182 80.3916 74.3905C87.6204 67.1617 99.3811 67.1629 106.609 74.3905C113.836 81.6182 113.836 93.3803 106.609 100.608C102.994 104.222 98.2475 106.03 93.4995 106.03ZM77.0455 71.0456C67.9729 80.1183 67.9729 94.8814 77.0455 103.954C86.1193 113.026 100.881 113.026 109.954 103.954C119.026 94.8814 119.026 80.1183 109.954 71.0456C100.881 61.9741 86.1193 61.9741 77.0455 71.0456ZM93.4995 112C87.2231 112 80.9467 109.61 76.1676 104.832C66.6108 95.275 66.6108 79.7247 76.1676 70.1677C85.7257 60.6108 101.275 60.6108 110.831 70.1677C120.39 79.7247 120.39 95.275 110.831 104.832C106.054 109.61 99.7772 112 93.4995 112V112Z" fill="#3D4040"/>
<path fill-rule="evenodd" clip-rule="evenodd" d="M83.5 101C83.224 101 83 100.71 83 100.352V88.6482C83 88.2904 83.224 88 83.5 88C83.777 88 84 88.2904 84 88.6482V100.352C84 100.71 83.777 101 83.5 101" fill="#3D4040"/>
<path fill-rule="evenodd" clip-rule="evenodd" d="M86.5 103C86.224 103 86 102.724 86 102.38V87.6197C86 87.2764 86.224 87 86.5 87C86.777 87 87 87.2764 87 87.6197V102.38C87 102.724 86.777 103 86.5 103" fill="#3D4040"/>
<path fill-rule="evenodd" clip-rule="evenodd" d="M91.5 104C91.224 104 91 103.741 91 103.42V87.5799C91 87.2598 91.224 87 91.5 87C91.777 87 92 87.2598 92 87.5799V103.42C92 103.741 91.777 104 91.5 104" fill="#3D4040"/>
<path fill-rule="evenodd" clip-rule="evenodd" d="M95.5 106C95.224 106 95 105.72 95 105.373V85.6268C95 85.2795 95.224 85 95.5 85C95.777 85 96 85.2795 96 85.6268V105.373C96 105.72 95.777 106 95.5 106" fill="#3D4040"/>
<path fill-rule="evenodd" clip-rule="evenodd" d="M100.5 103C100.224 103 100 102.723 100 102.382V81.6179C100 81.2756 100.224 81 100.5 81C100.777 81 101 81.2756 101 81.6179V102.382C101 102.723 100.777 103 100.5 103" fill="#3D4040"/>
<path fill-rule="evenodd" clip-rule="evenodd" d="M104.5 101C104.224 101 104 100.723 104 100.378V79.622C104 79.2787 104.224 79 104.5 79C104.777 79 105 79.2787 105 79.622V100.378C105 100.723 104.777 101 104.5 101" fill="#3D4040"/>
<path fill-rule="evenodd" clip-rule="evenodd" d="M240.481 65.6268C243.725 45.7347 262.481 32.238 282.373 35.4811C302.266 38.7241 315.761 57.48 312.519 77.372C309.275 97.2653 290.521 110.762 270.627 107.519C250.736 104.276 237.239 85.52 240.481 65.6268" fill="#EDF7FA"/>
<path fill-rule="evenodd" clip-rule="evenodd" d="M277.606 35.1572C277.272 35.1572 277 34.8911 277 34.5786C277 34.2546 277.286 34 277.631 34C277.964 34 278.236 34.2662 278.236 34.5902C278.236 34.9015 277.952 35.1572 277.618 35.1572C277.618 35.1572 277.618 35.1572 277.606 35.1572ZM274.529 34.6585C274.516 34.3356 274.776 34.0567 275.109 34.0463C275.456 34.0336 275.741 34.2777 275.765 34.5902C275.777 34.9142 275.517 35.1804 275.184 35.2035C275.171 35.2035 275.159 35.2035 275.147 35.2035C274.825 35.2035 274.541 34.9605 274.529 34.6585ZM280.041 35.2602C279.695 35.2371 279.449 34.9605 279.472 34.6353C279.497 34.3229 279.794 34.0798 280.14 34.1157C280.473 34.1389 280.733 34.4166 280.708 34.7406C280.671 35.0403 280.399 35.2602 280.09 35.2602C280.067 35.2602 280.053 35.2602 280.041 35.2602ZM272.069 34.8911C272.033 34.5786 272.267 34.2893 272.613 34.2546C272.947 34.2083 273.256 34.4397 273.293 34.751C273.342 35.0762 273.095 35.3655 272.761 35.4002C272.737 35.4002 272.712 35.4002 272.687 35.4002C272.378 35.4002 272.106 35.1908 272.069 34.8911ZM282.451 35.5264V35.5264C282.117 35.4697 281.882 35.1804 281.932 34.8679C281.981 34.5439 282.29 34.3356 282.636 34.3819C282.97 34.4166 283.205 34.7175 283.157 35.0299C283.107 35.3192 282.848 35.5264 282.539 35.5264C282.513 35.5264 282.489 35.5264 282.451 35.5264ZM269.634 35.2845C269.573 34.9709 269.795 34.6712 270.13 34.6122C270.462 34.5439 270.784 34.751 270.846 35.0646C270.92 35.3887 270.697 35.6895 270.364 35.7474C270.326 35.7474 270.277 35.759 270.24 35.759C269.956 35.759 269.696 35.5622 269.634 35.2845ZM284.849 35.9326C284.502 35.862 284.292 35.5495 284.366 35.2371C284.441 34.9246 284.774 34.729 285.108 34.7985C285.442 34.8679 285.652 35.1804 285.579 35.4801C285.516 35.759 285.256 35.9441 284.972 35.9441C284.935 35.9441 284.886 35.9326 284.849 35.9326ZM267.237 35.8284C267.15 35.516 267.349 35.2035 267.682 35.1225C268.003 35.0403 268.349 35.2266 268.436 35.5391C268.522 35.8515 268.312 36.164 267.991 36.245C267.941 36.2566 267.879 36.2681 267.83 36.2681C267.558 36.2681 267.311 36.0946 267.237 35.8284ZM287.197 36.4869C286.875 36.3943 286.678 36.0818 286.777 35.7694C286.875 35.4697 287.209 35.2845 287.543 35.3771C287.864 35.4697 288.062 35.7821 287.963 36.0946C287.889 36.348 287.642 36.5112 287.37 36.5112C287.308 36.5112 287.259 36.4996 287.197 36.4869ZM264.877 36.5227C264.765 36.2219 264.938 35.8978 265.272 35.7925C265.593 35.6895 265.939 35.8515 266.05 36.164C266.163 36.4649 265.988 36.7889 265.655 36.893C265.593 36.9162 265.531 36.9162 265.469 36.9162C265.21 36.9162 264.963 36.7657 264.877 36.5227ZM289.508 37.1939V37.1939C289.187 37.0898 289.027 36.7542 289.137 36.4533C289.261 36.1524 289.607 35.9904 289.928 36.105C290.249 36.2103 290.422 36.5459 290.299 36.8468C290.214 37.0782 289.978 37.2286 289.718 37.2286C289.645 37.2286 289.582 37.2159 289.508 37.1939ZM262.577 37.3675C262.441 37.0782 262.59 36.7299 262.911 36.6153C263.232 36.4869 263.591 36.6373 263.714 36.9266C263.85 37.2286 263.702 37.5642 263.382 37.6799C263.306 37.7147 263.22 37.7262 263.146 37.7262C262.911 37.7262 262.676 37.5874 262.577 37.3675ZM291.759 38.0387C291.45 37.9114 291.312 37.5746 291.45 37.2853C291.584 36.9856 291.955 36.8583 292.264 36.9856C292.573 37.1129 292.721 37.4601 292.573 37.7494C292.474 37.9693 292.252 38.0965 292.017 38.0965C291.93 38.0965 291.844 38.0734 291.759 38.0387ZM260.34 38.3511C260.192 38.0734 260.316 37.7262 260.625 37.5746C260.921 37.4369 261.292 37.5515 261.453 37.8408C261.601 38.1301 261.465 38.4784 261.17 38.6173C261.082 38.6624 260.983 38.6752 260.896 38.6752C260.662 38.6752 260.452 38.5594 260.34 38.3511ZM293.945 39.0339V39.0339C293.648 38.8835 293.537 38.5363 293.685 38.2586C293.846 37.9693 294.217 37.8639 294.526 38.0155C294.822 38.1532 294.946 38.5131 294.785 38.7909C294.674 38.9876 294.464 39.1033 294.241 39.1033C294.143 39.1033 294.044 39.0802 293.945 39.0339ZM258.177 39.4852C258.004 39.2075 258.116 38.8487 258.4 38.6856C258.698 38.5247 259.08 38.6173 259.253 38.895C259.413 39.1728 259.316 39.5303 259.018 39.6935C258.931 39.7398 258.82 39.7745 258.709 39.7745C258.499 39.7745 258.289 39.6692 258.177 39.4852ZM296.058 40.1552V40.1552C295.775 39.9944 295.675 39.6356 295.861 39.3695C296.034 39.0906 296.417 39.0107 296.702 39.1728C296.702 39.1728 296.702 39.1728 296.713 39.1728C296.998 39.3463 297.084 39.7051 296.911 39.9712C296.787 40.1448 296.59 40.249 296.38 40.249C296.268 40.249 296.157 40.2143 296.058 40.1552ZM256.101 40.7338C255.917 40.4677 255.99 40.1089 256.275 39.9365C256.558 39.7629 256.942 39.8324 257.127 40.0985C257.325 40.3531 257.25 40.7107 256.966 40.897C256.855 40.9664 256.744 41 256.62 41C256.422 41 256.226 40.9086 256.101 40.7338V40.7338Z" fill="#3D4040"/>
<path fill-rule="evenodd" clip-rule="evenodd" d="M308.358 90H245.643C245.288 90 245 89.7098 245 89.3517V49.6483C245 49.2902 245.288 49 245.643 49H308.358C308.713 49 309 49.2902 309 49.6483V89.3517C309 89.7098 308.713 90 308.358 90" fill="#EDF7FA"/>
<path fill-rule="evenodd" clip-rule="evenodd" d="M307.869 90.4799H245.132C244.777 90.4799 244.489 90.19 244.489 89.8322V50.1678C244.489 49.81 244.777 49.5201 245.132 49.5201H307.869C308.225 49.5201 308.511 49.81 308.511 50.1678V89.8322C308.511 90.19 308.225 90.4799 307.869 90.4799ZM310.756 45H242.244C241.005 45 240 46.0116 240 47.2601V92.7399C240 93.9872 241.005 95 242.244 95H310.756C311.995 95 313 93.9872 313 92.7399V47.2601C313 46.0116 311.995 45 310.756 45V45Z" fill="#F5C140"/>
<path fill-rule="evenodd" clip-rule="evenodd" d="M244.882 48.8398L244.85 89.1289L309.119 89.1602C309.136 89.1602 309.15 89.1464 309.15 89.1289V48.8711L244.882 48.8398ZM309.119 90.4123H244.882C244.173 90.4123 243.596 89.8363 243.596 89.1289V48.8711C243.596 48.1637 244.173 47.5877 244.882 47.5877H309.119C309.827 47.5877 310.404 48.1637 310.404 48.8711V89.1289C310.404 89.8363 309.827 90.4123 309.119 90.4123ZM241.925 44.2521C241.005 44.2521 240.254 44.9996 240.254 45.9199V92.0801C240.254 92.9991 241.005 93.7479 241.925 93.7479H312.075C312.995 93.7479 313.746 92.9991 313.746 92.0801V45.9199C313.746 44.9996 312.995 44.2521 312.075 44.2521H241.925ZM312.075 95H241.925C240.312 95 239 93.6903 239 92.0801V45.9199C239 44.3097 240.312 43 241.925 43H312.075C313.688 43 315 44.3097 315 45.9199V92.0801C315 93.6903 313.688 95 312.075 95V95Z" fill="#3D4040"/>
<path fill-rule="evenodd" clip-rule="evenodd" d="M273 101H279V94H273V101Z" fill="#FAD59A"/>
<path fill-rule="evenodd" clip-rule="evenodd" d="M274.4 99.8333H278.6V95.1667H274.4V99.8333ZM279.3 101H273.7C273.314 101 273 100.739 273 100.417V94.5833C273 94.2613 273.314 94 273.7 94H279.3C279.686 94 280 94.2613 280 94.5833V100.417C280 100.739 279.686 101 279.3 101V101Z" fill="#3D4040"/>
<path fill-rule="evenodd" clip-rule="evenodd" d="M262 107H293V101H262V107Z" fill="#FAD59A"/>
<path fill-rule="evenodd" clip-rule="evenodd" d="M261.222 105.6H291.778V101.4H261.222V105.6ZM292.389 107H260.611C260.274 107 260 106.688 260 106.3V100.7C260 100.314 260.274 100 260.611 100H292.389C292.726 100 293 100.314 293 100.7V106.3C293 106.688 292.726 107 292.389 107V107Z" fill="#3D4040"/>
<path fill-rule="evenodd" clip-rule="evenodd" d="M282.586 74C282.379 74 282.176 73.8994 282.071 73.7196C281.916 73.4594 282.023 73.1351 282.308 72.9938L290.213 69.0826L282.443 64.999C282.162 64.8513 282.065 64.5248 282.227 64.2679C282.388 64.0121 282.747 63.9243 283.027 64.071L291.706 68.633C291.89 68.7304 292.002 68.9103 292 69.104C291.998 69.2977 291.879 69.4754 291.693 69.5685L282.865 73.9358C282.776 73.9797 282.681 74 282.586 74" fill="#3D4040"/>
<path fill-rule="evenodd" clip-rule="evenodd" d="M270.265 74C270.167 74 270.066 73.9775 269.973 73.9294L261.294 69.3673C261.11 69.271 260.998 69.0901 261 68.8964C261.002 68.7026 261.121 68.5249 261.307 68.4329L270.135 64.0646C270.42 63.9244 270.776 64.0197 270.929 64.2798C271.084 64.5399 270.977 64.8653 270.694 65.0055L262.788 68.9178L270.557 73.0013C270.838 73.148 270.935 73.4755 270.773 73.7313C270.664 73.9037 270.468 74 270.265 74" fill="#3D4040"/>
<path fill-rule="evenodd" clip-rule="evenodd" d="M272.623 79C272.553 79 272.481 78.9881 272.41 78.9642C272.087 78.8522 271.92 78.5088 272.037 78.1999L278.791 60.3926C278.908 60.0825 279.266 59.9252 279.59 60.0349C279.912 60.1469 280.08 60.4891 279.962 60.7979L273.208 78.6065C273.118 78.8498 272.877 79 272.623 79" fill="#3D4040"/>
<path fill-rule="evenodd" clip-rule="evenodd" d="M218.431 144.793C213.831 145.723 209.565 142.747 208.636 138.146C207.706 133.545 210.357 129.062 214.957 128.132C216.464 127.828 217.994 127.949 218.994 128.404V110.355C218.994 109.441 219.119 109 218.203 109H188.331C187.416 109 186 109.441 186 110.355V166.236C186 167.152 187.416 168 188.331 168H218.203C219.119 168 218.994 167.152 218.994 166.236V144.521C218.994 144.629 218.773 144.724 218.431 144.793" fill="#D3E9F2"/>
<path fill-rule="evenodd" clip-rule="evenodd" d="M187.926 110.226C187.115 110.226 186.222 110.612 186.222 110.963V166.63C186.222 167.09 187.242 167.774 187.926 167.774H217.597C217.694 167.774 217.729 167.757 217.729 167.757C217.787 167.667 217.779 167.209 217.776 166.934L217.772 166.63V145.903C215.469 146.327 213.155 145.84 211.246 144.529C209.307 143.199 207.975 141.154 207.496 138.769C207.013 136.374 207.425 133.959 208.655 131.966C209.909 129.932 211.896 128.548 214.252 128.071C215.485 127.822 216.738 127.833 217.772 128.089L217.776 110.66C217.778 110.514 217.78 110.341 217.771 110.236C217.733 110.231 217.677 110.226 217.597 110.226H187.926ZM217.597 169H187.926C186.775 169 185 167.982 185 166.63V110.963C185 109.609 186.711 109 187.926 109H217.597C217.908 109 218.355 109.038 218.668 109.357C219.013 109.709 219.005 110.18 218.998 110.68L218.994 110.963V129.895L218.13 129.5C217.227 129.087 215.832 129.001 214.492 129.273C212.474 129.683 210.769 130.869 209.692 132.611C208.628 134.338 208.272 136.438 208.694 138.526C209.11 140.596 210.262 142.368 211.936 143.518C213.617 144.672 215.661 145.082 217.702 144.667H217.703C217.905 144.626 217.975 144.591 217.975 144.591C217.909 144.625 217.772 144.771 217.772 144.998H218.994L218.997 166.916C219.006 167.543 219.015 168.191 218.587 168.627C218.345 168.875 218.011 169 217.597 169V169Z" fill="#3D4040"/>
<path fill-rule="evenodd" clip-rule="evenodd" d="M208.714 139.145C207.822 134.544 210.484 130.062 214.901 129.131C214.999 129.111 215 129.103 215 129.086V114H191V160H215V145.841C212.119 145.284 209.404 142.706 208.714 139.145" fill="#EDF7FA"/>
<path fill-rule="evenodd" clip-rule="evenodd" d="M203.343 164H199.657C199.293 164 199 163.776 199 163.5C199 163.223 199.293 163 199.657 163H203.343C203.707 163 204 163.223 204 163.5C204 163.776 203.707 164 203.343 164" fill="#3D4040"/>
<path fill-rule="evenodd" clip-rule="evenodd" d="M216.755 168H187.245C186.008 168 185 166.987 185 165.743V110.257C185 109.013 186.008 108 187.245 108H216.755C217.992 108 219 109.013 219 110.257V123.066C219 123.403 218.729 123.677 218.392 123.677C218.057 123.677 217.784 123.403 217.784 123.066V110.257C217.784 109.687 217.324 109.222 216.755 109.222H187.245C186.678 109.222 186.216 109.687 186.216 110.257V165.743C186.216 166.313 186.678 166.778 187.245 166.778H216.755C217.324 166.778 217.784 166.313 217.784 165.743V149.26C217.784 148.923 218.057 148.649 218.392 148.649C218.729 148.649 219 148.923 219 149.26V165.743C219 166.987 217.992 168 216.755 168" fill="#3D4040"/>
<path fill-rule="evenodd" clip-rule="evenodd" d="M213.392 159H188.608C188.271 159 188 158.719 188 158.373V111.627C188 111.281 188.271 111 188.608 111H213.392C213.728 111 214 111.281 214 111.627V121.962C214 122.31 213.728 122.591 213.392 122.591C213.055 122.591 212.784 122.31 212.784 121.962V112.254H189.216V157.746H212.784V149.129C212.784 148.781 213.055 148.502 213.392 148.502C213.728 148.502 214 148.781 214 149.129V158.373C214 158.719 213.728 159 213.392 159" fill="#3D4040"/>
<path fill-rule="evenodd" clip-rule="evenodd" d="M221.291 141.804C217.637 144.316 212.636 143.394 210.122 139.743C207.608 136.093 208.532 131.098 212.186 128.586C215.839 126.075 220.84 126.998 223.355 130.647C225.869 134.297 224.946 139.293 221.291 141.804ZM233.644 130.304L232.16 126.831L228.129 128.55C227.052 126.626 225.545 125.059 223.781 123.925L225.406 119.839L221.87 118.365L220.273 122.338C218.181 121.737 215.934 121.656 213.725 122.158L211.948 118L208.471 119.481L210.191 123.509C208.104 124.675 206.451 126.35 205.298 128.305L201.761 126.901L200.328 130.529L203.826 131.957C203.299 134.17 203.331 136.531 204.032 138.821L200 140.54L201.484 144.013L205.648 142.238C206.891 144.123 208.566 145.615 210.488 146.627L208.872 150.616L212.483 152L214.139 147.913C216.196 148.313 218.367 148.223 220.475 147.579L222.195 151.604L225.671 150.124L223.894 145.965C225.631 144.822 227.025 143.309 228.027 141.581L232.572 143.414L234 139.906L229.429 138.089C229.902 136.153 229.941 134.101 229.48 132.08L233.644 130.304V130.304Z" fill="#B7C5C9"/>
<path fill-rule="evenodd" clip-rule="evenodd" d="M215.721 129.621C214.238 129.621 212.742 130.052 211.429 130.954C209.759 132.103 208.638 133.831 208.269 135.823C207.9 137.814 208.331 139.829 209.481 141.497C210.629 143.166 212.36 144.288 214.353 144.656C216.351 145.019 218.365 144.593 220.035 143.445C221.704 142.298 222.828 140.569 223.196 138.577C223.565 136.586 223.135 134.57 221.985 132.902C220.515 130.768 218.137 129.621 215.721 129.621ZM215.751 146.024C215.212 146.024 214.669 145.975 214.128 145.874C211.808 145.446 209.794 144.142 208.457 142.2C207.119 140.26 206.62 137.914 207.048 135.597C207.476 133.28 208.782 131.268 210.725 129.932C214.736 127.176 220.245 128.19 223.008 132.198C224.346 134.139 224.846 136.485 224.418 138.802C223.988 141.119 222.682 143.131 220.738 144.467C219.249 145.492 217.521 146.024 215.751 146.024ZM208.503 152.612L211.036 153.582L212.499 149.97C212.61 149.695 212.904 149.54 213.193 149.593C215.242 149.991 217.377 149.877 219.37 149.267C219.674 149.172 219.998 149.324 220.123 149.616L221.638 153.162L224.05 152.135L222.477 148.453C222.36 148.178 222.457 147.858 222.706 147.693C224.349 146.611 225.743 145.131 226.736 143.418C226.891 143.15 227.219 143.038 227.506 143.153L231.577 144.796L232.568 142.361L228.477 140.734C228.19 140.62 228.03 140.312 228.105 140.012C228.578 138.063 228.595 136.092 228.154 134.151C228.087 133.859 228.239 133.56 228.516 133.444L232.2 131.872L231.171 129.463L227.622 130.976C227.332 131.1 226.991 130.985 226.835 130.708C225.816 128.886 224.349 127.327 222.596 126.199C222.346 126.038 222.246 125.724 222.355 125.449L223.792 121.838L221.322 120.808L219.922 124.287C219.803 124.581 219.483 124.738 219.173 124.651C217.108 124.057 214.899 123.996 212.791 124.476C212.495 124.546 212.198 124.39 212.08 124.115L210.508 120.434L208.095 121.462L209.61 125.007C209.736 125.299 209.619 125.637 209.342 125.793C207.38 126.889 205.73 128.507 204.571 130.47C204.417 130.733 204.094 130.846 203.807 130.732L200.77 129.525L199.758 132.087L202.767 133.315C203.05 133.43 203.206 133.735 203.135 134.032C202.606 136.256 202.676 138.569 203.335 140.725C203.428 141.028 203.277 141.353 202.985 141.477L199.436 142.99L200.465 145.399L204.151 143.829C204.424 143.711 204.746 143.806 204.914 144.057C206.098 145.857 207.73 147.338 209.633 148.338C209.913 148.488 210.037 148.824 209.918 149.119L208.503 152.612ZM211.382 155C211.308 155 211.233 154.986 211.16 154.958L207.468 153.544C207.312 153.484 207.187 153.364 207.12 153.211C207.055 153.059 207.052 152.885 207.114 152.731L208.56 149.162C206.835 148.163 205.332 146.796 204.17 145.169L200.381 146.785C200.066 146.92 199.702 146.772 199.566 146.457L198.049 142.908C197.986 142.756 197.983 142.584 198.045 142.432C198.106 142.279 198.225 142.158 198.377 142.093L201.995 140.55C201.461 138.51 201.398 136.357 201.814 134.266L198.721 133.003C198.407 132.875 198.254 132.518 198.378 132.202L199.843 128.492C199.904 128.338 200.022 128.215 200.174 128.151C200.326 128.085 200.497 128.082 200.649 128.143L203.781 129.387C204.93 127.596 206.461 126.093 208.253 124.992L206.709 121.379C206.575 121.064 206.722 120.699 207.037 120.564L210.591 119.049C210.744 118.985 210.917 118.984 211.067 119.045C211.22 119.105 211.343 119.224 211.406 119.376L213.023 123.162C215.001 122.789 217.036 122.842 218.975 123.315L220.403 119.762C220.465 119.608 220.587 119.485 220.739 119.422C220.892 119.357 221.066 119.357 221.219 119.42L224.834 120.929C225.147 121.059 225.297 121.415 225.171 121.73L223.695 125.441C225.277 126.544 226.626 127.974 227.638 129.621L231.255 128.077C231.407 128.014 231.578 128.013 231.731 128.074C231.883 128.134 232.005 128.254 232.07 128.405L233.587 131.955C233.651 132.106 233.653 132.278 233.592 132.43C233.53 132.583 233.411 132.704 233.259 132.77L229.469 134.385C229.803 136.156 229.789 138 229.428 139.777L233.608 141.439C233.762 141.5 233.885 141.619 233.951 141.772C234.014 141.924 234.017 142.096 233.955 142.249L232.494 145.837C232.364 146.154 232.004 146.304 231.686 146.178L227.531 144.501C226.559 146.038 225.291 147.382 223.818 148.434L225.436 152.218C225.501 152.369 225.503 152.54 225.441 152.693C225.379 152.845 225.261 152.968 225.109 153.033L221.554 154.546C221.236 154.682 220.874 154.534 220.739 154.22L219.196 150.606C217.329 151.093 215.369 151.196 213.462 150.899L211.959 154.612C211.86 154.852 211.628 155 211.382 155V155Z" fill="#3D4040"/>
<path fill-rule="evenodd" clip-rule="evenodd" d="M317 187.001C317 195.284 310.284 202 302 202C293.717 202 287 195.284 287 187.001C287 178.716 293.717 172 302 172C310.284 172 317 178.716 317 187.001" fill="#FAD59A"/>
<path fill-rule="evenodd" clip-rule="evenodd" d="M264 157.001C264 163.627 258.628 169 252 169C245.372 169 240 163.627 240 157.001C240 150.373 245.372 145 252 145C258.628 145 264 150.373 264 157.001" fill="#FAD59A"/>
<path fill-rule="evenodd" clip-rule="evenodd" d="M253.665 142C251.641 142 250 143.633 250 145.647V205.353C250 207.367 251.641 209 253.665 209H299.335C301.359 209 303 207.367 303 205.353V145.647C303 143.633 301.359 142 299.335 142H253.665" fill="#FFFFFE"/>
<path fill-rule="evenodd" clip-rule="evenodd" d="M300.658 209H254.342C251.947 209 250 207.068 250 204.692V144.308C250 141.932 251.947 140 254.342 140H264.917C265.262 140 265.541 140.278 265.541 140.62C265.541 140.964 265.262 141.24 264.917 141.24H254.342C252.637 141.24 251.25 142.617 251.25 144.308V204.692C251.25 206.383 252.637 207.76 254.342 207.76H300.658C302.363 207.76 303.75 206.383 303.75 204.692V144.308C303.75 142.617 302.363 141.24 300.658 141.24H289.911C289.566 141.24 289.286 140.964 289.286 140.62C289.286 140.278 289.566 140 289.911 140H300.658C303.053 140 305 141.932 305 144.308V204.692C305 207.068 303.053 209 300.658 209" fill="#3D4040"/>
<path fill-rule="evenodd" clip-rule="evenodd" d="M286.268 136.168H281.78C281.78 133.761 279.473 131 276.628 131C273.781 131 271.475 133.761 271.475 136.168H266.986C265.681 136.168 264 136.817 264 138.127V143.763C264 145.074 265.681 147 266.986 147H286.268C287.574 147 288 145.074 288 143.763V138.127C288 136.817 287.574 136.168 286.268 136.168" fill="#FAD59A"/>
<path fill-rule="evenodd" clip-rule="evenodd" d="M299.605 208H255.397C254.076 208 253 206.921 253 205.594V146.407C253 145.081 254.076 144 255.397 144H265.167C265.505 144 265.779 144.276 265.779 144.615C265.779 144.955 265.505 145.231 265.167 145.231H255.397C254.751 145.231 254.225 145.759 254.225 146.407V205.594C254.225 206.241 254.751 206.769 255.397 206.769H299.605C300.251 206.769 300.775 206.241 300.775 205.594V146.407C300.775 145.759 300.251 145.231 299.605 145.231H289.667C289.329 145.231 289.054 144.955 289.054 144.615C289.054 144.276 289.329 144 289.667 144H299.605C300.927 144 302 145.081 302 146.407V205.594C302 206.921 300.927 208 299.605 208" fill="#3D4040"/>
<path fill-rule="evenodd" clip-rule="evenodd" d="M267.08 136.297C266.116 136.297 265.238 137.218 265.238 138.232V143.802C265.238 144.834 266.134 145.811 267.08 145.811H286.975C287.998 145.811 288.762 144.751 288.762 143.802V138.232C288.762 137.201 287.926 136.297 286.975 136.297H282.345C282.002 136.297 281.726 136.03 281.726 135.702C281.726 133.659 279.63 131.189 277.028 131.189C274.426 131.189 272.331 133.659 272.331 135.702C272.331 136.03 272.054 136.297 271.712 136.297H267.08ZM286.975 147H267.08C265.44 147 264 145.506 264 143.802V138.232C264 136.567 265.44 135.107 267.08 135.107H271.135C271.483 132.626 273.934 130 277.028 130C280.122 130 282.573 132.626 282.921 135.107H286.975C288.615 135.107 290 136.538 290 138.232V143.802C290 145.315 288.757 147 286.975 147V147Z" fill="#3D4040"/>
<path fill-rule="evenodd" clip-rule="evenodd" d="M277.001 135.282C276.052 135.282 275.282 136.052 275.282 137.001C275.282 137.948 276.052 138.718 277.001 138.718C277.948 138.718 278.718 137.948 278.718 137.001C278.718 136.052 277.948 135.282 277.001 135.282ZM277.001 140C275.346 140 274 138.654 274 137.001C274 135.346 275.346 134 277.001 134C278.655 134 280 135.346 280 137.001C280 138.654 278.655 140 277.001 140V140Z" fill="#3D4040"/>
<path fill-rule="evenodd" clip-rule="evenodd" d="M284.381 142H270.619C270.277 142 270 141.776 270 141.5C270 141.224 270.277 141 270.619 141H284.381C284.723 141 285 141.224 285 141.5C285 141.776 284.723 142 284.381 142" fill="#3D4040"/>
<path fill-rule="evenodd" clip-rule="evenodd" d="M293.365 157H272.635C272.284 157 272 156.776 272 156.5C272 156.223 272.284 156 272.635 156H293.365C293.716 156 294 156.223 294 156.5C294 156.776 293.716 157 293.365 157" fill="#3D4040"/>
<path fill-rule="evenodd" clip-rule="evenodd" d="M293.365 161H272.635C272.284 161 272 160.776 272 160.5C272 160.224 272.284 160 272.635 160H293.365C293.716 160 294 160.224 294 160.5C294 160.776 293.716 161 293.365 161" fill="#3D4040"/>
<path fill-rule="evenodd" clip-rule="evenodd" d="M264.993 162C264.844 162 264.694 161.94 264.58 161.817L262.172 159.233C261.943 158.988 261.943 158.592 262.172 158.346C262.4 158.102 262.769 158.102 262.998 158.346L264.993 160.487L269.002 156.184C269.231 155.939 269.6 155.939 269.828 156.184C270.057 156.429 270.057 156.825 269.828 157.071L265.406 161.817C265.291 161.94 265.143 162 264.993 162" fill="#3D4040"/>
<path fill-rule="evenodd" clip-rule="evenodd" d="M293.365 170H272.635C272.284 170 272 169.776 272 169.5C272 169.223 272.284 169 272.635 169H293.365C293.716 169 294 169.223 294 169.5C294 169.776 293.716 170 293.365 170" fill="#3D4040"/>
<path fill-rule="evenodd" clip-rule="evenodd" d="M293.365 173H272.635C272.284 173 272 172.776 272 172.5C272 172.224 272.284 172 272.635 172H293.365C293.716 172 294 172.224 294 172.5C294 172.776 293.716 173 293.365 173" fill="#3D4040"/>
<path fill-rule="evenodd" clip-rule="evenodd" d="M264.993 173C264.844 173 264.694 172.94 264.58 172.817L262.172 170.231C261.943 169.987 261.943 169.591 262.172 169.345C262.4 169.1 262.769 169.1 262.998 169.345L264.993 171.487L269.002 167.184C269.231 166.939 269.6 166.939 269.828 167.184C270.057 167.429 270.057 167.825 269.828 168.071L265.406 172.817C265.291 172.94 265.143 173 264.993 173" fill="#3CDAD4"/>
<path fill-rule="evenodd" clip-rule="evenodd" d="M293.365 181H272.635C272.284 181 272 180.776 272 180.5C272 180.223 272.284 180 272.635 180H293.365C293.716 180 294 180.223 294 180.5C294 180.776 293.716 181 293.365 181" fill="#3D4040"/>
<path fill-rule="evenodd" clip-rule="evenodd" d="M293.365 185H272.635C272.284 185 272 184.776 272 184.5C272 184.224 272.284 184 272.635 184H293.365C293.716 184 294 184.224 294 184.5C294 184.776 293.716 185 293.365 185" fill="#3D4040"/>
<path fill-rule="evenodd" clip-rule="evenodd" d="M264.993 186C264.844 186 264.694 185.94 264.58 185.817L262.172 183.231C261.943 182.987 261.943 182.591 262.172 182.345C262.4 182.1 262.769 182.1 262.998 182.345L264.993 184.487L269.002 180.184C269.231 179.939 269.6 179.939 269.828 180.184C270.057 180.429 270.057 180.825 269.828 181.071L265.406 185.817C265.291 185.94 265.143 186 264.993 186" fill="#3CDAD4"/>
<path fill-rule="evenodd" clip-rule="evenodd" d="M293.365 194H272.635C272.284 194 272 193.776 272 193.5C272 193.223 272.284 193 272.635 193H293.365C293.716 193 294 193.223 294 193.5C294 193.776 293.716 194 293.365 194" fill="#3D4040"/>
<path fill-rule="evenodd" clip-rule="evenodd" d="M293.365 196H272.635C272.284 196 272 195.776 272 195.5C272 195.224 272.284 195 272.635 195H293.365C293.716 195 294 195.224 294 195.5C294 195.776 293.716 196 293.365 196" fill="#3D4040"/>
<path fill-rule="evenodd" clip-rule="evenodd" d="M264.993 199C264.838 199 264.69 198.935 264.58 198.817L262.172 196.232C261.943 195.987 261.943 195.591 262.172 195.346C262.4 195.101 262.769 195.101 262.998 195.346L264.993 197.487L269.002 193.184C269.231 192.939 269.6 192.939 269.828 193.184C270.057 193.429 270.057 193.825 269.828 194.071L265.406 198.817C265.296 198.935 265.148 199 264.993 199" fill="#3D4040"/>
<path fill-rule="evenodd" clip-rule="evenodd" d="M119.279 68.7808H124.721V47.2192H119.279V68.7808ZM118 70H126V46H118V70Z" fill="#3D4040"/>
<path fill-rule="evenodd" clip-rule="evenodd" d="M122 64.7265C121.849 64.7265 121.727 64.8493 121.727 65.0004C121.727 65.1507 121.849 65.2728 122 65.2728C122.15 65.2728 122.273 65.1507 122.273 65.0004C122.273 64.8493 122.15 64.7265 122 64.7265ZM122 66C121.448 66 121 65.551 121 65.0004C121 64.449 121.448 64 122 64C122.551 64 123 64.449 123 65.0004C123 65.551 122.551 66 122 66V66Z" fill="#3D4040"/>
<path fill-rule="evenodd" clip-rule="evenodd" d="M122 61.7267C121.849 61.7267 121.727 61.8496 121.727 62C121.727 62.1504 121.849 62.2733 122 62.2733C122.15 62.2733 122.273 62.1504 122.273 62C122.273 61.8496 122.15 61.7267 122 61.7267ZM122 63C121.448 63 121 62.5516 121 62C121 61.4491 121.448 61 122 61C122.551 61 123 61.4491 123 62C123 62.5516 122.551 63 122 63V63Z" fill="#3D4040"/>
<path fill-rule="evenodd" clip-rule="evenodd" d="M125.256 66.8657H126.098C126.721 66.8657 127.329 67.1218 127.77 67.5678L128.587 68.3972C128.795 68.6087 129.074 68.7259 129.37 68.7259H144.956C146.025 68.7259 146.896 67.843 146.896 66.7587C146.896 65.6745 146.025 64.7915 144.956 64.7915H143.503C143.157 64.7915 142.875 64.5074 142.875 64.1545C142.875 63.8028 143.157 63.5174 143.503 63.5174H146.423C147.492 63.5174 148.362 62.6358 148.362 61.5515C148.362 60.466 147.492 59.5843 146.423 59.5843H143.503C143.157 59.5843 142.875 59.2989 142.875 58.9473C142.875 58.5956 143.157 58.3103 143.503 58.3103H146.805C147.874 58.3103 148.744 57.4286 148.744 56.3443C148.744 55.2588 147.874 54.3771 146.805 54.3771H143.503C143.157 54.3771 142.875 54.0917 142.875 53.7401C142.875 53.3872 143.157 53.1031 143.503 53.1031H146.182C147.252 53.1031 148.122 52.2201 148.122 51.1359C148.122 50.0516 147.252 49.1687 146.182 49.1687H137.546C136.708 49.1687 136.078 48.8718 135.774 48.3329C134.72 46.4663 136.151 44.3552 137.197 42.8135C137.454 42.4351 137.687 42.0937 137.841 41.807C139.114 39.441 139.287 37.47 138.327 36.2571C137.772 35.5551 136.845 35.1919 135.973 35.2939C135.709 36.5412 134.776 38.1784 133.793 39.8984C133.571 40.2857 133.351 40.6705 133.144 41.0438C131.268 44.4252 126.376 48.8132 125.256 49.7943V66.8657ZM144.956 70H129.37C128.739 70 128.145 69.7503 127.699 69.298L126.882 68.4685C126.675 68.2596 126.39 68.1398 126.098 68.1398H124.628C124.281 68.1398 124 67.8557 124 67.5028V49.5012C124 49.3139 124.082 49.1368 124.222 49.0158C124.281 48.9648 130.081 43.9666 132.049 40.4182C132.259 40.0411 132.482 39.6512 132.705 39.2588C133.655 37.5974 134.732 35.7118 134.788 34.7231C134.803 34.453 134.984 34.2224 135.24 34.1472C136.71 33.7191 138.347 34.2453 139.309 35.4595C140.059 36.41 141.011 38.5772 138.944 42.4173C138.773 42.7358 138.517 43.1155 138.232 43.5359C137.376 44.7986 136.203 46.5275 136.865 47.6997C136.918 47.7939 137.154 47.8946 137.546 47.8946H146.182C147.945 47.8946 149.378 49.3483 149.378 51.1359C149.378 52.0736 148.985 52.9183 148.355 53.5095C149.337 54.065 150 55.1263 150 56.3443C150 57.4999 149.401 58.5167 148.5 59.09C149.183 59.685 149.618 60.5679 149.618 61.5515C149.618 63.0014 148.675 64.2322 147.377 64.645C147.859 65.212 148.152 65.9509 148.152 66.7587C148.152 68.5463 146.718 70 144.956 70V70Z" fill="#3D4040"/>
<path fill-rule="evenodd" clip-rule="evenodd" d="M141.516 43C141.432 43 141.347 42.9778 141.269 42.9287C141.019 42.7745 140.926 42.4194 141.063 42.1367C142.123 39.9395 142.247 38.0552 141.404 36.9689C141.216 36.727 141.237 36.3579 141.452 36.1453C141.666 35.9327 141.991 35.9561 142.179 36.1979C142.853 37.0658 143.721 39.0633 141.97 42.6963C141.876 42.8902 141.698 43 141.516 43" fill="#3D4040"/>
<path fill-rule="evenodd" clip-rule="evenodd" d="M142.458 44C142.383 44 142.308 43.9766 142.238 43.9247C142.017 43.7619 141.935 43.3868 142.056 43.087C143.268 40.0989 143.402 37.524 142.423 36.0238C142.256 35.7684 142.274 35.3785 142.465 35.154C142.655 34.9282 142.945 34.9541 143.111 35.2095C143.845 36.3334 144.788 38.928 142.861 43.6792C142.778 43.884 142.621 44 142.458 44" fill="#3D4040"/>
<path fill-rule="evenodd" clip-rule="evenodd" d="M190.593 87C190.266 87 190 86.7323 190 86.3997C190 86.0684 190.266 85.7994 190.593 85.7994C194.024 85.7994 196.814 82.9733 196.814 79.5C196.814 76.0255 194.024 73.2006 190.593 73.2006C190.266 73.2006 190 72.9316 190 72.6003C190 72.2677 190.266 72 190.593 72C194.676 72 198 75.364 198 79.5C198 83.6348 194.676 87 190.593 87" fill="#3D4040"/>
<path fill-rule="evenodd" clip-rule="evenodd" d="M233.382 101H190.729C186.467 101 183 97.6363 183 93.5006C183 89.3649 186.467 86 190.729 86C191.07 86 191.347 86.2689 191.347 86.6002C191.347 86.9328 191.07 87.2005 190.729 87.2005C187.149 87.2005 184.237 90.0264 184.237 93.5006C184.237 96.9736 187.149 99.7995 190.729 99.7995H233.382C233.724 99.7995 234 100.068 234 100.4C234 100.732 233.724 101 233.382 101" fill="#3D4040"/>
<path fill-rule="evenodd" clip-rule="evenodd" d="M123.592 203C123.264 203 123 202.736 123 202.408C123 194.464 129.464 188 137.408 188C137.736 188 138 188.264 138 188.592C138 188.918 137.736 189.183 137.408 189.183C130.116 189.183 124.183 195.116 124.183 202.408C124.183 202.736 123.918 203 123.592 203" fill="#3D4040"/>
<path fill-rule="evenodd" clip-rule="evenodd" d="M117.632 202C117.283 202 117 201.718 117 201.368C117 191.24 125.24 183 135.368 183C135.717 183 136 183.283 136 183.632C136 183.982 135.717 184.263 135.368 184.263C125.937 184.263 118.263 191.938 118.263 201.368C118.263 201.718 117.982 202 117.632 202" fill="#3D4040"/>
<path fill-rule="evenodd" clip-rule="evenodd" d="M232.678 110C232.304 110 232 109.744 232 109.427C232 109.11 232.304 108.853 232.678 108.853C234.864 108.853 236.644 107.349 236.644 105.501C236.644 103.652 234.864 102.147 232.678 102.147C232.304 102.147 232 101.891 232 101.573C232 101.257 232.304 101 232.678 101C235.613 101 238 103.019 238 105.501C238 107.981 235.613 110 232.678 110" fill="#3D4040"/>
<path fill-rule="evenodd" clip-rule="evenodd" d="M258.379 118H232.872C230.186 118 228 115.982 228 113.5C228 111.019 230.186 109 232.872 109C233.214 109 233.493 109.257 233.493 109.573C233.493 109.891 233.214 110.147 232.872 110.147C230.871 110.147 229.242 111.651 229.242 113.5C229.242 115.349 230.871 116.853 232.872 116.853H258.379C258.722 116.853 259 117.109 259 117.427C259 117.743 258.722 118 258.379 118" fill="#3D4040"/>
<path fill-rule="evenodd" clip-rule="evenodd" d="M263.425 135H259.513C257.023 135 255 132.981 255 130.499C255 128.019 257.023 126 259.513 126C259.831 126 260.088 126.257 260.088 126.573C260.088 126.89 259.831 127.147 259.513 127.147C257.658 127.147 256.15 128.652 256.15 130.499C256.15 132.349 257.658 133.853 259.513 133.853H263.425C263.742 133.853 264 134.11 264 134.427C264 134.744 263.742 135 263.425 135" fill="#3D4040"/>
<path fill-rule="evenodd" clip-rule="evenodd" d="M258.678 126C258.304 126 258 125.744 258 125.427C258 125.11 258.304 124.853 258.678 124.853C260.864 124.853 262.644 123.349 262.644 121.501C262.644 119.652 260.864 118.147 258.678 118.147C258.304 118.147 258 117.891 258 117.573C258 117.257 258.304 117 258.678 117C261.613 117 264 119.019 264 121.501C264 123.981 261.613 126 258.678 126" fill="#3D4040"/>
<path fill-rule="evenodd" clip-rule="evenodd" d="M232 202.005L232.991 201L233.995 202.005L232.991 202.994C232 202.005 232.991 202.994 232 202.005ZM233.995 204.001L235 202.994L236.005 204.001L235 205.006C233.995 204.001 235 205.006 233.995 204.001ZM235.992 206.011L236.997 205.006L238 206.011L236.997 207C235.992 206.011 236.997 207 235.992 206.011V206.011Z" fill="#3D4040"/>
<path fill-rule="evenodd" clip-rule="evenodd" d="M235.99 202.005L236.996 201L238 202.005L236.996 202.996C235.99 202.005 236.996 202.996 235.99 202.005ZM233.995 204.001L234.999 202.996L236.004 204.001L234.999 205.006C233.995 204.001 234.999 205.006 233.995 204.001ZM232 206.011L232.99 205.006L233.995 206.011L232.99 207C232 206.011 232.99 207 232 206.011V206.011Z" fill="#3D4040"/>
<path fill-rule="evenodd" clip-rule="evenodd" d="M150 139.4V138H151V139.4C150 139.4 151 139.4 150 139.4ZM150 142.199V140.801H151V142.199C150 142.199 151 142.199 150 142.199ZM150 145V143.6H151V145C150 145 151 145 150 145V145Z" fill="#3D4040"/>
<path fill-rule="evenodd" clip-rule="evenodd" d="M148 142V141H149.4V142C148 142 149.4 142 148 142ZM150.8 142V141H152.2V142C150.8 142 152.2 142 150.8 142ZM153.6 142V141H155V142C153.6 142 155 142 153.6 142V142Z" fill="#3D4040"/>
<path fill-rule="evenodd" clip-rule="evenodd" d="M159 124.005L160.002 123L161.005 124.005L160.002 125.009C159 124.005 160.002 125.009 159 124.005ZM161.005 126L162.007 125.009L162.995 126L162.007 127.005C161.005 126 162.007 127.005 161.005 126ZM162.995 128.009L163.998 127.005L165 128.009L163.998 129C162.995 128.009 163.998 129 162.995 128.009V128.009Z" fill="#3D4040"/>
<path fill-rule="evenodd" clip-rule="evenodd" d="M162.995 124.005L163.998 123L165 124.005L163.998 124.995C162.995 124.005 163.998 124.995 162.995 124.005ZM161.005 125.999L162.007 124.995L162.995 125.999L162.007 127.003C161.005 125.999 162.007 127.003 161.005 125.999ZM159 127.995L160.002 127.003L161.005 127.995L160.002 129C159 127.995 160.002 129 159 127.995V127.995Z" fill="#3D4040"/>
<path fill-rule="evenodd" clip-rule="evenodd" d="M138.429 87.2937V87.2937L137.822 87.2083L138.004 86L139.206 86.1709L139.024 87.3779C138.429 87.2937 139.024 87.3779 138.429 87.2937ZM134.761 86.5004L135.332 86.3173C135.332 86.3173 135.332 86.3173 135.332 86.3295L135.915 86.1465L136.267 87.3181L135.101 87.6721C134.761 86.5004 135.101 87.6721 134.761 86.5004ZM140.992 88.2933L140.482 87.9528L141.162 86.9398L142.17 87.6233L141.49 88.6363C140.992 88.2933 141.49 88.6363 140.992 88.2933ZM132.04 88.3556L132.939 87.5378L133.753 88.441L132.854 89.2587C132.04 88.3556 132.854 89.2587 132.04 88.3556ZM142.874 90.2962L142.571 89.7701L143.603 89.1489L144.235 90.1863L143.19 90.821C142.874 90.2962 143.19 90.821 142.874 90.2962ZM130.364 91.1993L130.826 90.0643L131.943 90.5403L131.482 91.6631C130.364 91.1993 131.482 91.6631 130.364 91.1993ZM143.761 94.1286L143.676 92.31L144.879 92.188L145 93.4085H144.976V94.1286C143.761 94.1286 144.976 94.1286 143.761 94.1286ZM130.036 93.8723L130 93.262L131.215 93.2132L131.275 94.4203L130.061 94.4825C130.036 93.8723 130.061 94.4825 130.036 93.8723ZM142.899 96.7526L143.421 95.6542L144.514 96.1778L143.992 97.2775C142.899 96.7526 143.992 97.2775 142.899 96.7526ZM130.899 97.0456L130.607 96.5073L131.688 95.9349L132.259 97.0212L131.19 97.5948C130.899 97.0456 131.19 97.5948 130.899 97.0456ZM140.992 98.7665L141.939 97.9976L142.704 98.9373L141.769 99.705C140.992 98.7665 141.769 99.705 140.992 98.7665ZM133.036 99.5476L132.551 99.1814L133.279 98.205L134.251 98.9239L133.522 99.9125C133.036 99.5476 133.522 99.9125 133.036 99.5476ZM138.429 99.7673L139.012 99.6208L139.607 99.4744L139.899 100.658L139.304 100.803C139.304 100.803 139.304 100.803 139.316 100.803L138.721 100.951C138.429 99.7673 138.721 100.951 138.429 99.7673ZM136.036 100.878L135.441 100.768L135.672 99.572L136.862 99.8039L136.632 101C136.036 100.878 136.632 101 136.036 100.878V100.878Z" fill="#3D4040"/>
<path fill-rule="evenodd" clip-rule="evenodd" d="M140 94.5C140 95.8808 138.88 97 137.499 97C136.12 97 135 95.8808 135 94.5C135 93.1192 136.12 92 137.499 92C138.88 92 140 93.1192 140 94.5" fill="#E46E47"/>
<path fill-rule="evenodd" clip-rule="evenodd" d="M65.0752 115.317L66.1414 115L66.4669 116.09L65.3782 116.407C65.0752 115.317 65.3782 116.407 65.0752 115.317ZM68.33 116.327V116.327L67.8025 116.135L68.1841 115.068L69.2391 115.454L68.8575 116.52C68.33 116.327 68.8575 116.52 68.33 116.327ZM62.7071 117.384L63.3805 116.487L64.2783 117.178L63.5937 118.076C62.7071 117.384 63.5937 118.076 62.7071 117.384ZM70.2267 117.838L69.9125 117.361L70.844 116.725L71.1582 117.202L71.4725 117.667L70.541 118.303C70.2267 117.838 70.541 118.303 70.2267 117.838ZM62 120.47L62.0224 119.335L63.1448 119.358L63.1223 120.493C62 120.47 63.1223 120.493 62 120.47ZM70.8777 120.583V119.448H72V120.583C70.8777 120.583 72 120.583 70.8777 120.583ZM62.9203 122.911V122.911L62.5948 122.446L63.5152 121.799L63.8406 122.264V122.253L64.1549 122.717L63.2458 123.376C62.9203 122.911 63.2458 123.376 62.9203 122.911ZM69.8002 122.785L70.4624 121.866L71.3715 122.537L71.0348 123.001L70.7093 123.456C69.8002 122.785 70.7093 123.456 69.8002 122.785ZM65.4007 124.795L64.8732 124.614L65.2323 123.536L66.2985 123.91L65.9394 124.977C65.4007 124.795 65.9394 124.977 65.4007 124.795ZM67.6341 123.921L68.7116 123.581L69.0483 124.659L67.9708 125C67.6341 123.921 67.9708 125 67.6341 123.921V123.921Z" fill="#3D4040"/>
<path fill-rule="evenodd" clip-rule="evenodd" d="M70 120.001C70 121.657 68.6574 123 67 123C65.3439 123 64 121.657 64 120.001C64 118.343 65.3439 117 67 117C68.6574 117 70 118.343 70 120.001" fill="#EDF7FA"/>
<path fill-rule="evenodd" clip-rule="evenodd" d="M237.198 180.195L236.65 180.072L236.896 179L237.444 179.112L237.981 179.232L237.746 180.317C237.198 180.195 237.746 180.317 237.198 180.195ZM233.856 179.796L234.348 179.532L234.839 179.276L235.366 180.249L234.873 180.516L234.381 180.77C233.856 179.796 234.381 180.77 233.856 179.796ZM239.188 181.443L238.841 181.013L239.736 180.338L240.406 181.211L239.523 181.887C239.188 181.443 239.523 181.887 239.188 181.443ZM232.057 182.351L232.47 181.323L233.509 181.731L233.096 182.76C232.057 182.351 233.096 182.76 232.057 182.351ZM239.882 184.042V182.937H241V184.042C239.882 184.042 241 184.042 239.882 184.042ZM232.179 184.916C232.179 184.916 232.179 184.916 232.179 184.927L232 184.395L233.062 184.042L233.42 185.091L232.358 185.446C232.179 184.916 232.358 185.446 232.179 184.916ZM238.707 186.097L239.434 185.247L240.283 185.965L239.915 186.385L239.558 186.806C238.707 186.097 239.558 186.806 238.707 186.097ZM234.135 187.326L233.654 187.038L234.236 186.097L235.197 186.661L234.616 187.612C234.135 187.326 234.616 187.612 234.135 187.326ZM236.471 186.906L237.578 186.729L237.757 187.811L236.65 188C236.471 186.906 236.65 188 236.471 186.906V186.906Z" fill="#3D4040"/>
<path fill-rule="evenodd" clip-rule="evenodd" d="M236 185C236 185.553 235.552 186 235 186C234.447 186 234 185.553 234 185C234 184.447 234.447 184 235 184C235.552 184 236 184.447 236 185" fill="#E46E47"/>
<path fill-rule="evenodd" clip-rule="evenodd" d="M123.199 149.205L122.651 149.085L122.897 148L123.981 148.232L123.747 149.317C123.199 149.205 123.747 149.317 123.199 149.205ZM119.856 148.796L120.84 148.276L121.365 149.249L120.381 149.77C119.856 148.796 120.381 149.77 119.856 148.796ZM125.189 150.454V150.454L124.842 150.013L125.737 149.338L126.407 150.222L125.524 150.898C125.189 150.454 125.524 150.898 125.189 150.454ZM118.056 151.351L118.257 150.842L118.47 150.323L119.509 150.731L119.096 151.76C118.056 151.351 119.096 151.76 118.056 151.351ZM125.882 153.053V151.937H127V153.053C125.882 153.053 127 153.053 125.882 153.053ZM118.179 153.927V153.927L118 153.407L119.062 153.053L119.42 154.091L118.358 154.446C118.179 153.927 118.358 154.446 118.179 153.927ZM124.708 155.097L125.435 154.258L126.284 154.977L125.916 155.397C125.916 155.397 125.916 155.397 125.916 155.385L125.558 155.817C124.708 155.097 125.558 155.817 124.708 155.097ZM120.135 156.336C120.135 156.336 120.135 156.336 120.135 156.326L119.655 156.049L120.236 155.097L120.717 155.385L121.186 155.673L120.616 156.612C120.135 156.336 120.616 156.612 120.135 156.336ZM122.472 155.917L123.579 155.739L123.758 156.823L123.199 156.912L122.651 157C122.472 155.917 122.651 157 122.472 155.917V155.917Z" fill="#3D4040"/>
<path fill-rule="evenodd" clip-rule="evenodd" d="M123 151C123 151.552 122.553 152 122 152C121.447 152 121 151.552 121 151C121 150.447 121.447 150 122 150C122.553 150 123 150.447 123 151" fill="#E46E47"/>
<path fill-rule="evenodd" clip-rule="evenodd" d="M166.181 100.202L165.623 100.081L165.857 99L166.952 99.2316L166.717 100.312C166.181 100.202 166.717 100.313 166.181 100.202ZM162.831 99.8151L163.323 99.5515C163.323 99.5515 163.323 99.5515 163.323 99.5614L163.814 99.2978L164.339 100.268L163.356 100.787C162.831 99.8151 163.356 100.787 162.831 99.8151ZM168.169 101.425L167.823 100.996L168.705 100.312L169.386 101.194L168.504 101.868C168.169 101.425 168.504 101.868 168.169 101.425ZM161.045 102.375L161.458 101.349L162.496 101.757L162.083 102.782C161.045 102.375 162.083 102.782 161.045 102.375ZM168.883 104.039V102.949H170V104.039C168.883 104.039 170 104.039 168.883 104.039ZM161.19 104.945L161 104.415L162.061 104.062L162.239 104.581L162.418 105.11L161.368 105.463C161.19 104.945 161.368 105.463 161.19 104.945ZM167.711 106.091L168.437 105.254L169.285 105.96L168.56 106.809C167.711 106.091 168.56 106.809 167.711 106.091ZM163.144 107.338L162.664 107.051L163.244 106.103L164.205 106.676L163.624 107.614C163.144 107.338 163.624 107.614 163.144 107.338ZM165.478 106.908L166.583 106.731L166.762 107.824L165.656 108C165.478 106.908 165.656 108 165.478 106.908V106.908Z" fill="#3D4040"/>
<path fill-rule="evenodd" clip-rule="evenodd" d="M304 109H305V104H304V109Z" fill="#3D4040"/>
<path fill-rule="evenodd" clip-rule="evenodd" d="M304 112.429V111H305V112.429C304 112.429 305 112.429 304 112.429ZM304 116V114.571H305V116C304 116 305 116 304 116V116Z" fill="#3D4040"/>
<path fill-rule="evenodd" clip-rule="evenodd" d="M172 152H173V147H172V152Z" fill="#3D4040"/>
<path fill-rule="evenodd" clip-rule="evenodd" d="M172 155.429V154H173V155.429C172 155.429 173 155.429 172 155.429ZM172 159V157.571H173V159C172 159 173 159 172 159V159Z" fill="#3D4040"/>
<path fill-rule="evenodd" clip-rule="evenodd" d="M277 118H278V113H277V118Z" fill="#3D4040"/>
<path fill-rule="evenodd" clip-rule="evenodd" d="M277 120.429V119H278V120.429C277 120.429 278 120.429 277 120.429ZM277 124V122.571H278V124C277 124 278 124 277 124V124Z" fill="#3D4040"/>
<path fill-rule="evenodd" clip-rule="evenodd" d="M290 126H291V121H290V126Z" fill="#3D4040"/>
<path fill-rule="evenodd" clip-rule="evenodd" d="M290 129.429V128H291V129.429C290 129.429 291 129.429 290 129.429ZM290 133V131.571H291V133C290 133 291 133 290 133V133Z" fill="#3D4040"/>
<path fill-rule="evenodd" clip-rule="evenodd" d="M301 128.005L302.005 127L302.995 128.005L302.005 128.996C301 128.005 302.005 128.996 301 128.005ZM302.995 130.001L304 128.996L305.006 130.001L304 131.006C302.995 130.001 304 131.006 302.995 130.001ZM305.006 131.995L305.995 131.006L307 131.995L305.995 133C305.006 131.995 305.995 133 305.006 131.995V131.995Z" fill="#3D4040"/>
<path fill-rule="evenodd" clip-rule="evenodd" d="M305.006 128.002L305.995 127L307 128.002L305.995 129.005C305.006 128.002 305.995 129.005 305.006 128.002ZM302.995 130.007L304 129.005L305.006 130.007L304 130.995C302.995 130.007 304 130.995 302.995 130.007ZM301 131.998L302.005 130.995L302.995 131.998L302.005 133C301 131.998 302.005 133 301 131.998V131.998Z" fill="#3D4040"/>
<path fill-rule="evenodd" clip-rule="evenodd" d="M47 117.4V116H48V117.4C47 117.4 48 117.4 47 117.4ZM47 120.2V118.8H48V120.2C47 120.2 48 120.2 47 120.2ZM47 123V121.6H48V123C47 123 48 123 47 123V123Z" fill="#3D4040"/>
<path fill-rule="evenodd" clip-rule="evenodd" d="M44 122V121H45.4V122C44 122 45.4 122 44 122ZM46.8 122V121H48.2V122C46.8 122 48.2 122 46.8 122ZM49.6 122V121H51V122C49.6 122 51 122 49.6 122V122Z" fill="#3D4040"/>
<path fill-rule="evenodd" clip-rule="evenodd" d="M88 122H94V121H88V122Z" fill="#3D4040"/>
<path fill-rule="evenodd" clip-rule="evenodd" d="M97 122V121H98.1667V122C97 122 98.1667 122 97 122ZM99.9167 122V121H101.083V122C99.9167 122 101.083 122 99.9167 122ZM102.833 122V121H104V122C102.833 122 104 122 102.833 122V122Z" fill="#3D4040"/>
<path fill-rule="evenodd" clip-rule="evenodd" d="M128.195 131C126.3 131 124.519 130.261 123.178 128.922C122.941 128.683 122.941 128.299 123.178 128.061C123.416 127.823 123.801 127.823 124.038 128.061C126.332 130.354 130.062 130.354 132.353 128.061L134.061 126.353C136.354 124.061 136.354 120.332 134.061 118.039C133.823 117.802 133.823 117.416 134.061 117.179C134.299 116.94 134.684 116.94 134.922 117.179C136.261 118.519 137 120.301 137 122.196C137 124.092 136.261 125.873 134.922 127.213L133.213 128.922C131.872 130.261 130.091 131 128.195 131" fill="#3D4040"/>
<path fill-rule="evenodd" clip-rule="evenodd" d="M127.719 134C124.992 134 122.265 132.962 120.189 130.886C119.937 130.633 119.937 130.225 120.189 129.973C120.44 129.72 120.849 129.72 121.101 129.973C124.749 133.622 130.688 133.622 134.336 129.973L136.969 127.339C140.618 123.69 140.618 117.751 136.97 114.101C136.717 113.85 136.717 113.442 136.97 113.189C137.222 112.937 137.629 112.937 137.882 113.189C139.893 115.201 141 117.875 141 120.72C141 123.565 139.893 126.24 137.881 128.251L135.248 130.886C133.172 132.962 130.445 134 127.719 134" fill="#3D4040"/>
<path fill-rule="evenodd" clip-rule="evenodd" d="M197.674 48.3565L196.315 51.2299L198.392 52.7324L198.215 56.3146L196 57.604L197.07 60.5983L199.603 60.1913L202.01 62.8479L201.356 65.3263L204.231 66.6863L205.732 64.6091L209.315 64.7851L210.604 67L213.598 65.9297L213.19 63.3987L215.848 60.991L218.326 61.6447L219.686 58.7701L217.609 57.2688L217.785 53.6866L220 52.396L218.928 49.4029L216.399 49.8099L213.99 47.1532L214.644 44.6738L211.77 43.3149L210.269 45.3921L206.687 45.2161L205.397 43L202.403 44.0715L202.81 46.6025L200.153 49.0102L197.674 48.3565" fill="#FFFFFE"/>
<path fill-rule="evenodd" clip-rule="evenodd" d="M204.384 62.1856L208.704 62.3971L209.932 64.506L212.033 63.7554L211.643 61.3457L214.849 58.441L217.21 59.0632L218.164 57.0473L216.185 55.6169L216.398 51.2976L218.507 50.0689L217.755 47.9686L215.347 48.3561L212.442 45.1506L213.063 42.7911L211.048 41.8363L209.618 43.8156L205.297 43.6029L204.069 41.4927L201.968 42.2434L202.357 44.6543L199.151 47.559L196.791 46.9355L195.836 48.9527L197.816 50.3831L197.603 54.7024L195.492 55.9311L196.243 58.0314L198.654 57.6439L201.559 60.8494L200.936 63.2089L202.953 64.1625L204.384 62.1856ZM209.387 66L207.981 63.5855L204.985 63.4388L203.349 65.7029L199.494 63.8801L200.208 61.1783L198.194 58.9557L195.434 59.3994L194 55.3858L196.413 53.9799L196.561 50.9846L194.297 49.3476L196.12 45.4954L198.822 46.2081L201.043 44.1934L200.6 41.4353L204.613 40L206.021 42.4145L209.016 42.5612L210.652 40.2971L214.506 42.1199L213.793 44.8217L215.806 47.0443L218.565 46.5993L220 50.613L217.588 52.0201L217.439 55.0154L219.704 56.6524L217.881 60.5046L215.179 59.7931L212.957 61.8054L213.402 64.5635L209.387 66V66Z" fill="#3D4040"/>
<path fill-rule="evenodd" clip-rule="evenodd" d="M201.674 52.0074C203.326 48.5138 207.498 47.0206 210.992 48.674C214.486 50.3275 215.979 54.4988 214.326 57.9924C212.673 61.4873 208.5 62.9791 205.007 61.3257C201.514 59.6736 200.021 55.501 201.674 52.0074" fill="#FAD260"/>
<path fill-rule="evenodd" clip-rule="evenodd" d="M168.975 42.6827L166.226 45.2675L167.87 47.8284L166.122 51.7069L163.115 52.1724L163 55.943L165.973 56.5917L167.48 60.5705L165.683 63.0248L168.268 65.774L170.826 64.1303L174.707 65.8782L175.172 68.8846L178.944 69L179.591 66.0287L183.571 64.5205L186.026 66.3186L188.774 63.7338L187.131 61.1741L188.879 57.2931L191.886 56.8288L192 53.0583L189.029 52.4096L187.522 48.4307L189.318 45.9764L186.734 43.2272L184.174 44.871L180.293 43.1231L179.828 40.1167L176.058 40L175.41 42.9738L171.43 44.4807L168.975 42.6827" fill="#FFFFFE"/>
<path fill-rule="evenodd" clip-rule="evenodd" d="M175.229 66.6427L177.933 66.726L178.536 63.9568L183.108 62.2255L185.395 63.8997L187.365 62.0465L185.834 59.6626L187.842 55.203L190.643 54.7705L190.726 52.0684L187.958 51.4644L186.227 46.8917L187.9 44.606L186.048 42.636L183.663 44.1673L179.203 42.1575L178.772 39.356L176.068 39.274L175.464 42.0432L170.892 43.7745L168.606 42.1003L166.635 43.9535L168.167 46.3387L166.159 50.7957L163.357 51.2295L163.275 53.9328L166.043 54.5356L167.775 59.1083L166.102 61.394L167.954 63.364L170.337 61.8327L174.797 63.8425L175.229 66.6427ZM178.928 68L174.159 67.8546L173.672 64.6988L170.442 63.2434L167.756 64.9686L164.488 61.4946L166.374 58.9181L165.12 55.6058L162 54.9259L162.148 50.1581L165.302 49.6709L166.757 46.4431L165.031 43.7559L168.507 40.4871L171.083 42.3738L174.394 41.1197L175.074 38L179.842 38.1467L180.329 41.3024L183.558 42.7566L186.244 41.0314L189.512 44.5054L187.627 47.0819L188.88 50.3942L192 51.0741L191.855 55.8419L188.7 56.3291L187.245 59.5582L188.97 62.2441L185.495 65.5129L182.918 63.6262L179.606 64.8816L178.928 68V68Z" fill="#3D4040"/>
<path fill-rule="evenodd" clip-rule="evenodd" d="M171.519 47.1724C174.739 44.1455 179.8 44.3007 182.827 47.5191C185.854 50.7374 185.7 55.8008 182.481 58.8276C179.262 61.8545 174.199 61.6993 171.172 58.4809C168.146 55.2626 168.301 50.1992 171.519 47.1724" fill="#3CDAD4"/>
<path fill-rule="evenodd" clip-rule="evenodd" d="M174.89 57L172 53.0271L172.932 52.2407L175.093 55.2092L181.269 50L182 51.0044L174.89 57" fill="#3D4040"/>
</svg>
