<svg id="Group_2" data-name="Group 2" xmlns="http://www.w3.org/2000/svg" xmlns:xlink="http://www.w3.org/1999/xlink" width="394.335" height="156.87" viewBox="0 0 394.335 156.87">
  <defs>
    <clipPath id="clip-path">
      <path id="Clip_6" data-name="Clip 6" d="M0,0H78.494V18.069H0Z" transform="translate(0.027 0.021)" fill="none"/>
    </clipPath>
  </defs>
  <path id="Fill_278" data-name="Fill 278" d="M102.625,85.749V71.121H105.3V9.487A9.486,9.486,0,0,0,95.815,0H9.485A9.486,9.486,0,0,0,0,9.487V147.382a9.486,9.486,0,0,0,9.485,9.488h86.33a9.486,9.486,0,0,0,9.485-9.488V85.749h-2.675" transform="translate(289.035)" fill="#f9f9f7"/>
  <path id="Fill_279" data-name="Fill 279" d="M279.68,0H9.49A9.489,9.489,0,0,0,0,9.487V71.121H2.681V85.749H0v61.634a9.489,9.489,0,0,0,9.49,9.488H279.68a9.489,9.489,0,0,0,9.49-9.488V9.487A9.489,9.489,0,0,0,279.68,0" fill="#f9f9f7"/>
  <path id="Fill_280" data-name="Fill 280" d="M0,.54H22.275V0H0Z" transform="translate(259.065 135.675)" fill="#0a0b09"/>
  <path id="Fill_281" data-name="Fill 281" d="M0,.54H22.275V0H0Z" transform="translate(259.065 93.96)" fill="#0a0b09"/>
  <path id="Fill_282" data-name="Fill 282" d="M0,.54H22.275V0H0Z" transform="translate(259.065 71.415)" fill="#0a0b09"/>
  <path id="Fill_283" data-name="Fill 283" d="M0,.4H22.275V0H0Z" transform="translate(259.065 132.57)" fill="#0a0b09"/>
  <path id="Fill_284" data-name="Fill 284" d="M0,.4H22.275V0H0Z" transform="translate(259.065 45.9)" fill="#0a0b09"/>
  <path id="Fill_285" data-name="Fill 285" d="M0,.945H22.275V0H0Z" transform="translate(259.065 125.82)" fill="#0a0b09"/>
  <path id="Fill_286" data-name="Fill 286" d="M0,.4H22.275V0H0Z" transform="translate(259.065 122.85)" fill="#0a0b09"/>
  <path id="Fill_287" data-name="Fill 287" d="M0,.54H22.275V0H0Z" transform="translate(259.065 116.37)" fill="#0a0b09"/>
  <path id="Fill_288" data-name="Fill 288" d="M0,.4H22.275V0H0Z" transform="translate(259.065 55.485)" fill="#0a0b09"/>
  <path id="Fill_289" data-name="Fill 289" d="M0,.4H22.275V0H0Z" transform="translate(259.065 113.265)" fill="#0a0b09"/>
  <path id="Fill_290" data-name="Fill 290" d="M0,.4H22.275V0H0Z" transform="translate(259.065 110.025)" fill="#0a0b09"/>
  <path id="Fill_291" data-name="Fill 291" d="M0,.4H22.275V0H0Z" transform="translate(259.065 103.68)" fill="#0a0b09"/>
  <path id="Fill_292" data-name="Fill 292" d="M0,.4H22.275V0H0Z" transform="translate(259.065 97.2)" fill="#0a0b09"/>
  <path id="Fill_293" data-name="Fill 293" d="M0,.4H22.275V0H0Z" transform="translate(259.065 90.855)" fill="#0a0b09"/>
  <path id="Fill_294" data-name="Fill 294" d="M0,.27H22.275V0H0Z" transform="translate(259.065 100.44)" fill="#0a0b09"/>
  <path id="Fill_295" data-name="Fill 295" d="M0,.27H22.275V0H0Z" transform="translate(259.065 81.27)" fill="#0a0b09"/>
  <path id="Fill_296" data-name="Fill 296" d="M0,.27H22.275V0H0Z" transform="translate(259.065 87.615)" fill="#0a0b09"/>
  <path id="Fill_297" data-name="Fill 297" d="M0,.27H22.275V0H0Z" transform="translate(259.065 84.51)" fill="#0a0b09"/>
  <path id="Fill_298" data-name="Fill 298" d="M0,.27H22.275V0H0Z" transform="translate(259.065 74.79)" fill="#0a0b09"/>
  <path id="Fill_299" data-name="Fill 299" d="M0,.945H22.275V0H0Z" transform="translate(259.065 77.76)" fill="#0a0b09"/>
  <path id="Fill_300" data-name="Fill 300" d="M0,.27H22.275V0H0Z" transform="translate(259.065 68.445)" fill="#0a0b09"/>
  <path id="Fill_301" data-name="Fill 301" d="M0,.27H22.275V0H0Z" transform="translate(259.065 61.965)" fill="#0a0b09"/>
  <path id="Fill_302" data-name="Fill 302" d="M0,.27H22.275V0H0Z" transform="translate(259.065 106.92)" fill="#0a0b09"/>
  <path id="Fill_303" data-name="Fill 303" d="M0,.945H22.275V0H0Z" transform="translate(259.065 58.455)" fill="#0a0b09"/>
  <path id="Fill_304" data-name="Fill 304" d="M0,.945H22.275V0H0Z" transform="translate(259.065 51.975)" fill="#0a0b09"/>
  <path id="Fill_305" data-name="Fill 305" d="M0,.135H22.275V0H0Z" transform="translate(259.065 49.14)" fill="#0a0b09"/>
  <path id="Fill_306" data-name="Fill 306" d="M0,.54H22.275V0H0Z" transform="translate(259.065 119.61)" fill="#0a0b09"/>
  <path id="Fill_307" data-name="Fill 307" d="M0,.135H22.275V0H0Z" transform="translate(259.065 42.795)" fill="#0a0b09"/>
  <path id="Fill_308" data-name="Fill 308" d="M0,.135H22.275V0H0Z" transform="translate(259.065 65.205)" fill="#0a0b09"/>
  <path id="Fill_309" data-name="Fill 309" d="M0,.54H22.275V0H0Z" transform="translate(259.065 129.33)" fill="#0a0b09"/>
  <path id="Fill_310" data-name="Fill 310" d="M0,.128H22.275V.007H0Z" transform="translate(259.065 39.555)" fill="#0a0b09"/>
  <path id="Fill_311" data-name="Fill 311" d="M95.815,0H9.485A9.488,9.488,0,0,0,0,9.491V28.35H105.3V9.491A9.488,9.488,0,0,0,95.815,0" transform="translate(289.035)" fill="#217875"/>
  <path id="Fill_312" data-name="Fill 312" d="M279.68,0H9.49A9.491,9.491,0,0,0,0,9.491V28.35H289.17V9.491A9.49,9.49,0,0,0,279.68,0" fill="#217875"/>
  <path id="Fill_313" data-name="Fill 313" d="M15.164,14.923a92.819,92.819,0,0,1-10.731-.851L1.906,18.12a.321.321,0,0,1-.274.152H.783a.141.141,0,0,1-.134-.184l1.435-4.409C.783,13.419,0,13.162,0,12.96s.783-.459,2.084-.719L.649,7.832a.141.141,0,0,1,.134-.184h.85a.321.321,0,0,1,.274.152l2.527,4.048A93.306,93.306,0,0,1,15.164,11L12.293,0h.5a.974.974,0,0,1,.871.536L15.516,4.23h1.159a.386.386,0,0,1,.386.385v.45a.386.386,0,0,1-.386.385h-.547l1.018,2.03h1.245a.384.384,0,0,1,.384.385v.45a.384.384,0,0,1-.384.385h-.634l1.159,2.312c6.142.159,8.894.972,8.894,1.949s-2.752,1.79-8.894,1.949l-1.159,2.314h.634a.384.384,0,0,1,.384.383v.452a.384.384,0,0,1-.384.383H17.146l-1.018,2.032h.547a.385.385,0,0,1,.386.383v.452a.385.385,0,0,1-.386.383H15.516l-1.852,3.694a.974.974,0,0,1-.871.537h-.5l2.872-11" transform="translate(253.665 1.215)" fill="#fffffe"/>
  <path id="Fill_314" data-name="Fill 314" d="M.4.81A.412.412,0,0,1,.118.689.409.409,0,0,1,0,.405.419.419,0,0,1,.118.118.409.409,0,0,1,.486.008a.509.509,0,0,1,.073.02A.369.369,0,0,1,.628.069.241.241,0,0,1,.693.118a.406.406,0,0,1,0,.571A.394.394,0,0,1,.628.741C.607.753.583.766.559.778L.486.8A.552.552,0,0,1,.4.81" transform="translate(251.235 13.77)" fill="#fffffe"/>
  <path id="Fill_315" data-name="Fill 315" d="M109.753.81a.405.405,0,1,1,.407-.405A.406.406,0,0,1,109.753.81Zm-2.026,0a.405.405,0,1,1,.407-.405A.406.406,0,0,1,107.727.81ZM105.7.81a.4.4,0,0,1-.4-.405.4.4,0,1,1,.809,0A.406.406,0,0,1,105.7.81Zm-2.022,0a.406.406,0,0,1-.407-.405.4.4,0,0,1,.407-.4.405.405,0,1,1,0,.81Zm-2.026,0a.405.405,0,1,1,.407-.405A.406.406,0,0,1,101.654.81Zm-2.026,0a.405.405,0,1,1,.407-.405A.406.406,0,0,1,99.628.81ZM97.6.81A.405.405,0,1,1,98.01.405.406.406,0,0,1,97.6.81Zm-2.026,0a.405.405,0,1,1,0-.81.4.4,0,0,1,.407.405A.406.406,0,0,1,95.577.81Zm-2.021,0a.406.406,0,0,1-.407-.405.4.4,0,0,1,.407-.4.405.405,0,1,1,0,.81ZM91.53.81a.406.406,0,0,1-.407-.405A.4.4,0,0,1,91.53,0a.405.405,0,1,1,0,.81ZM89.5.81a.405.405,0,1,1,.407-.405A.406.406,0,0,1,89.5.81Zm-2.026,0a.405.405,0,1,1,.407-.405A.406.406,0,0,1,87.478.81Zm-2.025,0A.405.405,0,1,1,85.86.405.406.406,0,0,1,85.453.81Zm-2.021,0A.409.409,0,0,1,83.02.405a.409.409,0,1,1,.411.405Zm-2.026,0A.406.406,0,0,1,81,.405a.4.4,0,0,1,.407-.4.405.405,0,1,1,0,.81ZM79.38.81a.405.405,0,1,1,.407-.405A.406.406,0,0,1,79.38.81Zm-2.026,0a.405.405,0,1,1,.407-.405A.406.406,0,0,1,77.354.81Zm-2.025,0a.405.405,0,1,1,.407-.405A.406.406,0,0,1,75.329.81ZM73.3.81A.405.405,0,1,1,73.71.405.406.406,0,0,1,73.3.81Zm-2.021,0a.4.4,0,0,1-.407-.405.4.4,0,0,1,.407-.4.405.405,0,1,1,0,.81Zm-2.026,0a.406.406,0,0,1-.407-.405.4.4,0,0,1,.407-.4.405.405,0,1,1,0,.81ZM67.23.81a.405.405,0,1,1,.407-.405A.406.406,0,0,1,67.23.81ZM65.2.81a.405.405,0,1,1,.407-.405A.406.406,0,0,1,65.2.81Zm-2.025,0a.405.405,0,1,1,0-.81.4.4,0,0,1,.407.405A.406.406,0,0,1,63.179.81Zm-2.022,0a.408.408,0,0,1-.41-.405.409.409,0,1,1,.41.405Zm-2.026,0a.406.406,0,0,1-.407-.405.4.4,0,0,1,.407-.4.405.405,0,1,1,0,.81Zm-2.025,0a.405.405,0,1,1,.406-.405A.406.406,0,0,1,57.106.81ZM55.08.81a.405.405,0,1,1,.407-.405A.406.406,0,0,1,55.08.81Zm-2.026,0a.405.405,0,1,1,.407-.405A.406.406,0,0,1,53.054.81Zm-2.026,0a.405.405,0,1,1,0-.81.4.4,0,0,1,.407.405A.406.406,0,0,1,51.028.81Zm-2.021,0A.406.406,0,0,1,48.6.405a.4.4,0,0,1,.407-.4.405.405,0,1,1,0,.81Zm-2.026,0a.405.405,0,1,1,.407-.405A.406.406,0,0,1,46.981.81Zm-2.025,0a.405.405,0,1,1,.407-.405A.406.406,0,0,1,44.956.81ZM42.93.81a.405.405,0,1,1,.407-.405A.406.406,0,0,1,42.93.81ZM40.9.81a.405.405,0,1,1,0-.81.4.4,0,0,1,.407.405A.406.406,0,0,1,40.9.81Zm-2.026,0a.4.4,0,0,1-.4-.405.4.4,0,1,1,.809,0A.4.4,0,0,1,38.878.81Zm-2.021,0A.406.406,0,0,1,36.45.405a.4.4,0,0,1,.407-.4.405.405,0,1,1,0,.81Zm-2.026,0a.405.405,0,1,1,.407-.405A.406.406,0,0,1,34.831.81Zm-2.025,0a.405.405,0,1,1,.406-.405A.406.406,0,0,1,32.806.81ZM30.78.81a.405.405,0,1,1,0-.81.4.4,0,0,1,.407.405A.406.406,0,0,1,30.78.81Zm-2.026,0a.405.405,0,1,1,0-.81.4.4,0,0,1,.407.405A.406.406,0,0,1,28.754.81Zm-2.021,0a.406.406,0,0,1-.407-.405.4.4,0,0,1,.407-.4.405.405,0,1,1,0,.81Zm-2.026,0A.406.406,0,0,1,24.3.405a.4.4,0,0,1,.407-.4.405.405,0,1,1,0,.81Zm-2.026,0a.405.405,0,1,1,.407-.405A.406.406,0,0,1,22.681.81Zm-2.026,0a.405.405,0,1,1,.407-.405A.406.406,0,0,1,20.655.81ZM18.63.81a.405.405,0,1,1,0-.81.4.4,0,0,1,.407.405A.406.406,0,0,1,18.63.81Zm-2.021,0A.4.4,0,0,1,16.2.405a.4.4,0,1,1,.809,0A.4.4,0,0,1,16.609.81Zm-2.026,0a.406.406,0,0,1-.407-.405.4.4,0,0,1,.407-.4.405.405,0,1,1,0,.81Zm-2.026,0a.405.405,0,1,1,.407-.405A.406.406,0,0,1,12.557.81Zm-2.026,0a.405.405,0,1,1,.407-.405A.406.406,0,0,1,10.531.81ZM8.506.81A.405.405,0,1,1,8.913.405.406.406,0,0,1,8.506.81ZM6.48.81a.405.405,0,1,1,0-.81.4.4,0,0,1,.407.405A.406.406,0,0,1,6.48.81ZM4.454.81a.4.4,0,0,1-.4-.405.407.407,0,0,1,.814,0A.408.408,0,0,1,4.454.81ZM2.433.81A.4.4,0,0,1,2.026.405.4.4,0,0,1,2.433,0a.405.405,0,1,1,0,.81ZM.407.81A.405.405,0,1,1,.814.405.406.406,0,0,1,.407.81Z" transform="translate(139.86 13.77)" fill="#fffffe"/>
  <path id="Fill_316" data-name="Fill 316" d="M.4.81A.4.4,0,0,1,.251.778.409.409,0,0,1,.117.688.413.413,0,0,1,0,.4.423.423,0,0,1,.117.113a.423.423,0,0,1,.575,0A.5.5,0,0,1,.782.244.44.44,0,0,1,.81.4.413.413,0,0,1,.693.688.4.4,0,0,1,.4.81" transform="translate(137.835 13.77)" fill="#fffffe"/>
  <path id="Fill_316-2" data-name="Fill 316" d="M.4.81A.4.4,0,0,1,.251.778.409.409,0,0,1,.117.688.413.413,0,0,1,0,.4.423.423,0,0,1,.117.113a.423.423,0,0,1,.575,0A.5.5,0,0,1,.782.244.44.44,0,0,1,.81.4.413.413,0,0,1,.693.688.4.4,0,0,1,.4.81" transform="translate(135.81 13.77)" fill="#fffffe"/>
  <path id="Fill_316-3" data-name="Fill 316" d="M.4.81A.4.4,0,0,1,.251.778.409.409,0,0,1,.117.688.413.413,0,0,1,0,.4.423.423,0,0,1,.117.113a.423.423,0,0,1,.575,0A.5.5,0,0,1,.782.244.44.44,0,0,1,.81.4.413.413,0,0,1,.693.688.4.4,0,0,1,.4.81" transform="translate(133.785 13.77)" fill="#fffffe"/>
  <path id="Fill_316-4" data-name="Fill 316" d="M.4.81A.4.4,0,0,1,.251.778.409.409,0,0,1,.117.688.413.413,0,0,1,0,.4.423.423,0,0,1,.117.113a.423.423,0,0,1,.575,0A.5.5,0,0,1,.782.244.44.44,0,0,1,.81.4.413.413,0,0,1,.693.688.4.4,0,0,1,.4.81" transform="translate(131.76 13.77)" fill="#fffffe"/>
  <path id="Fill_316-5" data-name="Fill 316" d="M.4.81A.4.4,0,0,1,.251.778.409.409,0,0,1,.117.688.413.413,0,0,1,0,.4.423.423,0,0,1,.117.113a.423.423,0,0,1,.575,0A.5.5,0,0,1,.782.244.44.44,0,0,1,.81.4.413.413,0,0,1,.693.688.4.4,0,0,1,.4.81" transform="translate(129.735 13.77)" fill="#fffffe"/>
  <path id="Fill_316-6" data-name="Fill 316" d="M.4.81A.4.4,0,0,1,.251.778.409.409,0,0,1,.117.688.413.413,0,0,1,0,.4.423.423,0,0,1,.117.113a.423.423,0,0,1,.575,0A.5.5,0,0,1,.782.244.44.44,0,0,1,.81.4.413.413,0,0,1,.693.688.4.4,0,0,1,.4.81" transform="translate(127.71 13.77)" fill="#fffffe"/>
  <path id="Fill_316-7" data-name="Fill 316" d="M.4.81A.4.4,0,0,1,.251.778.409.409,0,0,1,.117.688.413.413,0,0,1,0,.4.423.423,0,0,1,.117.113a.423.423,0,0,1,.575,0A.5.5,0,0,1,.782.244.44.44,0,0,1,.81.4.413.413,0,0,1,.693.688.4.4,0,0,1,.4.81" transform="translate(125.685 13.77)" fill="#fffffe"/>
  <path id="Fill_316-8" data-name="Fill 316" d="M.4.81A.4.4,0,0,1,.251.778.409.409,0,0,1,.117.688.413.413,0,0,1,0,.4.423.423,0,0,1,.117.113a.423.423,0,0,1,.575,0A.5.5,0,0,1,.782.244.44.44,0,0,1,.81.4.413.413,0,0,1,.693.688.4.4,0,0,1,.4.81" transform="translate(123.66 13.77)" fill="#fffffe"/>
  <path id="Fill_316-9" data-name="Fill 316" d="M.4.81A.4.4,0,0,1,.251.778.409.409,0,0,1,.117.688.413.413,0,0,1,0,.4.423.423,0,0,1,.117.113a.423.423,0,0,1,.575,0A.5.5,0,0,1,.782.244.44.44,0,0,1,.81.4.413.413,0,0,1,.693.688.4.4,0,0,1,.4.81" transform="translate(121.635 13.77)" fill="#fffffe"/>
  <path id="Fill_316-10" data-name="Fill 316" d="M.4.81A.4.4,0,0,1,.251.778.409.409,0,0,1,.117.688.413.413,0,0,1,0,.4.423.423,0,0,1,.117.113a.423.423,0,0,1,.575,0A.5.5,0,0,1,.782.244.44.44,0,0,1,.81.4.413.413,0,0,1,.693.688.4.4,0,0,1,.4.81" transform="translate(119.61 13.77)" fill="#fffffe"/>
  <path id="Fill_317" data-name="Fill 317" d="M0,3.1H.81V0H0Z" transform="translate(288.63 14.04)" fill="#0a0b09"/>
  <path id="Fill_318" data-name="Fill 318" d="M0,3.1H.81V0H0Z" transform="translate(288.63 117.585)" fill="#0a0b09"/>
  <path id="Fill_319" data-name="Fill 319" d="M0,3.1H.81V0H0Z" transform="translate(288.63 99.36)" fill="#0a0b09"/>
  <path id="Fill_320" data-name="Fill 320" d="M0,3.1H.81V0H0Z" transform="translate(288.63 105.435)" fill="#0a0b09"/>
  <path id="Fill_321" data-name="Fill 321" d="M0,3.1H.81V0H0Z" transform="translate(288.63 123.795)" fill="#0a0b09"/>
  <path id="Fill_322" data-name="Fill 322" d="M0,3.1H.81V0H0Z" transform="translate(288.63 93.285)" fill="#0a0b09"/>
  <path id="Fill_323" data-name="Fill 323" d="M0,3.1H.81V0H0Z" transform="translate(288.63 135.945)" fill="#0a0b09"/>
  <path id="Fill_324" data-name="Fill 324" d="M0,3.1H.81V0H0Z" transform="translate(288.63 129.87)" fill="#0a0b09"/>
  <path id="Fill_325" data-name="Fill 325" d="M0,3.1H.81V0H0Z" transform="translate(288.63 111.51)" fill="#0a0b09"/>
  <path id="Fill_326" data-name="Fill 326" d="M0,3.1H.81V0H0Z" transform="translate(288.63 87.21)" fill="#0a0b09"/>
  <path id="Fill_327" data-name="Fill 327" d="M0,3.1H.81V0H0Z" transform="translate(288.63 50.625)" fill="#0a0b09"/>
  <path id="Fill_328" data-name="Fill 328" d="M0,3.1H.81V0H0Z" transform="translate(288.63 32.4)" fill="#0a0b09"/>
  <path id="Fill_329" data-name="Fill 329" d="M0,3.1H.81V0H0Z" transform="translate(288.63 44.55)" fill="#0a0b09"/>
  <path id="Fill_330" data-name="Fill 330" d="M0,3.1H.81V0H0Z" transform="translate(288.63 20.115)" fill="#0a0b09"/>
  <path id="Fill_331" data-name="Fill 331" d="M0,3.1H.81V0H0Z" transform="translate(288.63 26.325)" fill="#0a0b09"/>
  <path id="Fill_332" data-name="Fill 332" d="M0,3.1H.81V0H0Z" transform="translate(288.63 38.475)" fill="#0a0b09"/>
  <path id="Fill_333" data-name="Fill 333" d="M0,3.1H.81V0H0Z" transform="translate(288.63 81.135)" fill="#0a0b09"/>
  <path id="Fill_334" data-name="Fill 334" d="M0,3.1H.81V0H0Z" transform="translate(288.63 75.06)" fill="#0a0b09"/>
  <path id="Fill_335" data-name="Fill 335" d="M0,3.1H.81V0H0Z" transform="translate(288.63 56.7)" fill="#0a0b09"/>
  <path id="Fill_336" data-name="Fill 336" d="M0,3.1H.81V0H0Z" transform="translate(288.63 68.85)" fill="#0a0b09"/>
  <path id="Fill_337" data-name="Fill 337" d="M0,3.1H.81V0H0Z" transform="translate(288.63 62.775)" fill="#0a0b09"/>
  <path id="Fill_338" data-name="Fill 338" d="M0,3.1H.81V0H.531A9.249,9.249,0,0,0,.406,1.444,9.232,9.232,0,0,0,.281,0H0V3.1" transform="translate(288.63 7.965)" fill="#0a0b09"/>
  <path id="Fill_339" data-name="Fill 339" d="M0,3.1H.81V0H0Z" transform="translate(288.63 142.02)" fill="#0a0b09"/>
  <path id="Fill_340" data-name="Fill 340" d="M0,0V2.835A9.282,9.282,0,0,0,.406.138a9.284,9.284,0,0,0,.4,2.69V0H0" transform="translate(288.63 147.15)" fill="#0a0b09"/>
  <path id="Fill_353" data-name="Fill 353" d="M1.948,2.252H3.636l-.212,1a2.254,2.254,0,0,1-.75,1.235,2.038,2.038,0,0,1-1.312.508,1.361,1.361,0,0,1-.874-.283,1.2,1.2,0,0,1-.426-.6Q.033,4,.012,3.9A1.3,1.3,0,0,1,0,3.637,8.825,8.825,0,0,1,.2,2.5,9.336,9.336,0,0,1,.487,1.352,1.756,1.756,0,0,1,.746.883,2.288,2.288,0,0,1,1.428.277,1.879,1.879,0,0,1,2.421,0,1.283,1.283,0,0,1,3.452.421a1.5,1.5,0,0,1,.328,1.035H3.016A.849.849,0,0,0,2.8.948.755.755,0,0,0,2.262.741a1.117,1.117,0,0,0-.459.1,1.234,1.234,0,0,0-.354.253,1.075,1.075,0,0,0-.272.409,6.709,6.709,0,0,0-.262.99,6.1,6.1,0,0,0-.156.983.688.688,0,0,0,.1.415.624.624,0,0,0,.248.246.705.705,0,0,0,.414.112,1.116,1.116,0,0,0,.758-.3,1.335,1.335,0,0,0,.439-.747l.054-.257H1.8l.149-.7" transform="translate(120.015 145.125)" fill="#0a0b09"/>
  <path id="Fill_354" data-name="Fill 354" d="M.761,4.861H0L2.765,0h.6L4.05,4.859H3.292L3.157,3.773h-1.8L.761,4.86ZM2.848.994h0L1.706,3.12H3.092L2.861.995Z" transform="translate(124.065 145.125)" fill="#0a0b09"/>
  <path id="Fill_355" data-name="Fill 355" d="M1.269.653H0L.137,0H3.375L3.238.653H1.969L1.09,4.86h-.7L1.269.653" transform="translate(129.195 145.125)" fill="#0a0b09"/>
  <path id="Fill_356" data-name="Fill 356" d="M1.036,0H4.05L3.9.693H1.6l-.3,1.391H3.269l-.139.653H1.167l-.3,1.431h2.3l-.148.693H0L1.036,0" transform="translate(132.705 145.125)" fill="#0a0b09"/>
  <path id="Fill_357" data-name="Fill 357" d="M3.328,3.582a2.469,2.469,0,0,1-.819,1.05,1.99,1.99,0,0,1-1.148.363,1.36,1.36,0,0,1-.874-.283,1.2,1.2,0,0,1-.426-.6Q.033,4,.012,3.9A1.291,1.291,0,0,1,0,3.637,8.82,8.82,0,0,1,.195,2.5,9.306,9.306,0,0,1,.487,1.352,1.756,1.756,0,0,1,.746.883,2.287,2.287,0,0,1,1.428.277,1.881,1.881,0,0,1,2.421,0,1.283,1.283,0,0,1,3.451.421a1.5,1.5,0,0,1,.328,1.033H3.016A.846.846,0,0,0,2.8.947.756.756,0,0,0,2.261.741a1.117,1.117,0,0,0-.459.1,1.236,1.236,0,0,0-.354.253,1.077,1.077,0,0,0-.272.409,6.717,6.717,0,0,0-.262.99,6.113,6.113,0,0,0-.156.983.688.688,0,0,0,.1.415.623.623,0,0,0,.248.246.7.7,0,0,0,.413.112,1.26,1.26,0,0,0,1.049-.672h.762" transform="translate(139.455 145.125)" fill="#0a0b09"/>
  <path id="Fill_358" data-name="Fill 358" d="M1.017,0h.7L.846,4.167H3.1L2.96,4.86H0L1.017,0" transform="translate(143.64 145.125)" fill="#0a0b09"/>
  <path id="Fill_359" data-name="Fill 359" d="M1.359,4.995a1.364,1.364,0,0,1-.873-.283,1.2,1.2,0,0,1-.425-.6C.044,4.043.026,3.97.012,3.9A1.252,1.252,0,0,1,0,3.637,8.779,8.779,0,0,1,.194,2.5,9.667,9.667,0,0,1,.486,1.349,1.772,1.772,0,0,1,.745.879a2.3,2.3,0,0,1,.68-.6A1.886,1.886,0,0,1,2.416,0,1.365,1.365,0,0,1,3.3.276a1.212,1.212,0,0,1,.41.607,1,1,0,0,1,.067.469,10.221,10.221,0,0,1-.2,1.146,11.245,11.245,0,0,1-.283,1.139,1.471,1.471,0,0,1-.266.475,2.163,2.163,0,0,1-.667.6A1.954,1.954,0,0,1,1.359,4.995Zm.9-4.253a1.109,1.109,0,0,0-.459.1,1.252,1.252,0,0,0-.353.253,1.083,1.083,0,0,0-.273.41A6.654,6.654,0,0,0,.913,2.5a6.218,6.218,0,0,0-.157.983.7.7,0,0,0,.1.416.63.63,0,0,0,.248.247.706.706,0,0,0,.412.111,1,1,0,0,0,.47-.111A1.1,1.1,0,0,0,2.323,3.9,1.167,1.167,0,0,0,2.6,3.48,7.128,7.128,0,0,0,2.859,2.5a6.643,6.643,0,0,0,.161-.989.716.716,0,0,0-.106-.41A.636.636,0,0,0,2.682.846.882.882,0,0,0,2.258.742Z" transform="translate(148.095 145.125)" fill="#0a0b09"/>
  <path id="Fill_360" data-name="Fill 360" d="M.577,3.764a1.609,1.609,0,0,0,1.216.49Q2.7,4.24,2.85,3.569q.12-.55-.467-.661l-.595-.091a1.155,1.155,0,0,1-.812-.469,1.174,1.174,0,0,1-.133-.911A1.754,1.754,0,0,1,1.462.4,1.832,1.832,0,0,1,2.653,0a2.078,2.078,0,0,1,1.4.508l-.518.612A1.7,1.7,0,0,0,2.462.741a1,1,0,0,0-.576.172.835.835,0,0,0-.343.533.476.476,0,0,0,.076.385.682.682,0,0,0,.449.243q.184.034.505.078a1.105,1.105,0,0,1,.861.5,1.268,1.268,0,0,1,.119.917,1.766,1.766,0,0,1-1.923,1.43A2.08,2.08,0,0,1,0,4.324l.577-.56" transform="translate(152.415 145.125)" fill="#0a0b09"/>
  <path id="Fill_361" data-name="Fill 361" d="M1.035,0H4.05L3.9.693H1.6l-.3,1.391H3.269l-.139.653H1.167l-.3,1.431h2.3l-.148.693H0L1.035,0" transform="translate(157.14 145.125)" fill="#0a0b09"/>
  <path id="Fill_362" data-name="Fill 362" d="M.577,3.764a1.609,1.609,0,0,0,1.216.49Q2.7,4.24,2.85,3.569q.12-.55-.467-.661l-.595-.091a1.155,1.155,0,0,1-.812-.469,1.174,1.174,0,0,1-.133-.911A1.753,1.753,0,0,1,1.462.4,1.831,1.831,0,0,1,2.653,0a2.078,2.078,0,0,1,1.4.508l-.518.612A1.7,1.7,0,0,0,2.462.741a1,1,0,0,0-.576.172.835.835,0,0,0-.343.533.476.476,0,0,0,.076.385.683.683,0,0,0,.449.243q.184.034.505.078a1.105,1.105,0,0,1,.861.5,1.269,1.269,0,0,1,.119.917,1.766,1.766,0,0,1-1.923,1.43A2.08,2.08,0,0,1,0,4.324l.577-.56" transform="translate(161.19 145.125)" fill="#0a0b09"/>
  <path id="Fill_363" data-name="Fill 363" d="M.14,3.484,2.481,0H3.24L.882,3.484H2.126l.3-1.4h.681l-.3,1.4h.382l-.14.653H2.666l-.156.724H1.83l.156-.723H0l.14-.653" transform="translate(167.805 145.125)" fill="#0a0b09"/>
  <path id="Fill_364" data-name="Fill 364" d="M1.088,4.995a1.084,1.084,0,0,1-.849-.37,1.136,1.136,0,0,1-.2-1.043L.5,1.41A1.718,1.718,0,0,1,1.145.364a1.609,1.609,0,0,1,1-.364,1.086,1.086,0,0,1,.867.364A1.2,1.2,0,0,1,3.2,1.412l-.46,2.167a1.788,1.788,0,0,1-.631,1.045A1.663,1.663,0,0,1,1.088,4.995ZM2,.7a.833.833,0,0,0-.829.752L.728,3.541A.706.706,0,0,0,.8,4.129a.54.54,0,0,0,.435.165.835.835,0,0,0,.832-.752l.444-2.088A.708.708,0,0,0,2.434.87.545.545,0,0,0,2,.7Z" transform="translate(171.855 145.125)" fill="#0a0b09"/>
  <path id="Fill_365" data-name="Fill 365" d="M1.021,0h.664l.669,3.168L4.329,0h.666L3.974,4.86h-.7l.637-3.031H3.89L2.426,4.163H1.838L1.354,1.829H1.342L.7,4.86H0L1.021,0" transform="translate(177.93 145.125)" fill="#0a0b09"/>
  <path id="Fill_366" data-name="Fill 366" d="M1.039,0h.716L.716,4.86H0L1.039,0" transform="translate(183.6 145.125)" fill="#0a0b09"/>
  <path id="Fill_367" data-name="Fill 367" d="M1.039,0h.676L3.121,3.455h.013L3.873,0H4.59L3.551,4.86H2.872l-1.4-3.455H1.456L.717,4.86H0L1.039,0" transform="translate(185.895 145.125)" fill="#0a0b09"/>
  <path id="Fill_368" data-name="Fill 368" d="M.724,0h.708L.77,3.11a.868.868,0,0,0,.116.751.729.729,0,0,0,.62.271,1.133,1.133,0,0,0,.743-.271,1.3,1.3,0,0,0,.43-.751L3.342,0H4.05L3.371,3.187a2.086,2.086,0,0,1-.735,1.207,2.015,2.015,0,0,1-1.284.466A1.326,1.326,0,0,1,.276,4.394,1.34,1.34,0,0,1,.045,3.189L.724,0" transform="translate(191.43 145.125)" fill="#0a0b09"/>
  <path id="Fill_369" data-name="Fill 369" d="M1.269.653H0L.136,0H3.375L3.238.653H1.969L1.09,4.86h-.7L1.269.653" transform="translate(196.425 145.125)" fill="#0a0b09"/>
  <path id="Fill_370" data-name="Fill 370" d="M1.035,0H4.05L3.9.693H1.6l-.3,1.391H3.269l-.139.653H1.167l-.3,1.431h2.3l-.148.693H0L1.035,0" transform="translate(199.935 145.125)" fill="#0a0b09"/>
  <path id="Fill_371" data-name="Fill 371" d="M.577,3.764a1.609,1.609,0,0,0,1.216.49Q2.7,4.24,2.85,3.569q.12-.55-.467-.661l-.595-.091a1.155,1.155,0,0,1-.812-.469,1.174,1.174,0,0,1-.133-.911A1.753,1.753,0,0,1,1.462.4,1.831,1.831,0,0,1,2.653,0a2.078,2.078,0,0,1,1.4.508l-.518.612A1.7,1.7,0,0,0,2.462.741a1,1,0,0,0-.576.172.835.835,0,0,0-.343.533.476.476,0,0,0,.076.385.683.683,0,0,0,.449.243q.184.034.505.078a1.105,1.105,0,0,1,.861.5,1.268,1.268,0,0,1,.118.917,1.765,1.765,0,0,1-1.922,1.43A2.08,2.08,0,0,1,0,4.324l.577-.56" transform="translate(204.12 145.125)" fill="#0a0b09"/>
  <path id="Fill_372" data-name="Fill 372" d="M2,4.86H0L1.042,0H2.883a1.193,1.193,0,0,1,.976.36,1.1,1.1,0,0,1,.153.943,1.4,1.4,0,0,1-.264.573,1.278,1.278,0,0,1-.267.247,2.017,2.017,0,0,1-.393.223l0,.014a.722.722,0,0,1,.5.417,1.274,1.274,0,0,1,.035.7,1.719,1.719,0,0,1-.6,1A1.55,1.55,0,0,1,2,4.86ZM1.182,2.7.868,4.167H1.978a.924.924,0,0,0,.635-.224.952.952,0,0,0,.3-.508.655.655,0,0,0-.076-.515A.625.625,0,0,0,2.291,2.7ZM1.621.653l-.3,1.4h1.04a.9.9,0,0,0,.625-.211.864.864,0,0,0,.294-.49A.616.616,0,0,0,3.2.85a.661.661,0,0,0-.538-.2Z" transform="translate(211.005 145.125)" fill="#0a0b09"/>
  <path id="Fill_373" data-name="Fill 373" d="M1.036,0H4.05L3.9.693H1.6l-.3,1.391H3.269l-.139.653H1.167l-.3,1.431h2.3l-.148.693H0L1.036,0" transform="translate(215.73 145.125)" fill="#0a0b09"/>
  <path id="Fill_374" data-name="Fill 374" d="M1.035,0H4.05L3.9.693H1.6L1.3,2.13H3.259l-.139.653H1.157L.714,4.86H0L1.035,0" transform="translate(220.05 145.125)" fill="#0a0b09"/>
  <path id="Fill_375" data-name="Fill 375" d="M1.359,4.995a1.364,1.364,0,0,1-.873-.283,1.2,1.2,0,0,1-.425-.6C.044,4.043.026,3.97.012,3.9A1.252,1.252,0,0,1,0,3.637,8.779,8.779,0,0,1,.194,2.5,9.307,9.307,0,0,1,.487,1.349,1.745,1.745,0,0,1,.745.879a2.306,2.306,0,0,1,.68-.6A1.886,1.886,0,0,1,2.416,0,1.365,1.365,0,0,1,3.3.276a1.212,1.212,0,0,1,.41.607,1,1,0,0,1,.067.469,10.221,10.221,0,0,1-.2,1.146,10.932,10.932,0,0,1-.283,1.139,1.471,1.471,0,0,1-.266.475,2.163,2.163,0,0,1-.667.6A1.954,1.954,0,0,1,1.359,4.995Zm.9-4.253a1.109,1.109,0,0,0-.459.1,1.252,1.252,0,0,0-.353.253,1.083,1.083,0,0,0-.273.41A6.7,6.7,0,0,0,.913,2.5a5.988,5.988,0,0,0-.156.983.69.69,0,0,0,.1.416.63.63,0,0,0,.248.247.708.708,0,0,0,.413.111,1,1,0,0,0,.469-.111A1.1,1.1,0,0,0,2.323,3.9,1.167,1.167,0,0,0,2.6,3.48,7.128,7.128,0,0,0,2.859,2.5a6.643,6.643,0,0,0,.161-.989.716.716,0,0,0-.106-.41A.636.636,0,0,0,2.682.846.882.882,0,0,0,2.258.742Z" transform="translate(224.37 145.125)" fill="#0a0b09"/>
  <path id="Fill_376" data-name="Fill 376" d="M.714,4.861H0L1.035,0H2.878A1.18,1.18,0,0,1,3.772.32a1.094,1.094,0,0,1,.247,1.037A1.782,1.782,0,0,1,2.821,2.7l.631,2.155H2.606L2.071,2.783H1.157L.715,4.86ZM1.61.653,1.3,2.13H2.379a.952.952,0,0,0,.655-.24.977.977,0,0,0,.311-.536A.55.55,0,0,0,3.226.8a.676.676,0,0,0-.493-.15Z" transform="translate(228.96 145.125)" fill="#0a0b09"/>
  <path id="Fill_377" data-name="Fill 377" d="M1.035,0H4.05L3.9.693H1.6l-.3,1.391H3.269l-.139.653H1.167l-.3,1.431h2.3l-.148.693H0L1.035,0" transform="translate(233.685 145.125)" fill="#0a0b09"/>
  <path id="Fill_378" data-name="Fill 378" d="M1.6,4.86H0L1.036,0H2.689A1.233,1.233,0,0,1,3.953.82a1.277,1.277,0,0,1,.095.573c-.019.2-.079.538-.185,1.037a8.237,8.237,0,0,1-.288,1.093,1.535,1.535,0,0,1-.138.28c-.052.077-.113.159-.186.25a2.284,2.284,0,0,1-.7.566A1.874,1.874,0,0,1,1.6,4.86ZM1.6.693.863,4.167h.856a1.214,1.214,0,0,0,.967-.424,1.074,1.074,0,0,0,.237-.4c.053-.158.126-.457.219-.888s.145-.727.165-.909a.711.711,0,0,0-.09-.444A.736.736,0,0,0,2.493.693H1.6Z" transform="translate(240.165 145.125)" fill="#0a0b09"/>
  <path id="Fill_379" data-name="Fill 379" d="M1.036,0H4.05L3.9.693H1.6l-.3,1.391H3.269l-.139.653H1.167l-.3,1.431h2.3l-.148.693H0L1.036,0" transform="translate(245.025 145.125)" fill="#0a0b09"/>
  <path id="Fill_380" data-name="Fill 380" d="M.716,4.86H0L1.038,0H2.753a2.551,2.551,0,0,1,.527.053A1.1,1.1,0,0,1,3.746.34a.871.871,0,0,1,.263.466,1.449,1.449,0,0,1,0,.694,1.907,1.907,0,0,1-.581.983,1.722,1.722,0,0,1-1.213.48H1.121l-.4,1.9ZM1.607.693,1.269,2.271H2.333a.928.928,0,0,0,.655-.255,1.067,1.067,0,0,0,.307-.536.936.936,0,0,0,.01-.411A.448.448,0,0,0,3.128.831.74.74,0,0,0,2.669.693H1.607Z" transform="translate(249.345 145.125)" fill="#0a0b09"/>
  <path id="Fill_381" data-name="Fill 381" d="M.761,4.861H0L2.765,0h.6L4.05,4.859H3.292L3.157,3.773h-1.8L.761,4.86ZM2.848.994h0L1.706,3.12H3.092L2.861.995Z" transform="translate(252.99 145.125)" fill="#0a0b09"/>
  <path id="Fill_382" data-name="Fill 382" d="M.714,4.861H0L1.035,0H2.878A1.18,1.18,0,0,1,3.772.32a1.094,1.094,0,0,1,.247,1.037A1.782,1.782,0,0,1,2.821,2.7l.631,2.155H2.606L2.071,2.783H1.157L.715,4.86ZM1.61.653,1.3,2.13H2.379a.952.952,0,0,0,.655-.24.977.977,0,0,0,.311-.536A.55.55,0,0,0,3.226.8a.676.676,0,0,0-.493-.15Z" transform="translate(258.12 145.125)" fill="#0a0b09"/>
  <path id="Fill_383" data-name="Fill 383" d="M1.268.653H0L.136,0H3.375L3.239.653H1.969L1.09,4.86h-.7L1.268.653" transform="translate(263.25 145.125)" fill="#0a0b09"/>
  <path id="Fill_384" data-name="Fill 384" d="M.724,0h.708L.77,3.11a.867.867,0,0,0,.116.751.729.729,0,0,0,.62.271,1.133,1.133,0,0,0,.742-.271,1.3,1.3,0,0,0,.43-.751L3.342,0H4.05L3.371,3.187a2.086,2.086,0,0,1-.735,1.207,2.015,2.015,0,0,1-1.284.466A1.325,1.325,0,0,1,.276,4.394,1.339,1.339,0,0,1,.045,3.189L.724,0" transform="translate(266.895 145.125)" fill="#0a0b09"/>
  <path id="Fill_385" data-name="Fill 385" d="M.714,4.861H0L1.035,0H2.878A1.18,1.18,0,0,1,3.772.32a1.094,1.094,0,0,1,.247,1.037A1.782,1.782,0,0,1,2.821,2.7l.631,2.155H2.606L2.071,2.783H1.157L.715,4.86ZM1.61.653,1.3,2.13H2.379a.952.952,0,0,0,.655-.24.977.977,0,0,0,.311-.536A.55.55,0,0,0,3.226.8a.67.67,0,0,0-.493-.15Z" transform="translate(271.62 145.125)" fill="#0a0b09"/>
  <path id="Fill_386" data-name="Fill 386" d="M1.035,0H4.05L3.9.693H1.6l-.3,1.391H3.269l-.139.653H1.167l-.3,1.431h2.3l-.148.693H0L1.035,0" transform="translate(276.21 145.125)" fill="#0a0b09"/>
  <path id="Fill_387" data-name="Fill 387" d="M1.036,0H4.05L3.9.693H1.6l-.3,1.391H3.269l-.139.653H1.167l-.3,1.431h2.3l-.148.693H0L1.036,0" transform="translate(17.55 145.125)" fill="#0a0b09"/>
  <path id="Fill_388" data-name="Fill 388" d="M1.269.653H0L.137,0H3.375L3.239.653H1.969L1.09,4.86h-.7L1.269.653" transform="translate(22.41 145.125)" fill="#0a0b09"/>
  <path id="Fill_389" data-name="Fill 389" d="M1.043,0h.72L1.226,2.5H1.24L3.735,0H4.59L2.655,1.917,3.706,4.86H2.851L2.066,2.484l-1.028.9L.72,4.86H0L1.043,0" transform="translate(25.92 145.125)" fill="#0a0b09"/>
  <path id="Fill_390" data-name="Fill 390" d="M1.268.653H0L.136,0H3.375L3.238.653H1.969L1.09,4.86h-.7L1.268.653" transform="translate(31.185 145.125)" fill="#0a0b09"/>
  <path id="Fill_391" data-name="Fill 391" d="M.9.735l-.8.507L.264.5l.8-.5h.692L.692,4.86H0L.9.735" transform="translate(37.665 145.125)" fill="#0a0b09"/>
  <path id="Fill_392" data-name="Fill 392" d="M.141,4.212,2.517,1.854a1.219,1.219,0,0,0,.2-.265A1.135,1.135,0,0,0,2.8,1.37.624.624,0,0,0,2.731.9.5.5,0,0,0,2.285.687.79.79,0,0,0,1.777.87a1.038,1.038,0,0,0-.341.514H.754A1.91,1.91,0,0,1,1.369.39,1.575,1.575,0,0,1,2.38,0a1.091,1.091,0,0,1,.912.4,1.141,1.141,0,0,1,.183.983A1.694,1.694,0,0,1,3,2.227L1.047,4.173H2.869L2.72,4.86H0l.141-.648" transform="translate(40.365 145.125)" fill="#0a0b09"/>
  <path id="Fill_393" data-name="Fill 393" d="M1.418,2.114h.233a.868.868,0,0,0,.878-.7A.626.626,0,0,0,2.44.9.553.553,0,0,0,1.989.7a.737.737,0,0,0-.426.146.98.98,0,0,0-.348.451H.537a1.891,1.891,0,0,1,.618-.92A1.5,1.5,0,0,1,2.11,0a1.068,1.068,0,0,1,.933.428,1.241,1.241,0,0,1,.165.971,1.792,1.792,0,0,1-.216.546,1.553,1.553,0,0,1-.517.468.907.907,0,0,1,.342.485,1.308,1.308,0,0,1,.005.593A1.872,1.872,0,0,1,2.183,4.58a1.7,1.7,0,0,1-1.11.415,1.031,1.031,0,0,1-.786-.323A1.254,1.254,0,0,1,0,3.737H.678a.773.773,0,0,0,.172.4.513.513,0,0,0,.414.159.824.824,0,0,0,.547-.213.978.978,0,0,0,.333-.568.691.691,0,0,0-.091-.581.577.577,0,0,0-.476-.2H1.288l.131-.619" transform="translate(44.415 145.125)" fill="#0a0b09"/>
  <path id="Fill_394" data-name="Fill 394" d="M.14,3.484,2.481,0H3.24L.882,3.484H2.126l.3-1.4h.681l-.3,1.4h.382l-.14.653H2.666l-.156.724H1.83l.156-.723H0l.14-.653" transform="translate(48.06 145.125)" fill="#0a0b09"/>
  <path id="Fill_395" data-name="Fill 395" d="M.864,0H3.375L3.228.687H1.35l-.236,1.1a1.419,1.419,0,0,1,.812-.264,1.238,1.238,0,0,1,.478.1.8.8,0,0,1,.293.251.909.909,0,0,1,.185.459,1.608,1.608,0,0,1-.01.347q-.025.208-.091.512a3.468,3.468,0,0,1-.219.721,1.538,1.538,0,0,1-.32.439,1.8,1.8,0,0,1-.477.342,1.382,1.382,0,0,1-.65.168A1.2,1.2,0,0,1,.3,4.57a1.106,1.106,0,0,1-.3-.96H.682a.493.493,0,0,0,.556.563.788.788,0,0,0,.41-.1.686.686,0,0,0,.248-.252,1.449,1.449,0,0,0,.144-.338q.045-.179.081-.348a1.342,1.342,0,0,0,.018-.672.374.374,0,0,0-.169-.2.791.791,0,0,0-.334-.06.782.782,0,0,0-.356.086,1.06,1.06,0,0,0-.339.312H.305L.864,0" transform="translate(52.245 145.125)" fill="#0a0b09"/>
  <path id="Fill_396" data-name="Fill 396" d="M1.089,4.995a1.289,1.289,0,0,1-.367-.048,1.007,1.007,0,0,1-.366-.192A.891.891,0,0,1,.13,4.468a1.234,1.234,0,0,1-.109-.334A1.334,1.334,0,0,1,0,3.8a1.109,1.109,0,0,1,.049-.269c.034-.1.069-.2.106-.293s.072-.173.109-.247.079-.156.122-.232.087-.149.148-.248c.013-.022.05-.076.108-.159l.121-.175L.86,2.043c.086-.123.182-.258.288-.407s.211-.3.318-.45l.114-.161Q1.912.558,2.309,0h.8l0,.005C3.1.013,3.084.034,3.057.072l-.138.2-.2.285L2.65.649,2.474.894l-.192.267-.067.093-.2.281L1.963,1.6l-.221.3c-.065.088-.12.16-.164.215a.63.63,0,0,1,.236-.069c.054,0,.112-.007.173-.007l.113,0a1,1,0,0,1,.389.08.791.791,0,0,1,.413.432,1.244,1.244,0,0,1,.087.508,1.17,1.17,0,0,1-.019.176l0,.02-.011.054-.012.054L2.93,3.43q-.014.065-.03.132c-.011.045-.021.083-.03.114,0,.014-.018.048-.039.1L2.822,3.8a1.978,1.978,0,0,1-.118.236,2.406,2.406,0,0,1-.2.293,1.86,1.86,0,0,1-.3.3,1.824,1.824,0,0,1-.412.24,1.68,1.68,0,0,1-.532.125C1.2,4.993,1.142,4.995,1.089,4.995Zm.537-2.349a.6.6,0,0,0-.187.029.87.87,0,0,0-.207.1,1.022,1.022,0,0,0-.171.147,1.373,1.373,0,0,0-.132.163.942.942,0,0,0-.087.149.528.528,0,0,0-.04.106c-.013.057-.025.121-.037.186a1.6,1.6,0,0,0-.022.205.754.754,0,0,0,.02.2.4.4,0,0,0,.089.17.48.48,0,0,0,.181.121.826.826,0,0,0,.306.047h.026a.743.743,0,0,0,.247-.039.829.829,0,0,0,.375-.253A1.156,1.156,0,0,0,2.1,3.818a.926.926,0,0,0,.068-.139.774.774,0,0,0,.03-.093c.019-.087.036-.182.05-.282a.733.733,0,0,0-.014-.294.453.453,0,0,0-.163-.24.724.724,0,0,0-.4-.122Z" transform="translate(56.025 145.125)" fill="#0a0b09"/>
  <path id="Fill_397" data-name="Fill 397" d="M.7,0H3.375L3.228.693.751,4.86H0L2.473.693H1.226l-.15.7H.4L.7,0" transform="translate(60.075 145.125)" fill="#0a0b09"/>
  <path id="Fill_398" data-name="Fill 398" d="M1.143,4.995a1.091,1.091,0,0,1-.9-.414,1.212,1.212,0,0,1-.2-1.06,1.675,1.675,0,0,1,.79-1.106,1.1,1.1,0,0,1-.242-.442A.956.956,0,0,1,.558,1.42,1.815,1.815,0,0,1,1.157.4,1.509,1.509,0,0,1,2.173,0a1.015,1.015,0,0,1,.864.4A1.268,1.268,0,0,1,3.2,1.419a1.375,1.375,0,0,1-.241.553,2.243,2.243,0,0,1-.437.441,1.071,1.071,0,0,1,.335,1.106A1.825,1.825,0,0,1,2.232,4.58,1.712,1.712,0,0,1,1.143,4.995Zm.466-2.262a.9.9,0,0,0-.566.22A.977.977,0,0,0,.7,3.514a.646.646,0,0,0,.115.554.558.558,0,0,0,.474.226.864.864,0,0,0,.576-.226A.978.978,0,0,0,2.2,3.514a.667.667,0,0,0-.107-.561A.6.6,0,0,0,1.609,2.733ZM2.028.7a.816.816,0,0,0-.49.173.885.885,0,0,0-.317.532.587.587,0,0,0,.1.522.522.522,0,0,0,.417.186.8.8,0,0,0,.5-.186.886.886,0,0,0,.308-.522A.609.609,0,0,0,2.457.874.563.563,0,0,0,2.028.7Z" transform="translate(63.585 145.125)" fill="#0a0b09"/>
  <path id="Fill_399" data-name="Fill 399" d="M.811,4.86H0l0-.008c.01-.014.036-.051.081-.112q.086-.122.227-.313L.625,4l.137-.186.2-.278q.169-.228.314-.421c.089-.118.17-.223.233-.3a.646.646,0,0,1-.237.068c-.054,0-.113.007-.174.007l-.114,0a.937.937,0,0,1-.374-.079.8.8,0,0,1-.25-.183.783.783,0,0,1-.15-.244A1.318,1.318,0,0,1,.14,2.118a1.263,1.263,0,0,1-.019-.238A.93.93,0,0,1,.137,1.7l0-.012c0-.014.007-.034.012-.061s.014-.075.024-.117.019-.087.03-.131a.959.959,0,0,1,.033-.113c.005-.015.022-.057.048-.118A1.779,1.779,0,0,1,.405.926a2.427,2.427,0,0,1,.2-.284A1.766,1.766,0,0,1,.91.359,1.822,1.822,0,0,1,1.322.13,1.847,1.847,0,0,1,1.859.008C1.921,0,1.981,0,2.038,0A1.342,1.342,0,0,1,2.4.044a.986.986,0,0,1,.365.183A.823.823,0,0,1,2.983.5a1.191,1.191,0,0,1,.1.323,1.281,1.281,0,0,1,.013.319,1.09,1.09,0,0,1-.05.263c-.034.1-.07.2-.107.291s-.073.172-.109.243-.081.157-.122.229-.1.162-.148.245c-.014.024-.051.078-.108.159s-.125.177-.214.3-.18.249-.283.394-.2.278-.313.436l-.282.39L.811,4.86ZM1.83.685l-.074,0a.761.761,0,0,0-.367.1A1.162,1.162,0,0,0,1.132,1a1.039,1.039,0,0,0-.156.219.751.751,0,0,0-.062.146c-.019.085-.035.181-.049.285a.759.759,0,0,0,.016.293.44.44,0,0,0,.157.235.652.652,0,0,0,.376.112h.038a.643.643,0,0,0,.2-.033.886.886,0,0,0,.209-.1.971.971,0,0,0,.171-.142,1.448,1.448,0,0,0,.133-.157,1.056,1.056,0,0,0,.087-.144A.5.5,0,0,0,2.3,1.6c.01-.055.022-.117.035-.185a1.251,1.251,0,0,0,.025-.209A.726.726,0,0,0,2.338,1,.387.387,0,0,0,2.25.833.434.434,0,0,0,2.066.719.722.722,0,0,0,1.83.685Z" transform="translate(67.635 145.125)" fill="#0a0b09"/>
  <path id="Fill_400" data-name="Fill 400" d="M1.088,4.995a1.084,1.084,0,0,1-.849-.37,1.138,1.138,0,0,1-.2-1.043L.5,1.41A1.718,1.718,0,0,1,1.145.364a1.609,1.609,0,0,1,1-.364,1.086,1.086,0,0,1,.867.364A1.2,1.2,0,0,1,3.2,1.412l-.46,2.167A1.788,1.788,0,0,1,2.11,4.624,1.663,1.663,0,0,1,1.088,4.995ZM2,.7a.833.833,0,0,0-.829.752L.728,3.541A.706.706,0,0,0,.8,4.129a.54.54,0,0,0,.435.165.835.835,0,0,0,.832-.752l.444-2.088A.708.708,0,0,0,2.434.87.545.545,0,0,0,2,.7Z" transform="translate(71.28 145.125)" fill="#0a0b09"/>
  <path id="Fill_401" data-name="Fill 401" d="M.9.735l-.8.507L.264.5l.8-.5h.692L.692,4.86H0L.9.735" transform="translate(75.87 145.125)" fill="#0a0b09"/>
  <path id="Fill_402" data-name="Fill 402" d="M.141,4.212,2.517,1.854a1.216,1.216,0,0,0,.205-.265A1.134,1.134,0,0,0,2.8,1.37.625.625,0,0,0,2.732.9.5.5,0,0,0,2.285.687.79.79,0,0,0,1.777.87a1.038,1.038,0,0,0-.341.514H.754A1.91,1.91,0,0,1,1.369.39,1.575,1.575,0,0,1,2.38,0a1.092,1.092,0,0,1,.912.4,1.142,1.142,0,0,1,.183.983A1.694,1.694,0,0,1,3,2.227L1.047,4.173H2.869L2.72,4.86H0l.141-.648" transform="translate(78.705 145.125)" fill="#0a0b09"/>
  <path id="Fill_403" data-name="Fill 403" d="M1.418,2.114h.233a.868.868,0,0,0,.878-.7A.627.627,0,0,0,2.44.9.554.554,0,0,0,1.989.7a.736.736,0,0,0-.426.146.979.979,0,0,0-.348.451H.538a1.891,1.891,0,0,1,.618-.92A1.5,1.5,0,0,1,2.11,0a1.068,1.068,0,0,1,.933.428,1.24,1.24,0,0,1,.165.971,1.792,1.792,0,0,1-.215.546,1.554,1.554,0,0,1-.517.468.907.907,0,0,1,.342.485,1.308,1.308,0,0,1,.005.593A1.872,1.872,0,0,1,2.183,4.58a1.7,1.7,0,0,1-1.11.415,1.032,1.032,0,0,1-.786-.323A1.254,1.254,0,0,1,0,3.737H.678a.771.771,0,0,0,.172.4.512.512,0,0,0,.413.159.824.824,0,0,0,.547-.213.977.977,0,0,0,.333-.568.691.691,0,0,0-.091-.581.577.577,0,0,0-.476-.2H1.288l.131-.619" transform="translate(82.62 145.125)" fill="#0a0b09"/>
  <path id="Fill_404" data-name="Fill 404" d="M3.027,2.736H1.163L.712,4.86H0L1.032,0h.712L1.3,2.084H3.166L3.608,0H4.32L3.288,4.86H2.577l.451-2.124" transform="translate(297.81 145.125)" fill="#0a0b09"/>
  <path id="Fill_405" data-name="Fill 405" d="M.761,4.861H0L2.765,0h.6L4.05,4.859H3.292L3.157,3.773h-1.8L.761,4.86ZM2.848.994h0L1.706,3.12H3.092L2.861.995Z" transform="translate(302.265 145.125)" fill="#0a0b09"/>
  <path id="Fill_406" data-name="Fill 406" d="M0,0H.751l.279,3.7h.013L2.893,0h.752L1.068,4.86H.516L0,0" transform="translate(307.665 145.125)" fill="#0a0b09"/>
  <path id="Fill_407" data-name="Fill 407" d="M1.036,0H4.05L3.9.693H1.6l-.3,1.391H3.269l-.139.653H1.167l-.3,1.431h2.3l-.148.693H0L1.036,0" transform="translate(311.445 145.125)" fill="#0a0b09"/>
  <path id="Fill_408" data-name="Fill 408" d="M.761,4.861H0L2.765,0h.6L4.05,4.859H3.292L3.157,3.773h-1.8L.761,4.86ZM2.848.994h0L1.706,3.12H3.092L2.861.995Z" transform="translate(317.52 145.125)" fill="#0a0b09"/>
  <path id="Fill_409" data-name="Fill 409" d="M1.039,0h.676L3.121,3.455h.013L3.873,0H4.59L3.551,4.86H2.872l-1.4-3.455H1.456L.717,4.86H0L1.039,0" transform="translate(324.945 145.125)" fill="#0a0b09"/>
  <path id="Fill_410" data-name="Fill 410" d="M1.038,0h.717L.717,4.86H0L1.038,0" transform="translate(330.075 145.125)" fill="#0a0b09"/>
  <path id="Fill_411" data-name="Fill 411" d="M3.328,3.582a2.47,2.47,0,0,1-.819,1.05,1.99,1.99,0,0,1-1.149.363,1.36,1.36,0,0,1-.874-.283,1.2,1.2,0,0,1-.426-.6C.042,4.038.026,3.967.012,3.9A1.312,1.312,0,0,1,0,3.637,8.8,8.8,0,0,1,.2,2.5,9.34,9.34,0,0,1,.487,1.352,1.76,1.76,0,0,1,.746.883,2.286,2.286,0,0,1,1.428.277,1.88,1.88,0,0,1,2.421,0,1.284,1.284,0,0,1,3.451.421a1.5,1.5,0,0,1,.328,1.033H3.016A.845.845,0,0,0,2.8.947.755.755,0,0,0,2.261.741a1.117,1.117,0,0,0-.459.1,1.239,1.239,0,0,0-.354.253,1.079,1.079,0,0,0-.272.409,6.734,6.734,0,0,0-.262.99,6.129,6.129,0,0,0-.156.983.69.69,0,0,0,.1.415.623.623,0,0,0,.248.246.7.7,0,0,0,.413.112,1.26,1.26,0,0,0,1.049-.672h.762" transform="translate(332.505 145.125)" fill="#0a0b09"/>
  <path id="Fill_412" data-name="Fill 412" d="M1.035,0H4.05L3.9.693H1.6l-.3,1.391H3.269l-.139.653H1.167l-.3,1.431h2.3l-.148.693H0L1.035,0" transform="translate(336.825 145.125)" fill="#0a0b09"/>
  <path id="Fill_413" data-name="Fill 413" d="M1.269.653H0L.136,0H3.375L3.239.653H1.969L1.09,4.86h-.7L1.269.653" transform="translate(343.71 145.125)" fill="#0a0b09"/>
  <path id="Fill_414" data-name="Fill 414" d="M.714,4.861H0L1.035,0H2.878A1.18,1.18,0,0,1,3.772.32a1.094,1.094,0,0,1,.247,1.037A1.782,1.782,0,0,1,2.821,2.7l.631,2.155H2.606L2.071,2.783H1.157L.715,4.86ZM1.61.653,1.3,2.13H2.379a.952.952,0,0,0,.655-.24.977.977,0,0,0,.311-.536A.55.55,0,0,0,3.226.8a.676.676,0,0,0-.493-.15Z" transform="translate(347.22 145.125)" fill="#0a0b09"/>
  <path id="Fill_415" data-name="Fill 415" d="M1.039,0h.716L.716,4.86H0L1.039,0" transform="translate(351.945 145.125)" fill="#0a0b09"/>
  <path id="Fill_416" data-name="Fill 416" d="M.716,4.86H0L1.038,0H2.753a2.551,2.551,0,0,1,.527.053A1.1,1.1,0,0,1,3.746.34a.871.871,0,0,1,.263.466,1.449,1.449,0,0,1,0,.694,1.914,1.914,0,0,1-.581.983,1.722,1.722,0,0,1-1.213.48H1.121l-.4,1.9ZM1.607.693,1.269,2.271H2.333a.928.928,0,0,0,.655-.255,1.067,1.067,0,0,0,.307-.536.936.936,0,0,0,.01-.411A.448.448,0,0,0,3.128.831.74.74,0,0,0,2.669.693H1.607Z" transform="translate(354.24 145.125)" fill="#0a0b09"/>
  <path id="Fill_417" data-name="Fill 417" d="M.661,4.86H0l.145-.693H.8l-.144.692Zm.077-1.2H.41L.925,0h.83L.738,3.659Z" transform="translate(358.965 145.125)" fill="#0a0b09"/>
  <path id="Fill_426" data-name="Fill 426" d="M0,40.635H132.7V0H0Z" transform="translate(116.235 95.31)" fill="#fffffe"/>
  <path id="Fill_427" data-name="Fill 427" d="M133.108,41.445H.407A.407.407,0,0,1,0,41.038V.407A.407.407,0,0,1,.407,0h132.7a.407.407,0,0,1,.407.407V41.038A.407.407,0,0,1,133.108,41.445ZM.814.814V40.631H132.7V.814Z" transform="translate(115.83 94.905)" fill="#217875"/>
  <path id="Fill_428" data-name="Fill 428" d="M1.128,5.13H0V0H2.255a1.07,1.07,0,0,1,.79.338,1.116,1.116,0,0,1,.33.8V1.71a1.116,1.116,0,0,1-.33.8,1.07,1.07,0,0,1-.79.338H1.128V5.129Zm0-4.562v1.71h.56a.544.544,0,0,0,.4-.167.551.551,0,0,0,.166-.4V1.142A.558.558,0,0,0,2.089.735a.544.544,0,0,0-.4-.167Z" transform="translate(16.605 43.74)" fill="#0a0b09"/>
  <path id="Fill_429" data-name="Fill 429" d="M1.127,5.131H0V1.142A1.11,1.11,0,0,1,.334.335,1.088,1.088,0,0,1,1.127,0H2.255a1.069,1.069,0,0,1,.789.338,1.117,1.117,0,0,1,.331.8V5.129H2.255V2.852H1.127V5.13ZM1.688.568a.54.54,0,0,0-.4.167.561.561,0,0,0-.166.407V2.278H2.255V1.142A.558.558,0,0,0,2.089.735.544.544,0,0,0,1.688.568Z" transform="translate(21.195 43.74)" fill="#0a0b09"/>
  <path id="Fill_430" data-name="Fill 430" d="M2.835,1.142H2.271Q2.2.568,1.734.568a.625.625,0,0,0-.449.144.571.571,0,0,0-.149.431.614.614,0,0,0,.163.4L2.5,2.9a1.2,1.2,0,0,1,.333.807v.28a1.107,1.107,0,0,1-.333.8,1.085,1.085,0,0,1-.8.339H1.135a1.158,1.158,0,0,1-.85-.284A1.163,1.163,0,0,1,0,3.988H.571v.1a.407.407,0,0,0,.177.356.664.664,0,0,0,.388.123.555.555,0,0,0,.432-.147A.617.617,0,0,0,1.7,3.988a.6.6,0,0,0-.163-.4L.333,2.23A1.181,1.181,0,0,1,0,1.423v-.28a1.106,1.106,0,0,1,.333-.8A1.084,1.084,0,0,1,1.135,0H1.7Q2.767,0,2.835,1.142" transform="translate(25.785 43.74)" fill="#0a0b09"/>
  <path id="Fill_431" data-name="Fill 431" d="M2.835,1.142H2.271Q2.2.568,1.734.568a.625.625,0,0,0-.449.144.571.571,0,0,0-.15.431.614.614,0,0,0,.163.4L2.5,2.9a1.2,1.2,0,0,1,.333.807v.28a1.107,1.107,0,0,1-.333.8,1.085,1.085,0,0,1-.8.339H1.135a1.157,1.157,0,0,1-.85-.284A1.162,1.162,0,0,1,0,3.988H.571v.1a.406.406,0,0,0,.177.356.664.664,0,0,0,.387.123.555.555,0,0,0,.432-.147A.617.617,0,0,0,1.7,3.988a.6.6,0,0,0-.163-.4L.333,2.23A1.181,1.181,0,0,1,0,1.423v-.28a1.107,1.107,0,0,1,.333-.8A1.084,1.084,0,0,1,1.135,0H1.7Q2.767,0,2.835,1.142" transform="translate(29.7 43.74)" fill="#0a0b09"/>
  <path id="Fill_432" data-name="Fill 432" d="M0,5.13V0H2.835V.568h-1.7v1.71H2.271v.575H1.135v1.71h1.7V5.13H0" transform="translate(33.75 43.74)" fill="#0a0b09"/>
  <path id="Fill_433" data-name="Fill 433" d="M0,5.13V0H.27l3.2,2.852V0H4.05V5.13H3.786L.582,2.278V5.13H0" transform="translate(37.665 43.74)" fill="#0a0b09"/>
  <path id="Fill_434" data-name="Fill 434" d="M1.688,2.278H3.375v1.71a1.029,1.029,0,0,1-.358.858,1.207,1.207,0,0,1-.763.284H1.127a1.082,1.082,0,0,1-.793-.335A1.1,1.1,0,0,1,0,3.988V1.142a1.116,1.116,0,0,1,.327-.8A1.07,1.07,0,0,1,1.127,0H2.255q1.06,0,1.12,1.142h-.56Q2.747.568,2.255.568H1.688a.535.535,0,0,0-.395.168.558.558,0,0,0-.165.407V3.988a.557.557,0,0,0,.165.407.535.535,0,0,0,.395.168.537.537,0,0,0,.567-.575V2.852H1.688V2.278" transform="translate(42.795 43.74)" fill="#0a0b09"/>
  <path id="Fill_435" data-name="Fill 435" d="M0,5.13V0H2.835V.568h-1.7v1.71H2.271v.575H1.135v1.71h1.7V5.13H0" transform="translate(47.385 43.74)" fill="#0a0b09"/>
  <path id="Fill_436" data-name="Fill 436" d="M1.127,5.131H0V0H2.255a1.07,1.07,0,0,1,.79.338,1.119,1.119,0,0,1,.33.8V1.45a1.238,1.238,0,0,1-.257.735,1,1,0,0,1-.864.353h.56a.537.537,0,0,1,.4.167.558.558,0,0,1,.166.407V5.129H2.255V3.42a.554.554,0,0,0-.166-.4.544.544,0,0,0-.4-.167H1.127V5.13Zm0-4.563v1.71h.561a.544.544,0,0,0,.4-.167.551.551,0,0,0,.166-.4V1.142A.558.558,0,0,0,2.089.735a.544.544,0,0,0-.4-.167Z" transform="translate(51.435 43.74)" fill="#0a0b09"/>
  <path id="Fill_437" data-name="Fill 437" d="M0,5.13V0H.271l3.2,2.852V0H4.05V5.13H3.786L.582,2.278V5.13H0" transform="translate(57.645 43.74)" fill="#0a0b09"/>
  <path id="Fill_438" data-name="Fill 438" d="M1.127,5.131H0V1.142A1.11,1.11,0,0,1,.334.335,1.088,1.088,0,0,1,1.127,0H2.255a1.069,1.069,0,0,1,.789.338,1.117,1.117,0,0,1,.331.8V5.129H2.255V2.852H1.127V5.13ZM1.688.568a.54.54,0,0,0-.4.167.561.561,0,0,0-.166.407V2.278H2.255V1.142A.558.558,0,0,0,2.089.735.544.544,0,0,0,1.688.568Z" transform="translate(62.775 43.74)" fill="#0a0b09"/>
  <path id="Fill_439" data-name="Fill 439" d="M0,5.13V0H.265l2.42,2.428L5.1,0H5.67V5.13H4.535V2l-1.985,2L.571,2V5.13H0" transform="translate(67.365 43.74)" fill="#0a0b09"/>
  <path id="Fill_440" data-name="Fill 440" d="M0,5.13V0H2.835V.568h-1.7v1.71H2.271v.575H1.135v1.71h1.7V5.13H0" transform="translate(74.115 43.74)" fill="#0a0b09"/>
  <path id="Fill_441" data-name="Fill 441" d="M1.08,3.915H0V2.794H1.08v1.12Zm0-2.8H0V0H1.08V1.114Z" transform="translate(78.165 44.955)" fill="#0a0b09"/>
  <path id="Fill_442" data-name="Fill 442" d="M0,12.96H84.78V0H0Z" transform="translate(16.065 51.84)" fill="#fffffe"/>
  <text id="ACME_INC" data-name="ACME INC" transform="translate(18.36 61.135)" fill="#217875" font-size="8.1" font-family="CourierNewPS-BoldMT, Courier New" font-weight="700"><tspan x="0" y="0">ACME INC</tspan></text>
  <path id="Fill_443" data-name="Fill 443" d="M0,5.13V0H2.835V.568h-1.7v1.71H2.271v.575H1.135V5.13H0" transform="translate(16.605 71.145)" fill="#0a0b09"/>
  <path id="Fill_444" data-name="Fill 444" d="M1.127,5.131H0V0H2.255a1.069,1.069,0,0,1,.789.338,1.117,1.117,0,0,1,.331.8V1.45a1.238,1.238,0,0,1-.257.735,1,1,0,0,1-.864.353h.56a.537.537,0,0,1,.4.167.558.558,0,0,1,.166.407V5.129H2.255V3.42a.554.554,0,0,0-.166-.4.544.544,0,0,0-.4-.167H1.127V5.13Zm0-4.563v1.71h.561a.544.544,0,0,0,.4-.167.554.554,0,0,0,.166-.4V1.142A.558.558,0,0,0,2.089.735a.544.544,0,0,0-.4-.167Z" transform="translate(20.655 71.145)" fill="#0a0b09"/>
  <path id="Fill_445" data-name="Fill 445" d="M2.254,5.13H1.127A1.088,1.088,0,0,1,.334,4.8,1.11,1.11,0,0,1,0,3.988V1.142A1.11,1.11,0,0,1,.334.335,1.088,1.088,0,0,1,1.127,0H2.254a1.069,1.069,0,0,1,.789.338,1.117,1.117,0,0,1,.331.8V3.988a1.117,1.117,0,0,1-.331.8A1.069,1.069,0,0,1,2.254,5.13ZM1.688.568a.54.54,0,0,0-.4.167.561.561,0,0,0-.166.407V3.988a.563.563,0,0,0,.166.4.549.549,0,0,0,.8,0,.56.56,0,0,0,.166-.4V1.142A.558.558,0,0,0,2.089.735.544.544,0,0,0,1.688.568Z" transform="translate(25.245 71.145)" fill="#0a0b09"/>
  <path id="Fill_446" data-name="Fill 446" d="M0,5.13V0H.265l2.42,2.428L5.1,0H5.67V5.13H4.535V2l-1.985,2L.571,2V5.13H0" transform="translate(29.7 71.145)" fill="#0a0b09"/>
  <path id="Fill_447" data-name="Fill 447" d="M1.08,3.915H0V2.794H1.08v1.12Zm0-2.8H0V0H1.08V1.114Z" transform="translate(36.585 72.36)" fill="#0a0b09"/>
  <path id="Fill_448" data-name="Fill 448" d="M0,12.96H84.78V0H0Z" transform="translate(16.065 79.11)" fill="#fffffe"/>
  <path id="Fill_449" data-name="Fill 449" d="M1.127,5.13V.568H0V0H3.375V.568H2.248V5.13H1.127" transform="translate(16.065 98.415)" fill="#0a0b09"/>
  <path id="Fill_450" data-name="Fill 450" d="M2.254,5.13H1.128A1.089,1.089,0,0,1,.334,4.8,1.11,1.11,0,0,1,0,3.988V1.142A1.106,1.106,0,0,1,.334.336,1.087,1.087,0,0,1,1.128,0H2.254a1.07,1.07,0,0,1,.79.338,1.116,1.116,0,0,1,.33.8V3.988a1.116,1.116,0,0,1-.33.8A1.07,1.07,0,0,1,2.254,5.13ZM1.688.568a.54.54,0,0,0-.4.167.561.561,0,0,0-.165.407V3.988a.562.562,0,0,0,.165.4.549.549,0,0,0,.8,0,.56.56,0,0,0,.166-.4V1.142A.558.558,0,0,0,2.089.735.544.544,0,0,0,1.688.568Z" transform="translate(20.115 98.415)" fill="#0a0b09"/>
  <path id="Fill_451" data-name="Fill 451" d="M1.08,3.915H0V2.794H1.08v1.12Zm0-2.8H0V0H1.08V1.114Z" transform="translate(24.705 99.63)" fill="#0a0b09"/>
  <path id="Fill_452" data-name="Fill 452" d="M0,12.96H84.78V0H0Z" transform="translate(16.065 106.38)" fill="#fffffe"/>
  <path id="Fill_453" data-name="Fill 453" d="M15.784.567a.247.247,0,0,1-.042.074,6.706,6.706,0,0,1-2.383,1.277l-2.047.6-1.564.5-2.127.577-1.262.369A9.223,9.223,0,0,1,5.1,4.19s-3.271.232-3.642.26c-.317.025-.39-.064-.4-.089a.021.021,0,0,0,0-.007A.464.464,0,0,1,1,4.259a.225.225,0,0,1,0-.148.306.306,0,0,1,.184-.161l.136-.036L.012,2.241a.056.056,0,0,1,.028-.088l.642-.187s.061-.042.3.064L3.259,3.055a1.341,1.341,0,0,0,.791.093L7.77,2.056,5.179,1.016A.065.065,0,0,1,5.168.9L5.433.727a.7.7,0,0,1,.5-.11l4.09.642c.3-.121.6-.237.822-.308C11.314.8,13.8.1,14.152.018a.867.867,0,0,1,.627.113s.259.044.714.14a.7.7,0,0,1,.175.058.261.261,0,0,1,.1.084.175.175,0,0,1,.014.154" transform="translate(41.985 69.93)" fill="#0a0b09"/>
  <path id="Fill_454" data-name="Fill 454" d="M14.654,6.169a.245.245,0,0,1-.072.043A6.734,6.734,0,0,1,11.9,6.168L9.828,5.7l-1.6-.317L6.1,4.863,4.82,4.576A9.316,9.316,0,0,1,3.612,4.17S.649,2.8.312,2.652C.024,2.522,0,2.411,0,2.382a.019.019,0,0,0,0-.008.454.454,0,0,1,.006-.1.218.218,0,0,1,.068-.128.305.305,0,0,1,.237-.05l.136.035L.1.064A.055.055,0,0,1,.168,0L.817.147s.073-.006.228.2l1.5,1.972a1.348,1.348,0,0,0,.645.458l3.764.841L5.191,1.482a.063.063,0,0,1,.045-.1l.314-.023a.708.708,0,0,1,.492.147L9.3,4.011c.316.038.636.084.863.129.477.092,2.981.677,3.324.778a.869.869,0,0,1,.493.4s.205.162.556.462a.694.694,0,0,1,.125.133.256.256,0,0,1,.049.121.169.169,0,0,1-.061.139" transform="translate(42.93 97.2)" fill="#0a0b09"/>
  <path id="Fill_455" data-name="Fill 455" d="M0,12.96H89.5V0H0Z" transform="translate(297.405 39.555)" fill="#fffffe"/>
  <path id="Fill_456" data-name="Fill 456" d="M1.128,5.13H0V0H2.255a1.07,1.07,0,0,1,.79.338,1.116,1.116,0,0,1,.33.8V1.71a1.116,1.116,0,0,1-.33.8,1.07,1.07,0,0,1-.79.338H1.128V5.129Zm0-4.562v1.71h.56a.544.544,0,0,0,.4-.167.551.551,0,0,0,.166-.4V1.142A.558.558,0,0,0,2.089.735a.544.544,0,0,0-.4-.167Z" transform="translate(298.89 43.74)" fill="#0a0b09"/>
  <path id="Fill_457" data-name="Fill 457" d="M1.128,5.131H0V1.142A1.11,1.11,0,0,1,.334.335,1.089,1.089,0,0,1,1.128,0H2.255a1.07,1.07,0,0,1,.79.338,1.116,1.116,0,0,1,.33.8V5.129H2.255V2.852H1.128V5.13ZM1.688.568a.54.54,0,0,0-.4.167.561.561,0,0,0-.165.407V2.278H2.255V1.142A.558.558,0,0,0,2.089.735.544.544,0,0,0,1.688.568Z" transform="translate(303.48 43.74)" fill="#0a0b09"/>
  <path id="Fill_458" data-name="Fill 458" d="M2.835,1.142H2.271Q2.2.568,1.734.568a.625.625,0,0,0-.449.144.571.571,0,0,0-.149.431.614.614,0,0,0,.163.4L2.5,2.9a1.2,1.2,0,0,1,.333.807v.28a1.107,1.107,0,0,1-.333.8,1.085,1.085,0,0,1-.8.339H1.135a1.158,1.158,0,0,1-.85-.284A1.163,1.163,0,0,1,0,3.988H.571v.1a.407.407,0,0,0,.177.356.665.665,0,0,0,.388.123.555.555,0,0,0,.432-.147A.617.617,0,0,0,1.7,3.988a.6.6,0,0,0-.163-.4L.333,2.23A1.181,1.181,0,0,1,0,1.423v-.28a1.107,1.107,0,0,1,.333-.8A1.084,1.084,0,0,1,1.135,0H1.7Q2.767,0,2.835,1.142" transform="translate(307.935 43.74)" fill="#0a0b09"/>
  <path id="Fill_459" data-name="Fill 459" d="M2.835,1.142H2.271Q2.2.568,1.734.568a.625.625,0,0,0-.449.144.571.571,0,0,0-.15.431.614.614,0,0,0,.163.4L2.5,2.9a1.2,1.2,0,0,1,.333.807v.28a1.107,1.107,0,0,1-.333.8,1.085,1.085,0,0,1-.8.339H1.135a1.158,1.158,0,0,1-.85-.284A1.163,1.163,0,0,1,0,3.988H.571v.1a.407.407,0,0,0,.177.356.664.664,0,0,0,.387.123.556.556,0,0,0,.432-.147A.618.618,0,0,0,1.7,3.988a.6.6,0,0,0-.163-.4L.333,2.23A1.181,1.181,0,0,1,0,1.423v-.28a1.107,1.107,0,0,1,.333-.8A1.084,1.084,0,0,1,1.135,0H1.7Q2.767,0,2.835,1.142" transform="translate(311.985 43.74)" fill="#0a0b09"/>
  <path id="Fill_460" data-name="Fill 460" d="M0,5.13V0H2.835V.568h-1.7v1.71H2.271v.575H1.135v1.71h1.7V5.13H0" transform="translate(315.9 43.74)" fill="#0a0b09"/>
  <path id="Fill_461" data-name="Fill 461" d="M0,5.13V0H.27l3.2,2.852V0H4.05V5.13H3.787L.583,2.278V5.13H0" transform="translate(319.815 43.74)" fill="#0a0b09"/>
  <path id="Fill_462" data-name="Fill 462" d="M1.687,2.278H3.375v1.71a1.029,1.029,0,0,1-.358.858,1.207,1.207,0,0,1-.763.284H1.127a1.082,1.082,0,0,1-.793-.335A1.1,1.1,0,0,1,0,3.988V1.142a1.116,1.116,0,0,1,.327-.8A1.069,1.069,0,0,1,1.127,0H2.254q1.06,0,1.121,1.142h-.56Q2.747.568,2.254.568H1.687a.535.535,0,0,0-.395.168.558.558,0,0,0-.165.407V3.988a.557.557,0,0,0,.165.407.535.535,0,0,0,.395.168.537.537,0,0,0,.567-.575V2.852H1.687V2.278" transform="translate(325.08 43.74)" fill="#0a0b09"/>
  <path id="Fill_463" data-name="Fill 463" d="M0,5.13V0H2.835V.568h-1.7v1.71H2.271v.575H1.135v1.71h1.7V5.13H0" transform="translate(329.535 43.74)" fill="#0a0b09"/>
  <path id="Fill_464" data-name="Fill 464" d="M1.127,5.131H0V0H2.255a1.069,1.069,0,0,1,.789.338,1.117,1.117,0,0,1,.331.8V1.45a1.238,1.238,0,0,1-.257.735,1,1,0,0,1-.864.353h.56a.537.537,0,0,1,.4.167.558.558,0,0,1,.166.407V5.129H2.255V3.42a.554.554,0,0,0-.166-.4.544.544,0,0,0-.4-.167H1.127V5.13Zm0-4.563v1.71h.561a.544.544,0,0,0,.4-.167.551.551,0,0,0,.166-.4V1.142A.558.558,0,0,0,2.089.735a.544.544,0,0,0-.4-.167Z" transform="translate(333.585 43.74)" fill="#0a0b09"/>
  <path id="Fill_465" data-name="Fill 465" d="M1.08,3.915H0V2.794H1.08v1.12Zm0-2.8H0V0H1.08V1.114Z" transform="translate(338.175 44.955)" fill="#0a0b09"/>
  <path id="Fill_466" data-name="Fill 466" d="M0,12.96H89.5V0H0Z" transform="translate(297.405 57.915)" fill="#fffffe"/>
  <path id="Fill_467" data-name="Fill 467" d="M0,5.13V0H2.835V.568h-1.7v1.71H2.271v.575H1.135V5.13H0" transform="translate(316.17 61.83)" fill="#0a0b09"/>
  <path id="Fill_468" data-name="Fill 468" d="M1.128,5.131H0V0H2.255a1.07,1.07,0,0,1,.79.338,1.116,1.116,0,0,1,.33.8V1.45a1.238,1.238,0,0,1-.257.735,1,1,0,0,1-.864.353h.56a.537.537,0,0,1,.4.167.558.558,0,0,1,.166.407V5.129H2.255V3.42a.554.554,0,0,0-.166-.4.544.544,0,0,0-.4-.167h-.56V5.13Zm0-4.563v1.71h.56a.544.544,0,0,0,.4-.167.554.554,0,0,0,.166-.4V1.142A.558.558,0,0,0,2.089.735a.544.544,0,0,0-.4-.167Z" transform="translate(320.085 61.83)" fill="#0a0b09"/>
  <path id="Fill_469" data-name="Fill 469" d="M2.254,5.13H1.127A1.088,1.088,0,0,1,.334,4.8,1.11,1.11,0,0,1,0,3.988V1.142A1.11,1.11,0,0,1,.334.335,1.088,1.088,0,0,1,1.127,0H2.254a1.07,1.07,0,0,1,.79.338,1.116,1.116,0,0,1,.33.8V3.988a1.116,1.116,0,0,1-.33.8A1.07,1.07,0,0,1,2.254,5.13ZM1.688.568a.54.54,0,0,0-.4.167.561.561,0,0,0-.166.407V3.988a.563.563,0,0,0,.166.4.549.549,0,0,0,.8,0,.56.56,0,0,0,.166-.4V1.142A.558.558,0,0,0,2.089.735.544.544,0,0,0,1.688.568Z" transform="translate(324.675 61.83)" fill="#0a0b09"/>
  <path id="Fill_470" data-name="Fill 470" d="M0,5.13V0H.265l2.42,2.428L5.1,0H5.67V5.13H4.535V2l-1.985,2L.571,2V5.13H0" transform="translate(329.265 61.83)" fill="#0a0b09"/>
  <path id="Fill_471" data-name="Fill 471" d="M1.08,3.915H0V2.794H1.08v1.12Zm0-2.8H0V0H1.08V1.114Z" transform="translate(336.015 63.045)" fill="#0a0b09"/>
  <path id="Fill_472" data-name="Fill 472" d="M15.784.567a.245.245,0,0,1-.042.074,6.705,6.705,0,0,1-2.383,1.277l-2.047.6-1.564.5-2.127.577-1.262.369A9.236,9.236,0,0,1,5.1,4.19s-3.271.232-3.642.26c-.317.025-.39-.064-.4-.089a.021.021,0,0,0,0-.007A.469.469,0,0,1,1,4.259a.225.225,0,0,1,0-.148.305.305,0,0,1,.184-.161l.136-.036L.012,2.241a.056.056,0,0,1,.028-.088l.642-.187s.061-.041.3.064L3.259,3.055a1.341,1.341,0,0,0,.791.093L7.77,2.056,5.179,1.016A.065.065,0,0,1,5.168.9L5.434.727a.7.7,0,0,1,.5-.11l4.09.642c.3-.121.6-.237.822-.308C11.313.8,13.8.1,14.152.018a.866.866,0,0,1,.627.112s.259.044.714.141a.7.7,0,0,1,.174.058.261.261,0,0,1,.1.084.175.175,0,0,1,.014.154" transform="translate(299.565 61.965)" fill="#0a0b09"/>
  <path id="Fill_473" data-name="Fill 473" d="M0,12.96H89.5V0H0Z" transform="translate(297.405 73.71)" fill="#fffffe"/>
  <path id="Fill_474" data-name="Fill 474" d="M1.127,5.13V.568H0V0H3.375V.568H2.248V5.13H1.127" transform="translate(315.63 77.76)" fill="#0a0b09"/>
  <path id="Fill_475" data-name="Fill 475" d="M2.254,5.13H1.127a1.086,1.086,0,0,1-.793-.336A1.106,1.106,0,0,1,0,3.988V1.142A1.11,1.11,0,0,1,.334.335,1.088,1.088,0,0,1,1.127,0H2.254a1.07,1.07,0,0,1,.79.338,1.116,1.116,0,0,1,.33.8V3.988a1.116,1.116,0,0,1-.33.8A1.07,1.07,0,0,1,2.254,5.13ZM1.688.568a.54.54,0,0,0-.4.167.561.561,0,0,0-.166.407V3.988a.563.563,0,0,0,.166.4.549.549,0,0,0,.8,0,.56.56,0,0,0,.166-.4V1.142A.558.558,0,0,0,2.089.735.544.544,0,0,0,1.688.568Z" transform="translate(319.545 77.76)" fill="#0a0b09"/>
  <path id="Fill_476" data-name="Fill 476" d="M1.08,3.915H0V2.794H1.08v1.12Zm0-2.8H0V0H1.08V1.114Z" transform="translate(324.135 78.975)" fill="#0a0b09"/>
  <path id="Fill_477" data-name="Fill 477" d="M14.654,6.169a.244.244,0,0,1-.072.043A6.735,6.735,0,0,1,11.9,6.169L9.828,5.7l-1.6-.316L6.1,4.863,4.82,4.576A9.3,9.3,0,0,1,3.612,4.17S.649,2.8.312,2.652C.024,2.522,0,2.411,0,2.382a.019.019,0,0,0,0-.008.455.455,0,0,1,.006-.1.216.216,0,0,1,.068-.128.3.3,0,0,1,.237-.051l.136.035L.1.064A.055.055,0,0,1,.168,0L.817.147s.073-.006.228.2l1.5,1.972a1.347,1.347,0,0,0,.645.458l3.764.841L5.191,1.482a.063.063,0,0,1,.045-.1l.314-.023a.709.709,0,0,1,.492.147L9.3,4.011c.316.038.636.084.863.129.477.092,2.981.677,3.324.778a.869.869,0,0,1,.493.4s.205.162.556.462a.7.7,0,0,1,.125.133.256.256,0,0,1,.049.121.169.169,0,0,1-.061.138" transform="translate(299.565 78.435)" fill="#0a0b09"/>
  <path id="Fill_478" data-name="Fill 478" d="M2.525,5.67H0V0H2.525a1.205,1.205,0,0,1,.884.374,1.223,1.223,0,0,1,.371.888V4.407a1.223,1.223,0,0,1-.371.888A1.205,1.205,0,0,1,2.525,5.67ZM1.263.627V5.043H1.89a.609.609,0,0,0,.45-.189.62.62,0,0,0,.185-.446V1.263A.633.633,0,0,0,1.89.627Z" transform="translate(118.395 49.275)" fill="#0a0b09"/>
  <path id="Fill_479" data-name="Fill 479" d="M1.263,5.671H0V1.263A1.214,1.214,0,0,1,.374.371,1.223,1.223,0,0,1,1.263,0H2.525a1.205,1.205,0,0,1,.884.374,1.223,1.223,0,0,1,.371.888V5.669H2.525V3.153H1.263V5.67ZM1.89.627a.606.606,0,0,0-.442.185.613.613,0,0,0-.185.45V2.517H2.525V1.263A.633.633,0,0,0,1.89.627Z" transform="translate(123.525 49.275)" fill="#0a0b09"/>
  <path id="Fill_480" data-name="Fill 480" d="M1.262,5.67V.627H0V0H3.78V.627H2.517V5.67H1.262" transform="translate(127.845 49.275)" fill="#0a0b09"/>
  <path id="Fill_481" data-name="Fill 481" d="M0,5.67V0H3.1V.627H1.244v1.89H2.487v.635H1.244v1.89H3.1V5.67H0" transform="translate(132.3 49.275)" fill="#0a0b09"/>
  <path id="Fill_482" data-name="Fill 482" d="M1.215,4.455H0V3.179H1.215V4.454Zm0-3.187H0V0H1.215V1.267Z" transform="translate(136.755 50.49)" fill="#0a0b09"/>
  <path id="Fill_483" data-name="Fill 483" d="M4.419,9.855H2.21A2.15,2.15,0,0,1,.655,9.212,2.106,2.106,0,0,1,0,7.661V2.194A2.106,2.106,0,0,1,.655.644,2.153,2.153,0,0,1,2.21,0h2.21A2.118,2.118,0,0,1,5.967.651a2.12,2.12,0,0,1,.648,1.544V7.661A2.12,2.12,0,0,1,5.967,9.2,2.118,2.118,0,0,1,4.419,9.855Zm0-5.913-2.183,3.9a1.14,1.14,0,0,0,.351.683,1.06,1.06,0,0,0,.721.237,1.114,1.114,0,0,0,1.112-1.1ZM3.308,1.091a1.065,1.065,0,0,0-.774.321,1.067,1.067,0,0,0-.324.782V5.913L4.405,2A1.065,1.065,0,0,0,3.308,1.091Z" transform="translate(145.53 45.09)" fill="#0a0b09"/>
  <path id="Fill_484" data-name="Fill 484" d="M1.111,2.194H0Q.265,0,2.209,0H4.419A2.11,2.11,0,0,1,5.967.65a2.114,2.114,0,0,1,.648,1.544v.539q0,1.143-2.13,2.957l-.146.118q-2.13,1.813-2.13,2.851v.105H6.615V9.855H0V8.764Q0,7.621,2.143,5.808l.146-.118q2.13-1.813,2.13-2.957V2.194a1.051,1.051,0,0,0-.331-.782,1.083,1.083,0,0,0-.781-.322h-1.1q-1.019,0-1.1,1.1" transform="translate(154.305 45.09)" fill="#0a0b09"/>
  <path id="Fill_485" data-name="Fill 485" d="M0,10.935,4.433,0h1.1L1.115,10.935H0" transform="translate(163.08 44.01)" fill="#0a0b09"/>
  <path id="Fill_486" data-name="Fill 486" d="M4.419,9.855H2.21A2.15,2.15,0,0,1,.655,9.212,2.106,2.106,0,0,1,0,7.661V2.194A2.106,2.106,0,0,1,.655.644,2.153,2.153,0,0,1,2.21,0h2.21A2.118,2.118,0,0,1,5.967.651a2.12,2.12,0,0,1,.648,1.544V7.661A2.12,2.12,0,0,1,5.967,9.2,2.118,2.118,0,0,1,4.419,9.855Zm0-5.913-2.183,3.9a1.14,1.14,0,0,0,.351.683,1.06,1.06,0,0,0,.721.237,1.114,1.114,0,0,0,1.112-1.1ZM3.308,1.091a1.065,1.065,0,0,0-.774.321,1.067,1.067,0,0,0-.324.782V5.913L4.405,2A1.065,1.065,0,0,0,3.308,1.091Z" transform="translate(170.775 45.09)" fill="#0a0b09"/>
  <path id="Fill_487" data-name="Fill 487" d="M1.076,9.855V2.194H0v-1.1L2.151,0H3.24V9.855H1.076" transform="translate(180.63 45.09)" fill="#0a0b09"/>
  <path id="Fill_488" data-name="Fill 488" d="M0,10.935,4.433,0h1.1L1.115,10.935H0" transform="translate(188.325 44.01)" fill="#0a0b09"/>
  <path id="Fill_489" data-name="Fill 489" d="M1.111,2.194H0Q.265,0,2.209,0H4.419A2.11,2.11,0,0,1,5.967.65a2.114,2.114,0,0,1,.648,1.544v.539q0,1.143-2.13,2.957l-.146.118q-2.13,1.813-2.13,2.851v.105H6.615V9.855H0V8.764Q0,7.621,2.143,5.808l.146-.118q2.13-1.813,2.13-2.957V2.194a1.051,1.051,0,0,0-.331-.782,1.083,1.083,0,0,0-.781-.322h-1.1q-1.019,0-1.1,1.1" transform="translate(195.885 45.09)" fill="#0a0b09"/>
  <path id="Fill_490" data-name="Fill 490" d="M4.419,9.855H2.21A2.15,2.15,0,0,1,.655,9.212,2.106,2.106,0,0,1,0,7.661V2.194A2.106,2.106,0,0,1,.655.644,2.153,2.153,0,0,1,2.21,0h2.21A2.118,2.118,0,0,1,5.967.651a2.12,2.12,0,0,1,.648,1.544V7.661A2.12,2.12,0,0,1,5.967,9.2,2.118,2.118,0,0,1,4.419,9.855Zm0-5.913-2.183,3.9a1.14,1.14,0,0,0,.351.683,1.06,1.06,0,0,0,.721.237,1.114,1.114,0,0,0,1.112-1.1ZM3.308,1.091a1.065,1.065,0,0,0-.774.321,1.067,1.067,0,0,0-.324.782V5.913L4.405,2A1.065,1.065,0,0,0,3.308,1.091Z" transform="translate(204.66 45.09)" fill="#0a0b09"/>
  <path id="Fill_491" data-name="Fill 491" d="M1.111,2.194H0Q.265,0,2.209,0H4.419A2.11,2.11,0,0,1,5.967.65a2.114,2.114,0,0,1,.648,1.544v.539q0,1.143-2.13,2.957l-.146.118q-2.13,1.813-2.13,2.851v.105H6.615V9.855H0V8.764Q0,7.621,2.143,5.808l.146-.118q2.13-1.813,2.13-2.957V2.194a1.051,1.051,0,0,0-.331-.782,1.082,1.082,0,0,0-.781-.322h-1.1q-1.019,0-1.1,1.1" transform="translate(213.435 45.09)" fill="#0a0b09"/>
  <path id="Fill_492" data-name="Fill 492" d="M4.419,9.855H2.21A2.15,2.15,0,0,1,.655,9.212,2.106,2.106,0,0,1,0,7.661V2.194A2.106,2.106,0,0,1,.655.644,2.153,2.153,0,0,1,2.21,0h2.21A2.12,2.12,0,0,1,5.967.651a2.12,2.12,0,0,1,.648,1.544V7.661A2.12,2.12,0,0,1,5.967,9.2,2.12,2.12,0,0,1,4.419,9.855Zm0-5.913-2.183,3.9a1.14,1.14,0,0,0,.351.683,1.06,1.06,0,0,0,.721.237,1.114,1.114,0,0,0,1.112-1.1ZM3.308,1.091a1.065,1.065,0,0,0-.774.321,1.067,1.067,0,0,0-.324.782V5.913L4.405,2A1.065,1.065,0,0,0,3.308,1.091Z" transform="translate(222.21 45.09)" fill="#0a0b09"/>
  <path id="Fill_493" data-name="Fill 493" d="M1.111,2.194H0Q.265,0,2.209,0H4.419A2.11,2.11,0,0,1,5.967.65a2.113,2.113,0,0,1,.648,1.544v.539q0,1.143-2.13,2.956l-.146.118q-2.13,1.813-2.13,2.851v.105H6.615V9.855H0V8.764Q0,7.621,2.143,5.808l.146-.118q2.13-1.813,2.13-2.956V2.194a1.052,1.052,0,0,0-.331-.782,1.083,1.083,0,0,0-.781-.322h-1.1q-1.019,0-1.1,1.1" transform="translate(217.755 116.91)" fill="#0a0b09"/>
  <path id="Fill_494" data-name="Fill 494" d="M1.076,9.855V2.194H0v-1.1L2.151,0H3.24V9.855H1.076" transform="translate(227.745 116.91)" fill="#0a0b09"/>
  <path id="Fill_495" data-name="Fill 495" d="M4.419,9.855H0V0H4.419A2.12,2.12,0,0,1,5.967.651a2.12,2.12,0,0,1,.648,1.544v.539a2.051,2.051,0,0,1-.549,1.517,2.741,2.741,0,0,1-1.647.677,2.025,2.025,0,0,1,1.647.663,2.342,2.342,0,0,1,.549,1.531v.539A2.12,2.12,0,0,1,5.967,9.2,2.12,2.12,0,0,1,4.419,9.855ZM2.21,5.479V8.764h1.1a1.114,1.114,0,0,0,1.112-1.1V6.57A.976.976,0,0,0,3.308,5.479Zm0-4.388V4.376h1.1A1.082,1.082,0,0,0,4.1,4.054a1.049,1.049,0,0,0,.324-.769V2.194A1.067,1.067,0,0,0,4.1,1.412a1.084,1.084,0,0,0-.788-.321Z" transform="translate(235.305 116.91)" fill="#0a0b09"/>
  <path id="Fill_496" data-name="Fill 496" d="M1.076,9.855V2.194H0v-1.1L2.151,0H3.24V9.855H1.076" transform="translate(178.875 116.91)" fill="#0a0b09"/>
  <path id="Fill_497" data-name="Fill 497" d="M1.111,2.194H0Q.264,0,2.209,0H4.419A2.11,2.11,0,0,1,5.967.65a2.113,2.113,0,0,1,.648,1.544v.539q0,1.143-2.13,2.956l-.146.118q-2.13,1.813-2.13,2.851v.105H6.615V9.855H0V8.764Q0,7.621,2.143,5.808l.146-.118q2.13-1.813,2.13-2.956V2.194a1.051,1.051,0,0,0-.331-.782,1.083,1.083,0,0,0-.781-.322h-1.1q-1.019,0-1.1,1.1" transform="translate(186.435 116.91)" fill="#0a0b09"/>
  <path id="Fill_498" data-name="Fill 498" d="M0,0H6.615V1.091L3.307,3.285H4.419a1.987,1.987,0,0,1,1.574.723,2.253,2.253,0,0,1,.622,1.472V7.661a2.107,2.107,0,0,1-.648,1.551,2.12,2.12,0,0,1-1.548.644H2.209Q.265,9.855,0,7.661H1.111q.079,1.1,1.1,1.1h1.1a1.075,1.075,0,0,0,.787-.322,1.061,1.061,0,0,0,.324-.782V5.479A1.361,1.361,0,0,0,4.141,4.8a.932.932,0,0,0-.833-.421h-2.2V3.285L4.419,1.091H0V0" transform="translate(195.21 116.91)" fill="#0a0b09"/>
  <path id="Fill_499" data-name="Fill 499" d="M1.076,9.855V2.194H0v-1.1L2.151,0H3.24V9.855H1.076" transform="translate(124.335 116.91)" fill="#0a0b09"/>
  <path id="Fill_500" data-name="Fill 500" d="M4.419,9.855H2.21A2.019,2.019,0,0,1,.642,9.126,2.242,2.242,0,0,1,0,7.661V7.122A2.391,2.391,0,0,1,.555,5.637,1.983,1.983,0,0,1,2.21,4.928,2.775,2.775,0,0,1,.555,4.251,2.04,2.04,0,0,1,0,2.733V2.194A2.109,2.109,0,0,1,.655.651,2.139,2.139,0,0,1,2.21,0h2.21A2.118,2.118,0,0,1,5.967.651a2.12,2.12,0,0,1,.648,1.544v.539a2.054,2.054,0,0,1-.549,1.517,2.741,2.741,0,0,1-1.647.677,1.963,1.963,0,0,1,1.647.709,2.41,2.41,0,0,1,.549,1.485v.539A2.25,2.25,0,0,1,5.98,9.126,2,2,0,0,1,4.419,9.855ZM3.308,5.479A.97.97,0,0,0,2.21,6.57V7.661a1.1,1.1,0,0,0,1.1,1.1A1.084,1.084,0,0,0,4.1,8.443a1.067,1.067,0,0,0,.324-.782V6.57A.976.976,0,0,0,3.308,5.479Zm0-4.388a1.065,1.065,0,0,0-.774.321,1.067,1.067,0,0,0-.324.782V3.285a1.049,1.049,0,0,0,.324.769,1.063,1.063,0,0,0,.774.322A1.082,1.082,0,0,0,4.1,4.054a1.049,1.049,0,0,0,.324-.769V2.194A1.067,1.067,0,0,0,4.1,1.412,1.084,1.084,0,0,0,3.308,1.091Z" transform="translate(132.03 116.91)" fill="#0a0b09"/>
  <path id="Fill_501" data-name="Fill 501" d="M2.16,7.7H0v-2.2H2.16v2.2Zm0-5.5H0V0H2.16V2.19Z" transform="translate(140.805 119.205)" fill="#0a0b09"/>
  <path id="Fill_502" data-name="Fill 502" d="M6.6,9.855H4.4V6.57H0V5.479L4.4,0H6.6V5.479H7.7V6.57H6.6V9.854ZM4.4,1.366,1.1,5.479H4.4Z" transform="translate(144.045 116.91)" fill="#0a0b09"/>
  <path id="Fill_503" data-name="Fill 503" d="M0,0H6.615V1.091H2.209V3.285H4.419a2.121,2.121,0,0,1,1.548.644,2.107,2.107,0,0,1,.648,1.551V7.661a2.107,2.107,0,0,1-.648,1.551,2.12,2.12,0,0,1-1.548.644H2.209Q.265,9.855,0,7.661H1.111q.079,1.1,1.1,1.1h1.1a1.075,1.075,0,0,0,.787-.322,1.061,1.061,0,0,0,.324-.782V5.479A1.061,1.061,0,0,0,4.095,4.7a1.076,1.076,0,0,0-.787-.322H0V0" transform="translate(153.9 116.91)" fill="#0a0b09"/>
  <path id="Fill_504" data-name="Fill 504" d="M1.89,2.518H3.78v1.89a1.131,1.131,0,0,1-.4.949,1.362,1.362,0,0,1-.854.314H1.262A1.22,1.22,0,0,1,.374,5.3,1.21,1.21,0,0,1,0,4.407V1.262A1.225,1.225,0,0,1,.367.374,1.206,1.206,0,0,1,1.262,0H2.525Q3.712,0,3.78,1.262H3.153Q3.077.627,2.525.627H1.89a.6.6,0,0,0-.442.185.612.612,0,0,0-.185.45V4.407a.612.612,0,0,0,.185.45.6.6,0,0,0,.442.185.6.6,0,0,0,.635-.635V3.152H1.89V2.518" transform="translate(181.845 102.87)" fill="#0a0b09"/>
  <path id="Fill_505" data-name="Fill 505" d="M1.263,5.671H0V1.263A1.214,1.214,0,0,1,.374.371,1.223,1.223,0,0,1,1.263,0H2.525a1.205,1.205,0,0,1,.884.374,1.223,1.223,0,0,1,.371.888V5.669H2.525V3.153H1.263V5.67ZM1.89.627a.606.606,0,0,0-.442.185.613.613,0,0,0-.185.45V2.517H2.525V1.263A.633.633,0,0,0,1.89.627Z" transform="translate(186.84 102.87)" fill="#0a0b09"/>
  <path id="Fill_506" data-name="Fill 506" d="M1.262,5.67V.627H0V0H3.78V.627H2.517V5.67H1.262" transform="translate(191.295 102.87)" fill="#0a0b09"/>
  <path id="Fill_507" data-name="Fill 507" d="M0,5.67V0H3.1V.627H1.244v1.89H2.487v.635H1.244v1.89H3.1V5.67H0" transform="translate(195.75 102.87)" fill="#0a0b09"/>
  <path id="Fill_508" data-name="Fill 508" d="M2.525,5.67H0V0H2.525a1.205,1.205,0,0,1,.884.374,1.223,1.223,0,0,1,.371.888v.31a1.182,1.182,0,0,1-.314.873,1.557,1.557,0,0,1-.941.39,1.151,1.151,0,0,1,.941.382A1.352,1.352,0,0,1,3.78,4.1v.31a1.223,1.223,0,0,1-.371.888A1.205,1.205,0,0,1,2.525,5.67ZM1.263,3.153v1.89H1.89a.611.611,0,0,0,.45-.189.62.62,0,0,0,.185-.446V3.78a.56.56,0,0,0-.635-.627Zm0-2.525v1.89H1.89a.633.633,0,0,0,.635-.627V1.263A.633.633,0,0,0,1.89.627Z" transform="translate(123.12 102.87)" fill="#0a0b09"/>
  <path id="Fill_509" data-name="Fill 509" d="M2.525,5.67H1.263A1.223,1.223,0,0,1,.374,5.3,1.214,1.214,0,0,1,0,4.407V1.263A1.214,1.214,0,0,1,.374.371,1.223,1.223,0,0,1,1.263,0H2.525a1.205,1.205,0,0,1,.884.374,1.223,1.223,0,0,1,.371.888V4.407a1.223,1.223,0,0,1-.371.888A1.205,1.205,0,0,1,2.525,5.67ZM1.89.627a.606.606,0,0,0-.442.185.613.613,0,0,0-.185.45V4.407a.617.617,0,0,0,.185.446.6.6,0,0,0,.442.189.611.611,0,0,0,.45-.189.62.62,0,0,0,.185-.446V1.263A.633.633,0,0,0,1.89.627Z" transform="translate(128.25 102.87)" fill="#0a0b09"/>
  <path id="Fill_510" data-name="Fill 510" d="M1.263,5.671H0V1.263A1.214,1.214,0,0,1,.374.371,1.223,1.223,0,0,1,1.263,0H2.525a1.205,1.205,0,0,1,.884.374,1.223,1.223,0,0,1,.371.888V5.669H2.525V3.153H1.263V5.67ZM1.89.627a.606.606,0,0,0-.442.185.613.613,0,0,0-.185.45V2.517H2.525V1.263A.633.633,0,0,0,1.89.627Z" transform="translate(133.245 102.87)" fill="#0a0b09"/>
  <path id="Fill_511" data-name="Fill 511" d="M1.263,5.671H0V0H2.525a1.205,1.205,0,0,1,.884.374,1.223,1.223,0,0,1,.371.888V1.6a1.357,1.357,0,0,1-.287.813,1.13,1.13,0,0,1-.968.389h.627a.606.606,0,0,1,.442.185.615.615,0,0,1,.185.45V5.669H2.525V3.78a.606.606,0,0,0-.185-.442.613.613,0,0,0-.45-.185H1.263V5.67Zm0-5.044v1.89H1.89a.613.613,0,0,0,.45-.185.606.606,0,0,0,.185-.442V1.263A.633.633,0,0,0,1.89.627Z" transform="translate(138.375 102.87)" fill="#0a0b09"/>
  <path id="Fill_512" data-name="Fill 512" d="M2.525,5.67H0V0H2.525a1.205,1.205,0,0,1,.884.374,1.223,1.223,0,0,1,.371.888V4.407a1.223,1.223,0,0,1-.371.888A1.205,1.205,0,0,1,2.525,5.67ZM1.263.627V5.043H1.89a.611.611,0,0,0,.45-.189.62.62,0,0,0,.185-.446V1.263A.633.633,0,0,0,1.89.627Z" transform="translate(143.37 102.87)" fill="#0a0b09"/>
  <path id="Fill_513" data-name="Fill 513" d="M0,5.67H1.215V0H0Z" transform="translate(149.04 102.87)" fill="#0a0b09"/>
  <path id="Fill_514" data-name="Fill 514" d="M0,5.67V0H.3L3.814,3.152V0h.641V5.67h-.29L.641,2.518V5.67H0" transform="translate(152.28 102.87)" fill="#0a0b09"/>
  <path id="Fill_515" data-name="Fill 515" d="M1.89,2.518H3.78v1.89a1.131,1.131,0,0,1-.4.949,1.362,1.362,0,0,1-.854.314H1.263A1.22,1.22,0,0,1,.374,5.3,1.211,1.211,0,0,1,0,4.407V1.262A1.225,1.225,0,0,1,.367.374,1.206,1.206,0,0,1,1.263,0H2.525Q3.712,0,3.78,1.262H3.153Q3.077.627,2.525.627H1.89a.6.6,0,0,0-.442.185.612.612,0,0,0-.185.45V4.407a.612.612,0,0,0,.185.45.6.6,0,0,0,.442.185.6.6,0,0,0,.635-.635V3.152H1.89V2.518" transform="translate(157.95 102.87)" fill="#0a0b09"/>
  <path id="Fill_516" data-name="Fill 516" d="M3.1,1.262H2.487Q2.4.627,1.9.627a.681.681,0,0,0-.491.159.635.635,0,0,0-.164.476.683.683,0,0,0,.179.446l1.318,1.5A1.331,1.331,0,0,1,3.1,4.1v.31A1.229,1.229,0,0,1,2.74,5.3a1.183,1.183,0,0,1-.879.374H1.243a1.26,1.26,0,0,1-.931-.314A1.293,1.293,0,0,1,0,4.407H.625v.106a.451.451,0,0,0,.194.393.723.723,0,0,0,.424.136.605.605,0,0,0,.473-.163.687.687,0,0,0,.145-.472.663.663,0,0,0-.179-.446L.365,2.465A1.312,1.312,0,0,1,0,1.572v-.31A1.229,1.229,0,0,1,.365.374,1.183,1.183,0,0,1,1.243,0h.618Q3.031,0,3.1,1.262" transform="translate(221.4 102.87)" fill="#0a0b09"/>
  <path id="Fill_517" data-name="Fill 517" d="M0,5.67V0H3.1V.627H1.244v1.89H2.487v.635H1.244v1.89H3.1V5.67H0" transform="translate(225.855 102.87)" fill="#0a0b09"/>
  <path id="Fill_518" data-name="Fill 518" d="M1.263,5.671H0V1.263A1.214,1.214,0,0,1,.374.371,1.223,1.223,0,0,1,1.263,0H2.525a1.205,1.205,0,0,1,.884.374,1.223,1.223,0,0,1,.371.888V5.669H2.525V3.153H1.263V5.67ZM1.89.627a.606.606,0,0,0-.442.185.613.613,0,0,0-.185.45V2.517H2.525V1.263A.633.633,0,0,0,1.89.627Z" transform="translate(230.175 102.87)" fill="#0a0b09"/>
  <path id="Fill_519" data-name="Fill 519" d="M1.263,5.67V.627H0V0H3.78V.627H2.517V5.67H1.263" transform="translate(234.63 102.87)" fill="#0a0b09"/>
  <path id="Fill_520" data-name="Fill 520" d="M0,40.635H40.635V0H0Z" transform="translate(296.595 95.31)" fill="#fffffe"/>
  <path id="Fill_521" data-name="Fill 521" d="M41.038,41.445H.407A.407.407,0,0,1,0,41.038V.407A.407.407,0,0,1,.407,0H41.038a.407.407,0,0,1,.407.407V41.038A.407.407,0,0,1,41.038,41.445ZM.814.814V40.631H40.631V.814Z" transform="translate(296.19 94.905)" fill="#217875"/>
  <path id="Fill_522" data-name="Fill 522" d="M1.111,2.194H0Q.265,0,2.209,0H4.419A2.11,2.11,0,0,1,5.967.65a2.113,2.113,0,0,1,.648,1.544v.539q0,1.143-2.13,2.956l-.146.118q-2.13,1.813-2.13,2.851v.105H6.615V9.855H0V8.764Q0,7.621,2.143,5.808l.146-.118q2.13-1.813,2.13-2.956V2.194a1.052,1.052,0,0,0-.331-.782,1.083,1.083,0,0,0-.781-.322h-1.1q-1.019,0-1.1,1.1" transform="translate(304.83 116.91)" fill="#0a0b09"/>
  <path id="Fill_523" data-name="Fill 523" d="M1.076,9.855V2.194H0v-1.1L2.151,0H3.24V9.855H1.076" transform="translate(314.685 116.91)" fill="#0a0b09"/>
  <path id="Fill_524" data-name="Fill 524" d="M4.419,9.855H0V0H4.419A2.12,2.12,0,0,1,5.967.651a2.12,2.12,0,0,1,.648,1.544v.539a2.054,2.054,0,0,1-.549,1.517,2.741,2.741,0,0,1-1.647.677,2.025,2.025,0,0,1,1.647.663,2.346,2.346,0,0,1,.549,1.531v.539A2.12,2.12,0,0,1,5.967,9.2,2.12,2.12,0,0,1,4.419,9.855ZM2.21,5.479V8.764h1.1a1.114,1.114,0,0,0,1.112-1.1V6.57A.976.976,0,0,0,3.308,5.479Zm0-4.388V4.376h1.1A1.082,1.082,0,0,0,4.1,4.054a1.049,1.049,0,0,0,.324-.769V2.194A1.067,1.067,0,0,0,4.1,1.412a1.084,1.084,0,0,0-.788-.321Z" transform="translate(322.38 116.91)" fill="#0a0b09"/>
  <path id="Fill_525" data-name="Fill 525" d="M3.1,1.262H2.487Q2.4.627,1.9.627a.681.681,0,0,0-.491.159.635.635,0,0,0-.164.476.683.683,0,0,0,.179.446l1.318,1.5A1.331,1.331,0,0,1,3.1,4.1v.31A1.229,1.229,0,0,1,2.74,5.3a1.183,1.183,0,0,1-.879.374H1.243a1.26,1.26,0,0,1-.931-.314A1.292,1.292,0,0,1,0,4.407H.625v.106a.451.451,0,0,0,.194.393.723.723,0,0,0,.424.136.605.605,0,0,0,.473-.163.687.687,0,0,0,.145-.472.663.663,0,0,0-.179-.446L.365,2.465A1.312,1.312,0,0,1,0,1.572v-.31A1.228,1.228,0,0,1,.365.374,1.182,1.182,0,0,1,1.243,0h.618Q3.03,0,3.1,1.262" transform="translate(308.745 102.87)" fill="#0a0b09"/>
  <path id="Fill_526" data-name="Fill 526" d="M0,5.67V0H3.1V.627H1.243v1.89H2.487v.635H1.243v1.89H3.1V5.67H0" transform="translate(313.065 102.87)" fill="#0a0b09"/>
  <path id="Fill_527" data-name="Fill 527" d="M1.263,5.671H0V1.263A1.214,1.214,0,0,1,.374.371,1.223,1.223,0,0,1,1.263,0H2.525a1.205,1.205,0,0,1,.884.374,1.223,1.223,0,0,1,.371.888V5.669H2.525V3.153H1.263V5.67ZM1.89.627a.606.606,0,0,0-.442.185.613.613,0,0,0-.185.45V2.517H2.525V1.263A.633.633,0,0,0,1.89.627Z" transform="translate(317.52 102.87)" fill="#0a0b09"/>
  <path id="Fill_528" data-name="Fill 528" d="M1.262,5.67V.627H0V0H3.78V.627H2.518V5.67H1.262" transform="translate(321.975 102.87)" fill="#0a0b09"/>
  <path id="Fill_529" data-name="Fill 529" d="M0,40.635H40.635V0H0Z" transform="translate(346.275 95.31)" fill="#fffffe"/>
  <path id="Fill_530" data-name="Fill 530" d="M41.038,41.445H.407A.407.407,0,0,1,0,41.038V.407A.407.407,0,0,1,.407,0H41.038a.407.407,0,0,1,.407.407V41.038A.407.407,0,0,1,41.038,41.445ZM.814.814V40.631H40.631V.814Z" transform="translate(345.87 94.905)" fill="#217875"/>
  <path id="Fill_531" data-name="Fill 531" d="M1.076,9.855V2.194H0v-1.1L2.151,0H3.24V9.855H1.076" transform="translate(348.435 116.91)" fill="#0a0b09"/>
  <path id="Fill_532" data-name="Fill 532" d="M2.765,9.855H1.112V8.764h1.1a2.136,2.136,0,0,0,1.562-.651A2.12,2.12,0,0,0,4.419,6.57V5.479C4.331,6.2,3.957,6.57,3.308,6.57H2.21A2.148,2.148,0,0,1,.655,5.926,2.1,2.1,0,0,1,0,4.376V2.194A2.109,2.109,0,0,1,.655.651,2.139,2.139,0,0,1,2.21,0h2.21A2.12,2.12,0,0,1,5.967.651a2.12,2.12,0,0,1,.648,1.544V6.018A3.706,3.706,0,0,1,5.484,8.725,3.723,3.723,0,0,1,2.765,9.855Zm.543-8.764a1.055,1.055,0,0,0-.774.328,1.071,1.071,0,0,0-.324.775V4.376a1.071,1.071,0,0,0,.324.775,1.055,1.055,0,0,0,.774.329,1.114,1.114,0,0,0,1.112-1.1V2.194A1.067,1.067,0,0,0,4.1,1.412,1.084,1.084,0,0,0,3.308,1.091Z" transform="translate(356.13 116.91)" fill="#0a0b09"/>
  <path id="Fill_533" data-name="Fill 533" d="M2.16,7.7H0v-2.2H2.16v2.2Zm0-5.5H0V0H2.16V2.19Z" transform="translate(364.905 119.205)" fill="#0a0b09"/>
  <path id="Fill_534" data-name="Fill 534" d="M0,0H6.615V1.091L3.308,3.285H4.419a1.988,1.988,0,0,1,1.574.723,2.253,2.253,0,0,1,.622,1.472V7.661a2.107,2.107,0,0,1-.648,1.551,2.12,2.12,0,0,1-1.548.644H2.209Q.265,9.855,0,7.661H1.111q.079,1.1,1.1,1.1h1.1a1.075,1.075,0,0,0,.787-.322,1.061,1.061,0,0,0,.324-.782V5.479A1.361,1.361,0,0,0,4.141,4.8a.933.933,0,0,0-.833-.421h-2.2V3.285L4.419,1.091H0V0" transform="translate(369.225 116.91)" fill="#0a0b09"/>
  <path id="Fill_535" data-name="Fill 535" d="M4.419,9.855H2.21A2.15,2.15,0,0,1,.655,9.212,2.106,2.106,0,0,1,0,7.661V2.194A2.106,2.106,0,0,1,.655.644,2.153,2.153,0,0,1,2.21,0h2.21A2.12,2.12,0,0,1,5.967.651a2.12,2.12,0,0,1,.648,1.544V7.661A2.12,2.12,0,0,1,5.967,9.2,2.12,2.12,0,0,1,4.419,9.855Zm0-5.913-2.183,3.9a1.14,1.14,0,0,0,.351.683,1.06,1.06,0,0,0,.721.237,1.114,1.114,0,0,0,1.112-1.1ZM3.308,1.091a1.065,1.065,0,0,0-.774.321,1.067,1.067,0,0,0-.324.782V5.913L4.405,2A1.065,1.065,0,0,0,3.308,1.091Z" transform="translate(378 116.91)" fill="#0a0b09"/>
  <path id="Fill_536" data-name="Fill 536" d="M1.262,5.67V.627H0V0H3.78V.627H2.517V5.67H1.262" transform="translate(356.805 102.87)" fill="#0a0b09"/>
  <path id="Fill_537" data-name="Fill 537" d="M0,5.67H1.215V0H0Z" transform="translate(361.8 102.87)" fill="#0a0b09"/>
  <path id="Fill_538" data-name="Fill 538" d="M0,5.67V0H.3L3.005,2.684,5.706,0h.639V5.67H5.075V2.208L2.853,4.415.639,2.208V5.67H0" transform="translate(365.04 102.87)" fill="#0a0b09"/>
  <path id="Fill_539" data-name="Fill 539" d="M0,5.67V0H3.1V.627H1.244v1.89H2.487v.635H1.244v1.89H3.1V5.67H0" transform="translate(372.6 102.87)" fill="#0a0b09"/>
  <path id="Fill_540" data-name="Fill 540" d="M1.076,9.855V2.194H0v-1.1L2.151,0H3.24V9.855H1.076" transform="translate(146.745 72.765)" fill="#0a0b09"/>
  <path id="Fill_541" data-name="Fill 541" d="M2.765,9.855H1.112V8.764h1.1a2.136,2.136,0,0,0,1.562-.651A2.12,2.12,0,0,0,4.419,6.57V5.479C4.331,6.2,3.957,6.57,3.308,6.57H2.21A2.15,2.15,0,0,1,.655,5.927,2.106,2.106,0,0,1,0,4.376V2.194A2.109,2.109,0,0,1,.655.651,2.139,2.139,0,0,1,2.21,0h2.21A2.118,2.118,0,0,1,5.967.651a2.12,2.12,0,0,1,.648,1.544V6.018A3.706,3.706,0,0,1,5.484,8.725,3.723,3.723,0,0,1,2.765,9.855Zm.543-8.764a1.055,1.055,0,0,0-.774.328,1.071,1.071,0,0,0-.324.775V4.376a1.071,1.071,0,0,0,.324.775,1.052,1.052,0,0,0,.774.329,1.114,1.114,0,0,0,1.112-1.1V2.194A1.067,1.067,0,0,0,4.1,1.412,1.084,1.084,0,0,0,3.308,1.091Z" transform="translate(154.305 72.765)" fill="#0a0b09"/>
  <path id="Fill_542" data-name="Fill 542" d="M2.16,7.7H0v-2.2H2.16v2.2Zm0-5.5H0V0H2.16V2.19Z" transform="translate(163.215 74.925)" fill="#0a0b09"/>
  <path id="Fill_543" data-name="Fill 543" d="M0,0H6.615V1.091L3.307,3.285H4.419a1.988,1.988,0,0,1,1.574.723,2.253,2.253,0,0,1,.622,1.472V7.661a2.107,2.107,0,0,1-.648,1.551,2.12,2.12,0,0,1-1.548.644H2.209Q.265,9.855,0,7.661H1.111q.079,1.1,1.1,1.1h1.1a1.075,1.075,0,0,0,.787-.322,1.061,1.061,0,0,0,.324-.782V5.479A1.361,1.361,0,0,0,4.141,4.8a.932.932,0,0,0-.833-.42h-2.2V3.285L4.419,1.091H0V0" transform="translate(167.535 72.765)" fill="#0a0b09"/>
  <path id="Fill_544" data-name="Fill 544" d="M4.419,9.855H2.21A2.15,2.15,0,0,1,.655,9.212,2.106,2.106,0,0,1,0,7.661V2.194A2.106,2.106,0,0,1,.655.644,2.153,2.153,0,0,1,2.21,0h2.21A2.12,2.12,0,0,1,5.967.651a2.12,2.12,0,0,1,.648,1.544V7.661A2.12,2.12,0,0,1,5.967,9.2,2.12,2.12,0,0,1,4.419,9.855Zm0-5.913-2.183,3.9a1.14,1.14,0,0,0,.351.683,1.06,1.06,0,0,0,.721.237,1.114,1.114,0,0,0,1.112-1.1ZM3.308,1.091a1.065,1.065,0,0,0-.774.321,1.067,1.067,0,0,0-.324.782V5.913L4.405,2A1.065,1.065,0,0,0,3.308,1.091Z" transform="translate(176.175 72.765)" fill="#0a0b09"/>
  <path id="Fill_545" data-name="Fill 545" d="M1.263,5.67V.627H0V0H3.78V.627H2.517V5.67H1.263" transform="translate(117.72 76.95)" fill="#0a0b09"/>
  <path id="Fill_546" data-name="Fill 546" d="M0,5.67H1.215V0H0Z" transform="translate(122.85 76.95)" fill="#0a0b09"/>
  <path id="Fill_547" data-name="Fill 547" d="M0,5.67V0H.3L3.005,2.684,5.706,0h.639V5.67H5.074V2.208L2.853,4.415.639,2.208V5.67H0" transform="translate(125.955 76.95)" fill="#0a0b09"/>
  <path id="Fill_548" data-name="Fill 548" d="M0,5.67V0H3.1V.627H1.244v1.89H2.487v.635H1.244v1.89H3.1V5.67H0" transform="translate(133.65 76.95)" fill="#0a0b09"/>
  <path id="Fill_549" data-name="Fill 549" d="M1.215,4.455H0V3.179H1.215V4.454Zm0-3.187H0V0H1.215V1.267Z" transform="translate(137.97 78.165)" fill="#0a0b09"/>
  <path id="Fill_550" data-name="Fill 550" d="M0,.4H112.86V0H0Z" transform="translate(118.935 58.05)" fill="#0a0b09"/>
  <path id="Fill_551" data-name="Fill 551" d="M0,.4H112.86V0H0Z" transform="translate(118.935 86.265)" fill="#0a0b09"/>
  <g id="Group" transform="translate(18.495 5.67)">
    <path id="Fill_552" data-name="Fill 552" d="M15.93,7.965A7.965,7.965,0,1,0,7.965,15.93,7.965,7.965,0,0,0,15.93,7.965" fill="#f9f9f7"/>
    <path id="Fill_553" data-name="Fill 553" d="M15.626,4.128a7.99,7.99,0,0,0,.169-1.376C13.288,1.98,11.255.846,8.4.23a16.565,16.565,0,0,0-8.283.863A7.991,7.991,0,0,0,0,2.431a7.933,7.933,0,0,0,.479,2.7A44.425,44.425,0,0,1,7.517,3.173c1.469-.193,4.928.346,8.109.955" transform="translate(0 5.535)" fill="#fffffe"/>
    <path id="Fill_554" data-name="Fill 554" d="M7.046,2.992a29.907,29.907,0,0,1,4.1,1.6,7.857,7.857,0,0,0,2.891-2.9A16.21,16.21,0,0,0,6.571.025,47.24,47.24,0,0,0,0,1.272,7.729,7.729,0,0,0,.934,2.739a27.4,27.4,0,0,1,6.113.254" transform="translate(0.81 10.125)" fill="#fffffe"/>
  </g>
  <g id="Medius-logo-CMYK" transform="translate(17.685 5.13)">
    <path id="Fill_1" data-name="Fill 1" d="M1.393.623H0V.208H3.265V1.246A3.31,3.31,0,0,1,5.948,0,2.745,2.745,0,0,1,7.633.5a1.388,1.388,0,0,1,.582.872A3.27,3.27,0,0,1,11.064,0a2.534,2.534,0,0,1,2,.789,3.317,3.317,0,0,1,.417,2.056V7.955H14.85V8.37H10.358V7.955h1.248V2.845c0-1.392-.042-1.641-.333-1.932a1.189,1.189,0,0,0-.831-.291A2,2,0,0,0,8.715,1.661c-.353.685-.353.81-.353,4.05V7.955H9.609V8.37H5.241V7.955H6.489V2.845a3.465,3.465,0,0,0-.229-1.7A1.128,1.128,0,0,0,5.3.685,1.918,1.918,0,0,0,3.619,1.7c-.27.56-.353,1.62-.353,4.008V7.955H4.513V8.37H0V7.955H1.393V.623" transform="translate(22.342 6.142)" fill="#fff"/>
    <path id="Fill_2" data-name="Fill 2" d="M4.02,8.505A4.255,4.255,0,0,1,0,4.243,4.2,4.2,0,0,1,3.916,0a3.636,3.636,0,0,1,3.1,1.669A3.5,3.5,0,0,1,7.56,3.584H2.166v.6c0,2.035.041,2.47.271,2.9a1.792,1.792,0,0,0,1.707.947,2.891,2.891,0,0,0,2.77-2.451h.5A3.483,3.483,0,0,1,4.02,8.505ZM3.894.473a1.618,1.618,0,0,0-1.5.742c-.229.411-.229.411-.229,1.957H5.394a4.485,4.485,0,0,0-.167-1.9A1.306,1.306,0,0,0,3.894.473Z" transform="translate(37.867 6.142)" fill="#fff"/>
    <path id="Fill_3" data-name="Fill 3" d="M3.489,12.15a3.161,3.161,0,0,1-2.461-1.282A4.911,4.911,0,0,1,0,7.8C0,5.43,1.546,3.5,3.447,3.5A2.752,2.752,0,0,1,5.919,5.2L5.639.419H4.247V0h3.26l.281,11.523H9.18v.418H5.919V10.35A2.559,2.559,0,0,1,3.489,12.15Zm.186-8.164a1.388,1.388,0,0,0-1.121.649c-.255.429-.332,1.236-.332,3.454,0,1.9.039,2.341.248,2.764a1.413,1.413,0,0,0,1.226.815C4.94,11.668,5.877,10,5.877,7.8,5.877,5.624,4.931,3.986,3.676,3.986Z" transform="translate(46.642 2.632)" fill="#fff"/>
    <path id="Fill_4" data-name="Fill 4" d="M1.379.412H0V0H3.232V7.688H4.59V8.1H0V7.688H1.379V.412" transform="translate(56.902 6.412)" fill="#fff"/>
    <g id="Group_9" data-name="Group 9" transform="translate(0.067 0.067)">
      <path id="Clip_6-2" data-name="Clip 6" d="M0,0H78.494V18.069H0Z" transform="translate(0.027 0.021)" fill="none"/>
      <g id="Group_9-2" data-name="Group 9" clip-path="url(#clip-path)">
        <path id="Fill_5" data-name="Fill 5" d="M8.815,7.765H10.19v.416H6.939V7.036A2.975,2.975,0,0,1,4.21,8.389,3.035,3.035,0,0,1,2.042,7.64C1.5,7.119,1.4,6.6,1.4,4.85V.416H0V0H3.271V4.85c0,2.04.042,2.415.292,2.707a1.4,1.4,0,0,0,1.042.353,2.157,2.157,0,0,0,1.813-.957c.416-.666.521-1.353.521-3.622V.416h-1.4V0H8.815V7.765" transform="translate(61.509 6.222)" fill="#fff"/>
        <path id="Fill_7" data-name="Fill 7" d="M5.272,2.56H4.959A2.35,2.35,0,0,0,2.583.479,1.639,1.639,0,0,0,.792,1.936c0,.625.437.9,2.042,1.166A3.4,3.4,0,0,1,5.1,4.1a2.66,2.66,0,0,1,.542,1.707A2.663,2.663,0,0,1,2.98,8.6,3.182,3.182,0,0,1,.792,7.723l-.5.666H.062L0,5.267H.291a5.851,5.851,0,0,0,.75,1.852A2.38,2.38,0,0,0,3,8.118,1.716,1.716,0,0,0,4.875,6.536c0-.791-.48-1.1-1.959-1.352A3.457,3.457,0,0,1,.708,4.33,2.67,2.67,0,0,1,.083,2.539,2.431,2.431,0,0,1,2.542,0,2.983,2.983,0,0,1,4.563.77L4.9.1h.312L5.272,2.56" transform="translate(72.875 6.014)" fill="#fff"/>
        <path id="Fill_8" data-name="Fill 8" d="M9.043,18.069a9.035,9.035,0,1,1,9.044-9.034A9.049,9.049,0,0,1,9.043,18.069Zm0-16.141a7.1,7.1,0,1,0,7.108,7.1A7.113,7.113,0,0,0,9.042,1.929Z" transform="translate(0 0.021)" fill="#0b0b09"/>
      </g>
    </g>
    <path id="Fill_10" data-name="Fill 10" d="M8.1,3.983A4.017,4.017,0,0,1,4.05,7.965,4.017,4.017,0,0,1,0,3.983,4.017,4.017,0,0,1,4.05,0,4.017,4.017,0,0,1,8.1,3.983" transform="translate(5.197 5.197)" fill="#d8232a"/>
  </g>
  <text id="Present" transform="translate(19.17 90)" font-size="8.1" font-family="SegoeUI, Segoe UI"><tspan x="0" y="0">Present</tspan></text>
  <text id="Future" transform="translate(19.17 117)" font-size="8.1" font-family="SegoeUI, Segoe UI"><tspan x="0" y="0">Future</tspan></text>
  <text id="ONBOARDING" transform="translate(299.16 19.695)" fill="#fffffe" font-size="11.475" font-family="SegoeUI, Segoe UI"><tspan x="0" y="0">ONBOARDING</tspan></text>
</svg>
