<svg width="16" height="16" viewBox="0 0 16 16" fill="none" xmlns="http://www.w3.org/2000/svg">
<path fill-rule="evenodd" clip-rule="evenodd" d="M14.62 10.75C13.588 10.75 12.47 10.578 11.524 10.234H11.266C11.008 10.234 10.836 10.32 10.664 10.492L8.772 12.384C6.364 11.094 4.3 9.116 3.096 6.708L4.988 4.816C5.246 4.558 5.332 4.214 5.16 3.956C4.902 3.01 4.73 1.892 4.73 0.86C4.73 0.43 4.3 0 3.87 0H0.86C0.43 0 0 0.43 0 0.86C0 8.944 6.536 15.48 14.62 15.48C15.05 15.48 15.48 15.05 15.48 14.62V11.61C15.48 11.18 15.05 10.75 14.62 10.75ZM1.72 1.72H3.01C3.096 2.494 3.268 3.268 3.44 3.956L2.408 4.988C2.064 3.956 1.806 2.838 1.72 1.72ZM10.492 13.072C11.524 13.416 12.642 13.674 13.76 13.76V12.384C12.986 12.384 12.212 12.212 11.524 12.04L10.492 13.072Z" fill="#6F6F6F"/>
</svg>
