<svg width="20" height="15" viewBox="0 0 20 15" fill="none" xmlns="http://www.w3.org/2000/svg">
<path fill-rule="evenodd" clip-rule="evenodd" d="M18.3333 0H1.66667C0.746192 0 0 0.746192 0 1.66667V13.3333C0 14.2538 0.746192 15 1.66667 15H18.3333C19.2538 15 20 14.2538 20 13.3333V1.66667C20 0.746192 19.2538 0 18.3333 0ZM17.5 4.16667V3.33333L15 5L12.5 3.33333V4.16667L15 5.83333L17.5 4.16667ZM9.16667 5C9.16667 3.61929 8.04738 2.5 6.66667 2.5C5.28595 2.5 4.16667 3.61929 4.16667 5C4.16667 6.38071 5.28595 7.5 6.66667 7.5C8.04738 7.5 9.16667 6.38071 9.16667 5ZM1.66667 12.5V11.6667C1.66667 10 5 9.08333 6.66667 9.08333C8.33333 9.08333 11.6667 10 11.6667 11.6667V12.5H1.66667ZM11.6667 7.5H18.3333V2.5H11.6667V7.5Z" fill="#C2C2C2"/>
</svg>
