<svg width="252" height="184" viewBox="0 0 252 184" fill="none" xmlns="http://www.w3.org/2000/svg">
<path fill-rule="evenodd" clip-rule="evenodd" d="M29 136H46V127H29V136Z" fill="#54B1AC"/>
<path fill-rule="evenodd" clip-rule="evenodd" d="M171 136H185V134H171V136Z" fill="#454543"/>
<path fill-rule="evenodd" clip-rule="evenodd" d="M169 138H188V136H169V138Z" fill="#454543"/>
<path fill-rule="evenodd" clip-rule="evenodd" d="M166 55H173V48H166V55Z" fill="#E68F2E"/>
<path fill-rule="evenodd" clip-rule="evenodd" d="M138 50H166V48H138V50Z" fill="#454543"/>
<path fill-rule="evenodd" clip-rule="evenodd" d="M192 138H206V119H192V138Z" fill="#54B1AC"/>
<path fill-rule="evenodd" clip-rule="evenodd" d="M24 145H232V138H24V145Z" fill="#E68F2E"/>
<path fill-rule="evenodd" clip-rule="evenodd" d="M25.1808 144.857H231.819V139.143H25.1808V144.857ZM232.41 146H24.5904C24.2645 146 24 145.745 24 145.429V138.571C24 138.255 24.2645 138 24.5904 138H232.41C232.736 138 233 138.255 233 138.571V145.429C233 145.745 232.736 146 232.41 146Z" fill="#0E0F11"/>
<path fill-rule="evenodd" clip-rule="evenodd" d="M93 72.3636C93 71.0636 94.065 70 95.3667 70H161.633C162.935 70 164 71.0636 164 72.3636V119.636C164 120.936 162.935 122 161.633 122H95.3667C94.065 122 93 120.936 93 119.636V72.3636Z" fill="#454543"/>
<path fill-rule="evenodd" clip-rule="evenodd" d="M95 117H161V74H95V117Z" fill="#FFFFFE"/>
<path fill-rule="evenodd" clip-rule="evenodd" d="M95 74H161V72H95V74Z" fill="#AEAFAB"/>
<path fill-rule="evenodd" clip-rule="evenodd" d="M95 93H161V84H95V93Z" fill="#54B1AC"/>
<path fill-rule="evenodd" clip-rule="evenodd" d="M93 119H164V123.667C164 124.956 162.942 126 161.633 126H95.3667C94.0585 126 93 124.956 93 123.667V119Z" fill="#AEAFAB"/>
<path fill-rule="evenodd" clip-rule="evenodd" d="M135.786 127H121.214L120 136H137L135.786 127Z" fill="#AEAFAB"/>
<path fill-rule="evenodd" clip-rule="evenodd" d="M114 138H142V136H114V138Z" fill="#AEAFAB"/>
<path fill-rule="evenodd" clip-rule="evenodd" d="M102 107H116V98H102V107Z" fill="#E68F2E"/>
<path fill-rule="evenodd" clip-rule="evenodd" d="M121 107H135V98H121V107Z" fill="#E68F2E"/>
<path fill-rule="evenodd" clip-rule="evenodd" d="M114.2 137.667H141.8V136.333H114.2V137.667ZM142.4 139H113.6C113.269 139 113 138.702 113 138.333V135.667C113 135.298 113.269 135 113.6 135H142.4C142.732 135 143 135.298 143 135.667V138.333C143 138.702 142.732 139 142.4 139Z" fill="#0E0F11"/>
<path fill-rule="evenodd" clip-rule="evenodd" d="M120.28 135.778H135.72L134.67 127.222H121.33L120.28 135.778ZM136.4 137H119.6C119.428 137 119.264 136.925 119.15 136.793C119.037 136.661 118.983 136.487 119.005 136.313L120.205 126.535C120.242 126.23 120.498 126 120.8 126H135.2C135.502 126 135.758 126.23 135.795 126.535L136.995 136.313C137.017 136.487 136.963 136.661 136.85 136.793C136.736 136.925 136.572 137 136.4 137Z" fill="#0E0F11"/>
<path fill-rule="evenodd" clip-rule="evenodd" d="M128 122.333C127.633 122.333 127.333 122.632 127.333 123C127.333 123.368 127.633 123.667 128 123.667C128.367 123.667 128.667 123.368 128.667 123C128.667 122.632 128.367 122.333 128 122.333ZM128 125C126.897 125 126 124.103 126 123C126 121.897 126.897 121 128 121C129.103 121 130 121.897 130 123C130 124.103 129.103 125 128 125Z" fill="#0E0F11"/>
<path fill-rule="evenodd" clip-rule="evenodd" d="M163.41 120H92.5902C92.2644 120 92 119.776 92 119.5C92 119.224 92.2644 119 92.5902 119H163.41C163.736 119 164 119.224 164 119.5C164 119.776 163.736 120 163.41 120Z" fill="#0E0F11"/>
<path fill-rule="evenodd" clip-rule="evenodd" d="M96.1754 116.813H160.825V73.1871H96.1754V116.813ZM161.412 118H95.5877C95.2633 118 95 117.735 95 117.406V72.5935C95 72.2659 95.2633 72 95.5877 72H161.412C161.737 72 162 72.2659 162 72.5935V117.406C162 117.735 161.737 118 161.412 118Z" fill="#0E0F11"/>
<path fill-rule="evenodd" clip-rule="evenodd" d="M164.333 73C163.965 73 163.667 72.7013 163.667 72.3333C163.667 71.2307 162.769 70.3333 161.667 70.3333C161.298 70.3333 161 70.0347 161 69.6667C161 69.2987 161.298 69 161.667 69C163.505 69 165 70.4953 165 72.3333C165 72.7013 164.702 73 164.333 73Z" fill="#0E0F11"/>
<path fill-rule="evenodd" clip-rule="evenodd" d="M161.667 127C161.298 127 161 126.702 161 126.333C161 125.965 161.298 125.667 161.667 125.667C162.769 125.667 163.667 124.769 163.667 123.667C163.667 123.298 163.965 123 164.333 123C164.702 123 165 123.298 165 123.667C165 125.505 163.505 127 161.667 127Z" fill="#0E0F11"/>
<path fill-rule="evenodd" clip-rule="evenodd" d="M95.3333 127C93.4953 127 92 125.505 92 123.667C92 123.298 92.2987 123 92.6667 123C93.0347 123 93.3333 123.298 93.3333 123.667C93.3333 124.769 94.2307 125.667 95.3333 125.667C95.7013 125.667 96 125.965 96 126.333C96 126.702 95.7013 127 95.3333 127Z" fill="#0E0F11"/>
<path fill-rule="evenodd" clip-rule="evenodd" d="M163.5 124C163.224 124 163 123.737 163 123.411V71.5889C163 71.2638 163.224 71 163.5 71C163.776 71 164 71.2638 164 71.5889V123.411C164 123.737 163.776 124 163.5 124Z" fill="#0E0F11"/>
<path fill-rule="evenodd" clip-rule="evenodd" d="M161.412 70H95.5877C95.2633 70 95 69.776 95 69.5C95 69.224 95.2633 69 95.5877 69H161.412C161.737 69 162 69.224 162 69.5C162 69.776 161.737 70 161.412 70Z" fill="#0E0F11"/>
<path fill-rule="evenodd" clip-rule="evenodd" d="M92.5 124C92.224 124 92 123.737 92 123.411V71.5889C92 71.2638 92.224 71 92.5 71C92.776 71 93 71.2638 93 71.5889V123.411C93 123.737 92.776 124 92.5 124Z" fill="#0E0F11"/>
<path fill-rule="evenodd" clip-rule="evenodd" d="M161.412 127H95.5877C95.2633 127 95 126.776 95 126.5C95 126.224 95.2633 126 95.5877 126H161.412C161.737 126 162 126.224 162 126.5C162 126.776 161.737 127 161.412 127Z" fill="#0E0F11"/>
<path fill-rule="evenodd" clip-rule="evenodd" d="M161.412 75H95.5877C95.2633 75 95 74.776 95 74.5C95 74.224 95.2633 74 95.5877 74H161.412C161.737 74 162 74.224 162 74.5C162 74.776 161.737 75 161.412 75Z" fill="#0E0F11"/>
<path fill-rule="evenodd" clip-rule="evenodd" d="M92.6667 73C92.2987 73 92 72.7013 92 72.3333C92 70.4953 93.4953 69 95.3333 69C95.7013 69 96 69.2987 96 69.6667C96 70.0347 95.7013 70.3333 95.3333 70.3333C94.2307 70.3333 93.3333 71.2307 93.3333 72.3333C93.3333 72.7013 93.0347 73 92.6667 73Z" fill="#0E0F11"/>
<path fill-rule="evenodd" clip-rule="evenodd" d="M103.154 106.778H115.846V98.2222H103.154V106.778ZM116.423 108H102.577C102.258 108 102 107.727 102 107.389V97.6111C102 97.2732 102.258 97 102.577 97H116.423C116.742 97 117 97.2732 117 97.6111V107.389C117 107.727 116.742 108 116.423 108Z" fill="#0E0F11"/>
<path fill-rule="evenodd" clip-rule="evenodd" d="M122.154 106.778H134.846V98.2222H122.154V106.778ZM135.423 108H121.577C121.258 108 121 107.727 121 107.389V97.6111C121 97.2732 121.258 97 121.577 97H135.423C135.742 97 136 97.2732 136 97.6111V107.389C136 107.727 135.742 108 135.423 108Z" fill="#0E0F11"/>
<path fill-rule="evenodd" clip-rule="evenodd" d="M133.389 79H123.611C123.274 79 123 78.776 123 78.5C123 78.224 123.274 78 123.611 78H133.389C133.727 78 134 78.224 134 78.5C134 78.776 133.727 79 133.389 79Z" fill="#0E0F11"/>
<path fill-rule="evenodd" clip-rule="evenodd" d="M161.412 84H95.5877C95.2633 84 95 83.776 95 83.5C95 83.224 95.2633 83 95.5877 83H161.412C161.737 83 162 83.224 162 83.5C162 83.776 161.737 84 161.412 84Z" fill="#0E0F11"/>
<path fill-rule="evenodd" clip-rule="evenodd" d="M161.412 94H95.5877C95.2633 94 95 93.7765 95 93.5C95 93.2235 95.2633 93 95.5877 93H161.412C161.737 93 162 93.2235 162 93.5C162 93.7765 161.737 94 161.412 94Z" fill="#0E0F11"/>
<path fill-rule="evenodd" clip-rule="evenodd" d="M107.4 110H102.6C102.269 110 102 109.776 102 109.5C102 109.224 102.269 109 102.6 109H107.4C107.731 109 108 109.224 108 109.5C108 109.776 107.731 110 107.4 110Z" fill="#0E0F11"/>
<path fill-rule="evenodd" clip-rule="evenodd" d="M109.429 113H102.571C102.256 113 102 112.776 102 112.5C102 112.224 102.256 112 102.571 112H109.429C109.744 112 110 112.224 110 112.5C110 112.776 109.744 113 109.429 113Z" fill="#0E0F11"/>
<path fill-rule="evenodd" clip-rule="evenodd" d="M135.423 110H121.577C121.258 110 121 109.776 121 109.5C121 109.224 121.258 109 121.577 109H135.423C135.742 109 136 109.224 136 109.5C136 109.776 135.742 110 135.423 110Z" fill="#0E0F11"/>
<path fill-rule="evenodd" clip-rule="evenodd" d="M133.429 113H126.571C126.256 113 126 112.776 126 112.5C126 112.224 126.256 112 126.571 112H133.429C133.745 112 134 112.224 134 112.5C134 112.776 133.745 113 133.429 113Z" fill="#0E0F11"/>
<path fill-rule="evenodd" clip-rule="evenodd" d="M116.429 110H109.571C109.256 110 109 109.776 109 109.5C109 109.224 109.256 109 109.571 109H116.429C116.744 109 117 109.224 117 109.5C117 109.776 116.744 110 116.429 110Z" fill="#0E0F11"/>
<path fill-rule="evenodd" clip-rule="evenodd" d="M114.333 113H111.667C111.299 113 111 112.776 111 112.5C111 112.224 111.299 112 111.667 112H114.333C114.701 112 115 112.224 115 112.5C115 112.776 114.701 113 114.333 113Z" fill="#0E0F11"/>
<path fill-rule="evenodd" clip-rule="evenodd" d="M123.333 113H120.667C120.299 113 120 112.776 120 112.5C120 112.224 120.299 112 120.667 112H123.333C123.701 112 124 112.224 124 112.5C124 112.776 123.701 113 123.333 113Z" fill="#0E0F11"/>
<path fill-rule="evenodd" clip-rule="evenodd" d="M145.4 110H140.6C140.268 110 140 109.776 140 109.5C140 109.224 140.268 109 140.6 109H145.4C145.732 109 146 109.224 146 109.5C146 109.776 145.732 110 145.4 110Z" fill="#0E0F11"/>
<path fill-rule="evenodd" clip-rule="evenodd" d="M147.429 113H140.571C140.255 113 140 112.776 140 112.5C140 112.224 140.255 112 140.571 112H147.429C147.745 112 148 112.224 148 112.5C148 112.776 147.745 113 147.429 113Z" fill="#0E0F11"/>
<path fill-rule="evenodd" clip-rule="evenodd" d="M152.333 113H149.667C149.298 113 149 112.776 149 112.5C149 112.224 149.298 112 149.667 112H152.333C152.702 112 153 112.224 153 112.5C153 112.776 152.702 113 152.333 113Z" fill="#0E0F11"/>
<path fill-rule="evenodd" clip-rule="evenodd" d="M149.333 110H146.667C146.298 110 146 109.776 146 109.5C146 109.224 146.298 109 146.667 109H149.333C149.702 109 150 109.224 150 109.5C150 109.776 149.702 110 149.333 110Z" fill="#0E0F11"/>
<path fill-rule="evenodd" clip-rule="evenodd" d="M154.333 110H151.667C151.298 110 151 109.776 151 109.5C151 109.224 151.298 109 151.667 109H154.333C154.702 109 155 109.224 155 109.5C155 109.776 154.702 110 154.333 110Z" fill="#0E0F11"/>
<path fill-rule="evenodd" clip-rule="evenodd" d="M67.3888 139C67.2323 139 67.0759 138.94 66.9567 138.821L57.1792 129.043C56.9403 128.804 56.9403 128.418 57.1792 128.179C57.4181 127.94 57.8044 127.94 58.0433 128.179L67.8208 137.957C68.0597 138.196 68.0597 138.582 67.8208 138.821C67.7016 138.94 67.5452 139 67.3888 139Z" fill="#0E0F11"/>
<path fill-rule="evenodd" clip-rule="evenodd" d="M67.3888 130C67.2323 130 67.0759 129.94 66.9567 129.821L57.1792 120.043C56.9403 119.804 56.9403 119.418 57.1792 119.179C57.4181 118.94 57.8044 118.94 58.0433 119.179L67.8208 128.957C68.0597 129.196 68.0597 129.582 67.8208 129.821C67.7016 129.94 67.5452 130 67.3888 130Z" fill="#0E0F11"/>
<path fill-rule="evenodd" clip-rule="evenodd" d="M67.3888 120C67.2323 120 67.0759 119.94 66.9567 119.821L57.1792 110.043C56.9403 109.804 56.9403 109.418 57.1792 109.179C57.4181 108.94 57.8044 108.94 58.0433 109.179L67.8208 118.957C68.0597 119.196 68.0597 119.582 67.8208 119.821C67.7016 119.94 67.5452 120 67.3888 120Z" fill="#0E0F11"/>
<path fill-rule="evenodd" clip-rule="evenodd" d="M67.3888 111C67.2323 111 67.0759 110.94 66.9567 110.821L57.1792 101.043C56.9403 100.804 56.9403 100.418 57.1792 100.179C57.4181 99.9403 57.8044 99.9403 58.0433 100.179L67.8208 109.957C68.0597 110.196 68.0597 110.582 67.8208 110.821C67.7016 110.94 67.5452 111 67.3888 111Z" fill="#0E0F11"/>
<path fill-rule="evenodd" clip-rule="evenodd" d="M67.3888 101C67.2323 101 67.0759 100.94 66.9567 100.821L57.1792 91.0433C56.9403 90.8044 56.9403 90.4181 57.1792 90.1792C57.4181 89.9403 57.8044 89.9403 58.0433 90.1792L67.8208 99.9568C68.0597 100.196 68.0597 100.582 67.8208 100.821C67.7016 100.94 67.5452 101 67.3888 101Z" fill="#0E0F11"/>
<path fill-rule="evenodd" clip-rule="evenodd" d="M57.6112 139C57.4548 139 57.2984 138.94 57.1792 138.821C56.9403 138.582 56.9403 138.196 57.1792 137.957L66.9567 128.179C67.1956 127.94 67.5819 127.94 67.8208 128.179C68.0597 128.418 68.0597 128.804 67.8208 129.043L58.0433 138.821C57.9241 138.94 57.7677 139 57.6112 139Z" fill="#0E0F11"/>
<path fill-rule="evenodd" clip-rule="evenodd" d="M57.6112 130C57.4548 130 57.2984 129.94 57.1792 129.821C56.9403 129.582 56.9403 129.196 57.1792 128.957L66.9567 119.179C67.1956 118.94 67.5819 118.94 67.8208 119.179C68.0597 119.418 68.0597 119.804 67.8208 120.043L58.0433 129.821C57.9241 129.94 57.7677 130 57.6112 130Z" fill="#0E0F11"/>
<path fill-rule="evenodd" clip-rule="evenodd" d="M57.6112 120C57.4548 120 57.2984 119.94 57.1792 119.821C56.9403 119.582 56.9403 119.196 57.1792 118.957L66.9567 109.179C67.1956 108.94 67.5819 108.94 67.8208 109.179C68.0597 109.418 68.0597 109.804 67.8208 110.043L58.0433 119.821C57.9241 119.94 57.7677 120 57.6112 120Z" fill="#0E0F11"/>
<path fill-rule="evenodd" clip-rule="evenodd" d="M57.6112 111C57.4548 111 57.2984 110.94 57.1792 110.821C56.9403 110.582 56.9403 110.196 57.1792 109.957L66.9567 100.179C67.1956 99.9403 67.5819 99.9403 67.8208 100.179C68.0597 100.418 68.0597 100.804 67.8208 101.043L58.0433 110.821C57.9241 110.94 57.7677 111 57.6112 111Z" fill="#0E0F11"/>
<path fill-rule="evenodd" clip-rule="evenodd" d="M57.6112 101C57.4548 101 57.2984 100.94 57.1792 100.821C56.9403 100.582 56.9403 100.196 57.1792 99.9568L66.9567 90.1792C67.1956 89.9403 67.5819 89.9403 67.8208 90.1792C68.0597 90.4181 68.0597 90.8044 67.8208 91.0433L58.0433 100.821C57.9241 100.94 57.7677 101 57.6112 101Z" fill="#0E0F11"/>
<path fill-rule="evenodd" clip-rule="evenodd" d="M67.3889 101H57.6111C57.2738 101 57 100.776 57 100.5C57 100.224 57.2738 100 57.6111 100H67.3889C67.7262 100 68 100.224 68 100.5C68 100.776 67.7262 101 67.3889 101Z" fill="#0E0F11"/>
<path fill-rule="evenodd" clip-rule="evenodd" d="M67.3889 110H57.6111C57.2738 110 57 109.776 57 109.5C57 109.224 57.2738 109 57.6111 109H67.3889C67.7262 109 68 109.224 68 109.5C68 109.776 67.7262 110 67.3889 110Z" fill="#0E0F11"/>
<path fill-rule="evenodd" clip-rule="evenodd" d="M67.3889 120H57.6111C57.2738 120 57 119.776 57 119.5C57 119.224 57.2738 119 57.6111 119H67.3889C67.7262 119 68 119.224 68 119.5C68 119.776 67.7262 120 67.3889 120Z" fill="#0E0F11"/>
<path fill-rule="evenodd" clip-rule="evenodd" d="M67.3889 129H57.6111C57.2738 129 57 128.776 57 128.5C57 128.224 57.2738 128 57.6111 128H67.3889C67.7262 128 68 128.224 68 128.5C68 128.776 67.7262 129 67.3889 129Z" fill="#0E0F11"/>
<path fill-rule="evenodd" clip-rule="evenodd" d="M66.5 139C66.224 139 66 138.733 66 138.402V90.5976C66 90.2671 66.224 90 66.5 90C66.776 90 67 90.2671 67 90.5976V138.402C67 138.733 66.776 139 66.5 139Z" fill="#0E0F11"/>
<path fill-rule="evenodd" clip-rule="evenodd" d="M57.5 139C57.224 139 57 138.733 57 138.402V90.5976C57 90.2671 57.224 90 57.5 90C57.776 90 58 90.2671 58 90.5976V138.402C58 138.733 57.776 139 57.5 139Z" fill="#0E0F11"/>
<path fill-rule="evenodd" clip-rule="evenodd" d="M140 105H154V96H140V105Z" fill="#E68F2E"/>
<path fill-rule="evenodd" clip-rule="evenodd" d="M145.184 47.7778H200.816V39.2222H145.184V47.7778ZM201.408 49H144.592C144.265 49 144 48.7262 144 48.3889V38.6111C144 38.2738 144.265 38 144.592 38H201.408C201.735 38 202 38.2738 202 38.6111V48.3889C202 48.7262 201.735 49 201.408 49Z" fill="#0E0F11"/>
<path fill-rule="evenodd" clip-rule="evenodd" d="M191.611 49C191.455 49 191.298 48.9401 191.179 48.8209C190.94 48.582 190.94 48.1958 191.179 47.9568L200.957 38.1792C201.196 37.9403 201.582 37.9403 201.821 38.1792C202.06 38.4181 202.06 38.8044 201.821 39.0433L192.043 48.8209C191.924 48.9401 191.768 49 191.611 49Z" fill="#0E0F11"/>
<path fill-rule="evenodd" clip-rule="evenodd" d="M182.611 49C182.455 49 182.298 48.9401 182.179 48.8209C181.94 48.582 181.94 48.1958 182.179 47.9568L191.957 38.1792C192.196 37.9403 192.582 37.9403 192.821 38.1792C193.06 38.4181 193.06 38.8044 192.821 39.0433L183.043 48.8209C182.924 48.9401 182.768 49 182.611 49Z" fill="#0E0F11"/>
<path fill-rule="evenodd" clip-rule="evenodd" d="M173.611 49C173.455 49 173.298 48.9401 173.179 48.8209C172.94 48.582 172.94 48.1958 173.179 47.9568L182.957 38.1792C183.196 37.9403 183.582 37.9403 183.821 38.1792C184.06 38.4181 184.06 38.8044 183.821 39.0433L174.043 48.8209C173.924 48.9401 173.768 49 173.611 49Z" fill="#0E0F11"/>
<path fill-rule="evenodd" clip-rule="evenodd" d="M163.611 49C163.455 49 163.298 48.9401 163.179 48.8209C162.94 48.582 162.94 48.1958 163.179 47.9568L172.957 38.1792C173.196 37.9403 173.582 37.9403 173.821 38.1792C174.06 38.4181 174.06 38.8044 173.821 39.0433L164.043 48.8209C163.924 48.9401 163.768 49 163.611 49Z" fill="#0E0F11"/>
<path fill-rule="evenodd" clip-rule="evenodd" d="M154.611 49C154.455 49 154.298 48.9401 154.179 48.8209C153.94 48.582 153.94 48.1958 154.179 47.9568L163.957 38.1792C164.196 37.9403 164.582 37.9403 164.821 38.1792C165.06 38.4181 165.06 38.8044 164.821 39.0433L155.043 48.8209C154.924 48.9401 154.768 49 154.611 49Z" fill="#0E0F11"/>
<path fill-rule="evenodd" clip-rule="evenodd" d="M144.611 49C144.455 49 144.298 48.9401 144.179 48.8209C143.94 48.582 143.94 48.1958 144.179 47.9568L153.957 38.1792C154.196 37.9403 154.582 37.9403 154.821 38.1792C155.06 38.4181 155.06 38.8044 154.821 39.0433L145.043 48.8209C144.924 48.9401 144.768 49 144.611 49Z" fill="#0E0F11"/>
<path fill-rule="evenodd" clip-rule="evenodd" d="M201.389 49C201.232 49 201.076 48.9401 200.957 48.8209L191.179 39.0433C190.94 38.8044 190.94 38.4181 191.179 38.1792C191.418 37.9403 191.804 37.9403 192.043 38.1792L201.821 47.9568C202.06 48.1958 202.06 48.582 201.821 48.8209C201.702 48.9401 201.545 49 201.389 49Z" fill="#0E0F11"/>
<path fill-rule="evenodd" clip-rule="evenodd" d="M192.389 49C192.232 49 192.076 48.9401 191.957 48.8209L182.179 39.0433C181.94 38.8044 181.94 38.4181 182.179 38.1792C182.418 37.9403 182.804 37.9403 183.043 38.1792L192.821 47.9568C193.06 48.1958 193.06 48.582 192.821 48.8209C192.702 48.9401 192.545 49 192.389 49Z" fill="#0E0F11"/>
<path fill-rule="evenodd" clip-rule="evenodd" d="M183.389 49C183.232 49 183.076 48.9401 182.957 48.8209L173.179 39.0433C172.94 38.8044 172.94 38.4181 173.179 38.1792C173.418 37.9403 173.804 37.9403 174.043 38.1792L183.821 47.9568C184.06 48.1958 184.06 48.582 183.821 48.8209C183.702 48.9401 183.545 49 183.389 49Z" fill="#0E0F11"/>
<path fill-rule="evenodd" clip-rule="evenodd" d="M173.389 49C173.232 49 173.076 48.9401 172.957 48.8209L163.179 39.0433C162.94 38.8044 162.94 38.4181 163.179 38.1792C163.418 37.9403 163.804 37.9403 164.043 38.1792L173.821 47.9568C174.06 48.1958 174.06 48.582 173.821 48.8209C173.702 48.9401 173.545 49 173.389 49Z" fill="#0E0F11"/>
<path fill-rule="evenodd" clip-rule="evenodd" d="M164.389 49C164.232 49 164.076 48.9401 163.957 48.8209L154.179 39.0433C153.94 38.8044 153.94 38.4181 154.179 38.1792C154.418 37.9403 154.804 37.9403 155.043 38.1792L164.821 47.9568C165.06 48.1958 165.06 48.582 164.821 48.8209C164.702 48.9401 164.545 49 164.389 49Z" fill="#0E0F11"/>
<path fill-rule="evenodd" clip-rule="evenodd" d="M154.389 49C154.232 49 154.076 48.9401 153.957 48.8209L144.179 39.0433C143.94 38.8044 143.94 38.4181 144.179 38.1792C144.418 37.9403 144.804 37.9403 145.043 38.1792L154.821 47.9568C155.06 48.1958 155.06 48.582 154.821 48.8209C154.702 48.9401 154.545 49 154.389 49Z" fill="#0E0F11"/>
<path fill-rule="evenodd" clip-rule="evenodd" d="M183.389 106C183.232 106 183.076 105.94 182.957 105.821L173.179 96.0433C172.94 95.8044 172.94 95.4181 173.179 95.1792C173.418 94.9403 173.804 94.9403 174.043 95.1792L183.821 104.957C184.06 105.196 184.06 105.582 183.821 105.821C183.702 105.94 183.545 106 183.389 106Z" fill="#0E0F11"/>
<path fill-rule="evenodd" clip-rule="evenodd" d="M183.389 96C183.232 96 183.076 95.9401 182.957 95.8209L173.179 86.0433C172.94 85.8044 172.94 85.4181 173.179 85.1792C173.418 84.9403 173.804 84.9403 174.043 85.1792L183.821 94.9568C184.06 95.1958 184.06 95.582 183.821 95.8209C183.702 95.9401 183.545 96 183.389 96Z" fill="#0E0F11"/>
<path fill-rule="evenodd" clip-rule="evenodd" d="M183.389 87C183.232 87 183.076 86.9401 182.957 86.8209L173.179 77.0433C172.94 76.8044 172.94 76.4181 173.179 76.1792C173.418 75.9403 173.804 75.9403 174.043 76.1792L183.821 85.9568C184.06 86.1958 184.06 86.582 183.821 86.8209C183.702 86.9401 183.545 87 183.389 87Z" fill="#0E0F11"/>
<path fill-rule="evenodd" clip-rule="evenodd" d="M183.389 77C183.232 77 183.076 76.9401 182.957 76.8209L173.179 67.0433C172.94 66.8044 172.94 66.4181 173.179 66.1792C173.418 65.9403 173.804 65.9403 174.043 66.1792L183.821 75.9568C184.06 76.1958 184.06 76.582 183.821 76.8209C183.702 76.9401 183.545 77 183.389 77Z" fill="#0E0F11"/>
<path fill-rule="evenodd" clip-rule="evenodd" d="M183.389 68C183.232 68 183.076 67.9401 182.957 67.8209L173.179 58.0433C172.94 57.8044 172.94 57.4181 173.179 57.1792C173.418 56.9403 173.804 56.9403 174.043 57.1792L183.821 66.9568C184.06 67.1958 184.06 67.582 183.821 67.8209C183.702 67.9401 183.545 68 183.389 68Z" fill="#0E0F11"/>
<path fill-rule="evenodd" clip-rule="evenodd" d="M183.389 58C183.232 58 183.076 57.9401 182.957 57.8209L173.179 48.0433C172.94 47.8044 172.94 47.4181 173.179 47.1792C173.418 46.9403 173.804 46.9403 174.043 47.1792L183.821 56.9568C184.06 57.1958 184.06 57.582 183.821 57.8209C183.702 57.9401 183.545 58 183.389 58Z" fill="#0E0F11"/>
<path fill-rule="evenodd" clip-rule="evenodd" d="M173.611 106C173.455 106 173.298 105.94 173.179 105.821C172.94 105.582 172.94 105.196 173.179 104.957L182.957 95.1792C183.196 94.9403 183.582 94.9403 183.821 95.1792C184.06 95.4181 184.06 95.8044 183.821 96.0433L174.043 105.821C173.924 105.94 173.768 106 173.611 106Z" fill="#0E0F11"/>
<path fill-rule="evenodd" clip-rule="evenodd" d="M173.611 96C173.455 96 173.298 95.9401 173.179 95.8209C172.94 95.582 172.94 95.1958 173.179 94.9568L182.957 85.1792C183.196 84.9403 183.582 84.9403 183.821 85.1792C184.06 85.4181 184.06 85.8044 183.821 86.0433L174.043 95.8209C173.924 95.9401 173.768 96 173.611 96Z" fill="#0E0F11"/>
<path fill-rule="evenodd" clip-rule="evenodd" d="M173.611 87C173.455 87 173.298 86.9401 173.179 86.8209C172.94 86.582 172.94 86.1958 173.179 85.9568L182.957 76.1792C183.196 75.9403 183.582 75.9403 183.821 76.1792C184.06 76.4181 184.06 76.8044 183.821 77.0433L174.043 86.8209C173.924 86.9401 173.768 87 173.611 87Z" fill="#0E0F11"/>
<path fill-rule="evenodd" clip-rule="evenodd" d="M173.611 77C173.455 77 173.298 76.9401 173.179 76.8209C172.94 76.582 172.94 76.1958 173.179 75.9568L182.957 66.1792C183.196 65.9403 183.582 65.9403 183.821 66.1792C184.06 66.4181 184.06 66.8044 183.821 67.0433L174.043 76.8209C173.924 76.9401 173.768 77 173.611 77Z" fill="#0E0F11"/>
<path fill-rule="evenodd" clip-rule="evenodd" d="M173.611 68C173.455 68 173.298 67.9401 173.179 67.8209C172.94 67.582 172.94 67.1958 173.179 66.9568L182.957 57.1792C183.196 56.9403 183.582 56.9403 183.821 57.1792C184.06 57.4181 184.06 57.8044 183.821 58.0433L174.043 67.8209C173.924 67.9401 173.768 68 173.611 68Z" fill="#0E0F11"/>
<path fill-rule="evenodd" clip-rule="evenodd" d="M173.611 58C173.455 58 173.298 57.9401 173.179 57.8209C172.94 57.582 172.94 57.1958 173.179 56.9568L182.957 47.1792C183.196 46.9403 183.582 46.9403 183.821 47.1792C184.06 47.4181 184.06 47.8044 183.821 48.0433L174.043 57.8209C173.924 57.9401 173.768 58 173.611 58Z" fill="#0E0F11"/>
<path fill-rule="evenodd" clip-rule="evenodd" d="M135.611 49C135.455 49 135.298 48.9401 135.179 48.8209C134.94 48.582 134.94 48.1958 135.179 47.9568L144.957 38.1792C145.196 37.9403 145.582 37.9403 145.821 38.1792C146.06 38.4181 146.06 38.8044 145.821 39.0433L136.043 48.8209C135.924 48.9401 135.768 49 135.611 49Z" fill="#0E0F11"/>
<path fill-rule="evenodd" clip-rule="evenodd" d="M145.389 49H135.611C135.273 49 135 48.776 135 48.5C135 48.224 135.273 48 135.611 48H145.389C145.727 48 146 48.224 146 48.5C146 48.776 145.727 49 145.389 49Z" fill="#0E0F11"/>
<path fill-rule="evenodd" clip-rule="evenodd" d="M173.5 39C173.224 39 173 38.7262 173 38.3889V28.6111C173 28.2738 173.224 28 173.5 28C173.776 28 174 28.2738 174 28.6111V38.3889C174 38.7262 173.776 39 173.5 39Z" fill="#0E0F11"/>
<path fill-rule="evenodd" clip-rule="evenodd" d="M183.389 30H173.611C173.273 30 173 29.776 173 29.5C173 29.224 173.273 29 173.611 29H183.389C183.727 29 184 29.224 184 29.5C184 29.776 183.727 30 183.389 30Z" fill="#0E0F11"/>
<path fill-rule="evenodd" clip-rule="evenodd" d="M182.5 39C182.224 39 182 38.7262 182 38.3889V28.6111C182 28.2738 182.224 28 182.5 28C182.776 28 183 28.2738 183 28.6111V38.3889C183 38.7262 182.776 39 182.5 39Z" fill="#0E0F11"/>
<path fill-rule="evenodd" clip-rule="evenodd" d="M183.389 39C183.232 39 183.076 38.9401 182.957 38.8209L173.179 29.0433C172.94 28.8044 172.94 28.4181 173.179 28.1792C173.418 27.9403 173.804 27.9403 174.043 28.1792L183.821 37.9568C184.06 38.1958 184.06 38.582 183.821 38.8209C183.702 38.9401 183.545 39 183.389 39Z" fill="#0E0F11"/>
<path fill-rule="evenodd" clip-rule="evenodd" d="M173.611 39C173.455 39 173.298 38.9401 173.179 38.8209C172.94 38.582 172.94 38.1958 173.179 37.9568L182.957 28.1792C183.196 27.9403 183.582 27.9403 183.821 28.1792C184.06 28.4181 184.06 28.8044 183.821 29.0433L174.043 38.8209C173.924 38.9401 173.768 39 173.611 39Z" fill="#0E0F11"/>
<path fill-rule="evenodd" clip-rule="evenodd" d="M169.176 137.667H186.824V136.333H169.176V137.667ZM187.412 139H168.588C168.263 139 168 138.702 168 138.333V135.667C168 135.298 168.263 135 168.588 135H187.412C187.737 135 188 135.298 188 135.667V138.333C188 138.702 187.737 139 187.412 139Z" fill="#0E0F11"/>
<path fill-rule="evenodd" clip-rule="evenodd" d="M172.154 135.667H184.846V134.333H172.154V135.667ZM185.423 137H171.577C171.258 137 171 136.702 171 136.333V133.667C171 133.298 171.258 133 171.577 133H185.423C185.742 133 186 133.298 186 133.667V136.333C186 136.702 185.742 137 185.423 137Z" fill="#0E0F11"/>
<path fill-rule="evenodd" clip-rule="evenodd" d="M167.143 54.8571H172.857V49.1429H167.143V54.8571ZM173.429 56H166.571C166.255 56 166 55.744 166 55.4286V48.5714C166 48.256 166.255 48 166.571 48H173.429C173.745 48 174 48.256 174 48.5714V55.4286C174 55.744 173.745 56 173.429 56Z" fill="#0E0F11"/>
<path fill-rule="evenodd" clip-rule="evenodd" d="M169 53H171V51H169V53Z" fill="#FFFFFE"/>
<path fill-rule="evenodd" clip-rule="evenodd" d="M169.333 52.6667H170.667V51.3333H169.333V52.6667ZM171.333 54H168.667C168.298 54 168 53.7013 168 53.3333V50.6667C168 50.2987 168.298 50 168.667 50H171.333C171.702 50 172 50.2987 172 50.6667V53.3333C172 53.7013 171.702 54 171.333 54Z" fill="#0E0F11"/>
<path fill-rule="evenodd" clip-rule="evenodd" d="M147.5 83C147.224 83 147 82.7312 147 82.4V47.6C147 47.2688 147.224 47 147.5 47C147.776 47 148 47.2688 148 47.6V82.4C148 82.7312 147.776 83 147.5 83Z" fill="#0E0F11"/>
<path fill-rule="evenodd" clip-rule="evenodd" d="M154.5 49C154.224 49 154 48.7262 154 48.3889V38.6111C154 38.2738 154.224 38 154.5 38C154.776 38 155 38.2738 155 38.6111V48.3889C155 48.7262 154.776 49 154.5 49Z" fill="#0E0F11"/>
<path fill-rule="evenodd" clip-rule="evenodd" d="M163.5 49C163.224 49 163 48.7262 163 48.3889V38.6111C163 38.2738 163.224 38 163.5 38C163.776 38 164 38.2738 164 38.6111V48.3889C164 48.7262 163.776 49 163.5 49Z" fill="#0E0F11"/>
<path fill-rule="evenodd" clip-rule="evenodd" d="M192.5 49C192.224 49 192 48.7262 192 48.3889V38.6111C192 38.2738 192.224 38 192.5 38C192.776 38 193 38.2738 193 38.6111V48.3889C193 48.7262 192.776 49 192.5 49Z" fill="#0E0F11"/>
<path fill-rule="evenodd" clip-rule="evenodd" d="M183.389 58H173.611C173.273 58 173 57.776 173 57.5C173 57.224 173.273 57 173.611 57H183.389C183.727 57 184 57.224 184 57.5C184 57.776 183.727 58 183.389 58Z" fill="#0E0F11"/>
<path fill-rule="evenodd" clip-rule="evenodd" d="M183.389 68H173.611C173.273 68 173 67.776 173 67.5C173 67.224 173.273 67 173.611 67H183.389C183.727 67 184 67.224 184 67.5C184 67.776 183.727 68 183.389 68Z" fill="#0E0F11"/>
<path fill-rule="evenodd" clip-rule="evenodd" d="M183.389 77H173.611C173.273 77 173 76.776 173 76.5C173 76.224 173.273 76 173.611 76H183.389C183.727 76 184 76.224 184 76.5C184 76.776 183.727 77 183.389 77Z" fill="#0E0F11"/>
<path fill-rule="evenodd" clip-rule="evenodd" d="M183.389 87H173.611C173.273 87 173 86.776 173 86.5C173 86.224 173.273 86 173.611 86H183.389C183.727 86 184 86.224 184 86.5C184 86.776 183.727 87 183.389 87Z" fill="#0E0F11"/>
<path fill-rule="evenodd" clip-rule="evenodd" d="M183.389 96H173.611C173.273 96 173 95.7765 173 95.5C173 95.2235 173.273 95 173.611 95H183.389C183.727 95 184 95.2235 184 95.5C184 95.7765 183.727 96 183.389 96Z" fill="#0E0F11"/>
<path fill-rule="evenodd" clip-rule="evenodd" d="M183.389 134C183.232 134 183.076 133.94 182.957 133.821L173.179 124.043C172.94 123.804 172.94 123.418 173.179 123.179C173.418 122.94 173.804 122.94 174.043 123.179L183.821 132.957C184.06 133.196 184.06 133.582 183.821 133.821C183.702 133.94 183.545 134 183.389 134Z" fill="#0E0F11"/>
<path fill-rule="evenodd" clip-rule="evenodd" d="M183.389 125C183.232 125 183.076 124.94 182.957 124.821L173.179 115.043C172.94 114.804 172.94 114.418 173.179 114.179C173.418 113.94 173.804 113.94 174.043 114.179L183.821 123.957C184.06 124.196 184.06 124.582 183.821 124.821C183.702 124.94 183.545 125 183.389 125Z" fill="#0E0F11"/>
<path fill-rule="evenodd" clip-rule="evenodd" d="M183.389 115C183.232 115 183.076 114.94 182.957 114.821L173.179 105.043C172.94 104.804 172.94 104.418 173.179 104.179C173.418 103.94 173.804 103.94 174.043 104.179L183.821 113.957C184.06 114.196 184.06 114.582 183.821 114.821C183.702 114.94 183.545 115 183.389 115Z" fill="#0E0F11"/>
<path fill-rule="evenodd" clip-rule="evenodd" d="M173.611 134C173.455 134 173.298 133.94 173.179 133.821C172.94 133.582 172.94 133.196 173.179 132.957L182.957 123.179C183.196 122.94 183.582 122.94 183.821 123.179C184.06 123.418 184.06 123.804 183.821 124.043L174.043 133.821C173.924 133.94 173.768 134 173.611 134Z" fill="#0E0F11"/>
<path fill-rule="evenodd" clip-rule="evenodd" d="M173.611 125C173.455 125 173.298 124.94 173.179 124.821C172.94 124.582 172.94 124.196 173.179 123.957L182.957 114.179C183.196 113.94 183.582 113.94 183.821 114.179C184.06 114.418 184.06 114.804 183.821 115.043L174.043 124.821C173.924 124.94 173.768 125 173.611 125Z" fill="#0E0F11"/>
<path fill-rule="evenodd" clip-rule="evenodd" d="M173.611 115C173.455 115 173.298 114.94 173.179 114.821C172.94 114.582 172.94 114.196 173.179 113.957L182.957 104.179C183.196 103.94 183.582 103.94 183.821 104.179C184.06 104.418 184.06 104.804 183.821 105.043L174.043 114.821C173.924 114.94 173.768 115 173.611 115Z" fill="#0E0F11"/>
<path fill-rule="evenodd" clip-rule="evenodd" d="M183.389 115H173.611C173.273 115 173 114.776 173 114.5C173 114.224 173.273 114 173.611 114H183.389C183.727 114 184 114.224 184 114.5C184 114.776 183.727 115 183.389 115Z" fill="#0E0F11"/>
<path fill-rule="evenodd" clip-rule="evenodd" d="M183.389 125H173.611C173.273 125 173 124.776 173 124.5C173 124.224 173.273 124 173.611 124H183.389C183.727 124 184 124.224 184 124.5C184 124.776 183.727 125 183.389 125Z" fill="#0E0F11"/>
<path fill-rule="evenodd" clip-rule="evenodd" d="M183.389 106H173.611C173.273 106 173 105.776 173 105.5C173 105.224 173.273 105 173.611 105H183.389C183.727 105 184 105.224 184 105.5C184 105.776 183.727 106 183.389 106Z" fill="#0E0F11"/>
<path fill-rule="evenodd" clip-rule="evenodd" d="M173.5 134C173.224 134 173 133.735 173 133.407V38.5926C173 38.2655 173.224 38 173.5 38C173.776 38 174 38.2655 174 38.5926V133.407C174 133.735 173.776 134 173.5 134Z" fill="#0E0F11"/>
<path fill-rule="evenodd" clip-rule="evenodd" d="M182.5 134C182.224 134 182 133.735 182 133.407V38.5926C182 38.2655 182.224 38 182.5 38C182.776 38 183 38.2655 183 38.5926V133.407C183 133.735 182.776 134 182.5 134Z" fill="#0E0F11"/>
<path fill-rule="evenodd" clip-rule="evenodd" d="M146 87H148V82H146V87Z" fill="#FFFFFE"/>
<path fill-rule="evenodd" clip-rule="evenodd" d="M146.333 86.8H147.667V83.2H146.333V86.8ZM148.333 88H145.667C145.298 88 145 87.7312 145 87.4V82.6C145 82.2688 145.298 82 145.667 82H148.333C148.702 82 149 82.2688 149 82.6V87.4C149 87.7312 148.702 88 148.333 88Z" fill="#0E0F11"/>
<path fill-rule="evenodd" clip-rule="evenodd" d="M147 92C145.897 92 145 91.1027 145 90C145 89.6313 145.298 89.3333 145.667 89.3333C146.035 89.3333 146.333 89.6313 146.333 90C146.333 90.368 146.632 90.6667 147 90.6667C147.368 90.6667 147.667 90.368 147.667 90C147.667 89.632 147.368 89.3333 147 89.3333C146.631 89.3333 146.333 89.0347 146.333 88.6667C146.333 88.2987 146.631 88 147 88C148.103 88 149 88.8973 149 90C149 91.1027 148.103 92 147 92Z" fill="#0E0F11"/>
<path fill-rule="evenodd" clip-rule="evenodd" d="M147.5 89C147.224 89 147 88.744 147 88.4286V87.5714C147 87.256 147.224 87 147.5 87C147.776 87 148 87.256 148 87.5714V88.4286C148 88.744 147.776 89 147.5 89Z" fill="#0E0F11"/>
<path fill-rule="evenodd" clip-rule="evenodd" d="M141.154 104.778H153.846V96.2222H141.154V104.778ZM154.423 106H140.577C140.258 106 140 105.727 140 105.389V95.6111C140 95.2732 140.258 95 140.577 95H154.423C154.742 95 155 95.2732 155 95.6111V105.389C155 105.727 154.742 106 154.423 106Z" fill="#0E0F11"/>
<path fill-rule="evenodd" clip-rule="evenodd" d="M142.6 96C142.447 96 142.293 95.9412 142.176 95.8242C141.941 95.5896 141.941 95.2104 142.176 94.9758L146.976 90.1759C147.21 89.9414 147.589 89.9414 147.824 90.1759C148.059 90.4105 148.059 90.7897 147.824 91.0243L143.024 95.8242C142.907 95.9412 142.754 96 142.6 96Z" fill="#0E0F11"/>
<path fill-rule="evenodd" clip-rule="evenodd" d="M152.4 96C152.246 96 152.093 95.9412 151.976 95.8242L147.176 91.0243C146.941 90.7897 146.941 90.4105 147.176 90.1759C147.411 89.9414 147.79 89.9414 148.024 90.1759L152.824 94.9758C153.059 95.2104 153.059 95.5896 152.824 95.8242C152.707 95.9412 152.553 96 152.4 96Z" fill="#0E0F11"/>
<path fill-rule="evenodd" clip-rule="evenodd" d="M165.408 51H137.592C137.265 51 137 50.776 137 50.5C137 50.224 137.265 50 137.592 50H165.408C165.735 50 166 50.224 166 50.5C166 50.776 165.735 51 165.408 51Z" fill="#0E0F11"/>
<path fill-rule="evenodd" clip-rule="evenodd" d="M137.5 51C137.224 51 137 50.7013 137 50.3333V47.6667C137 47.2987 137.224 47 137.5 47C137.776 47 138 47.2987 138 47.6667V50.3333C138 50.7013 137.776 51 137.5 51Z" fill="#0E0F11"/>
<path fill-rule="evenodd" clip-rule="evenodd" d="M193.154 137.824H205.846V120.176H193.154V137.824ZM206.423 139H192.577C192.258 139 192 138.737 192 138.412V119.588C192 119.263 192.258 119 192.577 119H206.423C206.742 119 207 119.263 207 119.588V138.412C207 138.737 206.742 139 206.423 139Z" fill="#0E0F11"/>
<path fill-rule="evenodd" clip-rule="evenodd" d="M208.667 134C208.298 134 208 133.736 208 133.409C208 133.082 208.298 132.818 208.667 132.818C209.769 132.818 210.667 132.023 210.667 131.045V123.955C210.667 122.977 209.769 122.182 208.667 122.182C208.298 122.182 208 121.918 208 121.591C208 121.264 208.298 121 208.667 121C210.505 121 212 122.325 212 123.955V131.045C212 132.675 210.505 134 208.667 134Z" fill="#0E0F11"/>
<path fill-rule="evenodd" clip-rule="evenodd" d="M209.333 122H206.667C206.298 122 206 121.776 206 121.5C206 121.224 206.298 121 206.667 121H209.333C209.702 121 210 121.224 210 121.5C210 121.776 209.702 122 209.333 122Z" fill="#0E0F11"/>
<path fill-rule="evenodd" clip-rule="evenodd" d="M29.2 135.778H44.8V127.222H29.2V135.778ZM45.4 137H28.6C28.2688 137 28 136.727 28 136.389V126.611C28 126.273 28.2688 126 28.6 126H45.4C45.7312 126 46 126.273 46 126.611V136.389C46 136.727 45.7312 137 45.4 137Z" fill="#0E0F11"/>
<path fill-rule="evenodd" clip-rule="evenodd" d="M34 137C34 137.552 33.5525 138 33 138C32.448 138 32 137.552 32 137C32 136.448 32.448 136 33 136C33.5525 136 34 136.448 34 137Z" fill="#FFFFFE"/>
<path fill-rule="evenodd" clip-rule="evenodd" d="M33 136.333C32.6327 136.333 32.3333 136.632 32.3333 137C32.3333 137.368 32.6327 137.667 33 137.667C33.3673 137.667 33.6667 137.368 33.6667 137C33.6667 136.632 33.3673 136.333 33 136.333ZM33 139C31.8973 139 31 138.103 31 137C31 135.897 31.8973 135 33 135C34.1027 135 35 135.897 35 137C35 138.103 34.1027 139 33 139Z" fill="#0E0F11"/>
<path fill-rule="evenodd" clip-rule="evenodd" d="M36 137C36 137.552 35.5525 138 35 138C34.448 138 34 137.552 34 137C34 136.448 34.448 136 35 136C35.5525 136 36 136.448 36 137Z" fill="#FFFFFE"/>
<path fill-rule="evenodd" clip-rule="evenodd" d="M35 136.333C34.6327 136.333 34.3333 136.632 34.3333 137C34.3333 137.368 34.6327 137.667 35 137.667C35.3673 137.667 35.6667 137.368 35.6667 137C35.6667 136.632 35.3673 136.333 35 136.333ZM35 139C33.8973 139 33 138.103 33 137C33 135.897 33.8973 135 35 135C36.1027 135 37 135.897 37 137C37 138.103 36.1027 139 35 139Z" fill="#0E0F11"/>
<path fill-rule="evenodd" clip-rule="evenodd" d="M53 136H46V129H50.6667L53 131.333V136Z" fill="#FFFFFE"/>
<path fill-rule="evenodd" clip-rule="evenodd" d="M46.1429 134.857H51.8571V131.094L49.9063 129.143H46.1429V134.857ZM52.4286 136H45.5714C45.256 136 45 135.745 45 135.429V128.571C45 128.255 45.256 128 45.5714 128H50.1429C50.2943 128 50.44 128.06 50.5469 128.167L52.8326 130.453C52.94 130.56 53 130.705 53 130.857V135.429C53 135.745 52.744 136 52.4286 136Z" fill="#0E0F11"/>
<path fill-rule="evenodd" clip-rule="evenodd" d="M52.4 132H47.6C47.2688 132 47 131.702 47 131.333V128.667C47 128.298 47.2688 128 47.6 128C47.9312 128 48.2 128.298 48.2 128.667V130.667H52.4C52.7312 130.667 53 130.965 53 131.333C53 131.702 52.7312 132 52.4 132Z" fill="#0E0F11"/>
<path fill-rule="evenodd" clip-rule="evenodd" d="M50 137C50 137.552 49.552 138 49 138C48.448 138 48 137.552 48 137C48 136.448 48.448 136 49 136C49.552 136 50 136.448 50 137Z" fill="#FFFFFE"/>
<path fill-rule="evenodd" clip-rule="evenodd" d="M49 136.333C48.6327 136.333 48.3333 136.632 48.3333 137C48.3333 137.368 48.6327 137.667 49 137.667C49.3673 137.667 49.6667 137.368 49.6667 137C49.6667 136.632 49.3673 136.333 49 136.333ZM49 139C47.8973 139 47 138.103 47 137C47 135.897 47.8973 135 49 135C50.1027 135 51 135.897 51 137C51 138.103 50.1027 139 49 139Z" fill="#0E0F11"/>
<path fill-rule="evenodd" clip-rule="evenodd" d="M45.4 134H28.6C28.2688 134 28 133.776 28 133.5C28 133.224 28.2688 133 28.6 133H45.4C45.7312 133 46 133.224 46 133.5C46 133.776 45.7312 134 45.4 134Z" fill="#0E0F11"/>
<path fill-rule="evenodd" clip-rule="evenodd" d="M45.4 129H28.6C28.2688 129 28 128.776 28 128.5C28 128.224 28.2688 128 28.6 128H45.4C45.7312 128 46 128.224 46 128.5C46 128.776 45.7312 129 45.4 129Z" fill="#0E0F11"/>
<path fill-rule="evenodd" clip-rule="evenodd" d="M150.2 137.667H153.8V136.333H150.2V137.667ZM154.4 139H149.6C149.268 139 149 138.702 149 138.333V135.667C149 135.298 149.268 135 149.6 135H154.4C154.732 135 155 135.298 155 135.667V138.333C155 138.702 154.732 139 154.4 139Z" fill="#0E0F11"/>
<path fill-rule="evenodd" clip-rule="evenodd" d="M152.2 135.667H155.8V134.333H152.2V135.667ZM156.4 137H151.6C151.268 137 151 136.702 151 136.333V133.667C151 133.298 151.268 133 151.6 133H156.4C156.732 133 157 133.298 157 133.667V136.333C157 136.702 156.732 137 156.4 137Z" fill="#0E0F11"/>
<path fill-rule="evenodd" clip-rule="evenodd" d="M155.2 137.667H158.8V136.333H155.2V137.667ZM159.4 139H154.6C154.268 139 154 138.702 154 138.333V135.667C154 135.298 154.268 135 154.6 135H159.4C159.732 135 160 135.298 160 135.667V138.333C160 138.702 159.732 139 159.4 139Z" fill="#0E0F11"/>
<path fill-rule="evenodd" clip-rule="evenodd" d="M159.2 137.667H162.8V136.333H159.2V137.667ZM163.4 139H158.6C158.268 139 158 138.702 158 138.333V135.667C158 135.298 158.268 135 158.6 135H163.4C163.732 135 164 135.298 164 135.667V138.333C164 138.702 163.732 139 163.4 139Z" fill="#0E0F11"/>
<path fill-rule="evenodd" clip-rule="evenodd" d="M227.423 137C227.293 137 227.162 136.95 227.054 136.846C225.388 135.249 222.999 134.333 220.5 134.333C218.001 134.333 215.612 135.249 213.946 136.846C213.699 137.082 213.335 137.042 213.133 136.759C212.93 136.475 212.964 136.055 213.208 135.82C215.079 134.028 217.737 133 220.5 133C223.263 133 225.921 134.028 227.792 135.82C228.036 136.055 228.07 136.475 227.867 136.759C227.753 136.918 227.589 137 227.423 137Z" fill="#0E0F11"/>
<path fill-rule="evenodd" clip-rule="evenodd" d="M213.5 139C213.224 139 213 138.702 213 138.333V135.667C213 135.298 213.224 135 213.5 135C213.776 135 214 135.298 214 135.667V138.333C214 138.702 213.776 139 213.5 139Z" fill="#0E0F11"/>
<path fill-rule="evenodd" clip-rule="evenodd" d="M227.5 139C227.224 139 227 138.702 227 138.333V135.667C227 135.298 227.224 135 227.5 135C227.776 135 228 135.298 228 135.667V138.333C228 138.702 227.776 139 227.5 139Z" fill="#0E0F11"/>
<path fill-rule="evenodd" clip-rule="evenodd" d="M219.364 136H213.636C213.284 136 213 135.776 213 135.5C213 135.224 213.284 135 213.636 135H219.364C219.716 135 220 135.224 220 135.5C220 135.776 219.716 136 219.364 136Z" fill="#0E0F11"/>
<path fill-rule="evenodd" clip-rule="evenodd" d="M221.333 136H220.667C220.298 136 220 135.776 220 135.5C220 135.224 220.298 135 220.667 135H221.333C221.702 135 222 135.224 222 135.5C222 135.776 221.702 136 221.333 136Z" fill="#0E0F11"/>
<path fill-rule="evenodd" clip-rule="evenodd" d="M108.407 44.4074C108.407 52.9164 101.509 59.8148 93 59.8148C84.491 59.8148 77.5926 52.9164 77.5926 44.4074C77.5926 35.8984 84.491 29 93 29C101.509 29 108.407 35.8984 108.407 44.4074Z" fill="#54B1AC"/>
<path fill-rule="evenodd" clip-rule="evenodd" d="M106.037 45C106.037 52.2 100.2 58.037 93 58.037C85.8 58.037 79.963 52.2 79.963 45C79.963 37.8 85.8 31.963 93 31.963C100.2 31.963 106.037 37.8 106.037 45Z" fill="#FFFFFE"/>
<path fill-rule="evenodd" clip-rule="evenodd" d="M93 32.5555C86.1378 32.5555 80.5555 38.1378 80.5555 45C80.5555 51.8622 86.1378 57.4444 93 57.4444C99.8622 57.4444 105.444 51.8622 105.444 45C105.444 38.1378 99.8622 32.5555 93 32.5555ZM93 58.6296C85.4847 58.6296 79.3704 52.5153 79.3704 45C79.3704 37.4847 85.4847 31.3704 93 31.3704C100.515 31.3704 106.63 37.4847 106.63 45C106.63 52.5153 100.515 58.6296 93 58.6296Z" fill="#0E0F11"/>
<path fill-rule="evenodd" clip-rule="evenodd" d="M93 30.1852C84.8311 30.1852 78.1852 36.8311 78.1852 45C78.1852 53.1689 84.8311 59.8148 93 59.8148C101.169 59.8148 107.815 53.1689 107.815 45C107.815 36.8311 101.169 30.1852 93 30.1852ZM93 61C84.1775 61 77 53.8225 77 45C77 36.1775 84.1775 29 93 29C101.823 29 109 36.1775 109 45C109 53.8225 101.823 61 93 61Z" fill="#0E0F11"/>
<path fill-rule="evenodd" clip-rule="evenodd" d="M92.4074 45V36.7037C92.4074 36.3766 92.6729 36.1111 93 36.1111C93.3271 36.1111 93.5926 36.3766 93.5926 36.7037V45C93.5926 45.3271 93.3271 45.5926 93 45.5926C92.6729 45.5926 92.4074 45.3271 92.4074 45Z" fill="#0E0F11"/>
<path fill-rule="evenodd" clip-rule="evenodd" d="M93.0006 45.7407C92.7902 45.7407 92.5864 45.6287 92.4791 45.4302C92.3227 45.1428 92.4299 44.7831 92.7179 44.6273L97.4587 42.059C97.7461 41.9019 98.1058 42.0104 98.2616 42.2978C98.4181 42.5858 98.3108 42.9455 98.0228 43.1013L93.2821 45.669C93.1926 45.7176 93.096 45.7407 93.0006 45.7407Z" fill="#0E0F11"/>
<path fill-rule="evenodd" clip-rule="evenodd" d="M90.2385 55.3052C90.0845 55.3052 89.9304 55.24 89.8178 55.1333C89.7111 55.0207 89.6459 54.8667 89.6459 54.7126C89.6459 54.5526 89.7111 54.4044 89.8178 54.2919C90.043 54.0726 90.44 54.0726 90.6593 54.2919C90.7659 54.4044 90.8311 54.5526 90.8311 54.7126C90.8311 54.8667 90.7659 55.0207 90.6593 55.1274C90.5467 55.24 90.3926 55.3052 90.2385 55.3052Z" fill="#0E0F11"/>
<path fill-rule="evenodd" clip-rule="evenodd" d="M95.7615 34.6948C95.6074 34.6948 95.4533 34.6355 95.3407 34.523C95.2341 34.4104 95.1689 34.2622 95.1689 34.1022C95.1689 33.9481 95.2341 33.7941 95.3407 33.6874C95.5659 33.4622 95.957 33.4681 96.1822 33.6874C96.2889 33.7941 96.3541 33.9481 96.3541 34.1022C96.3541 34.2622 96.2889 34.4104 96.1822 34.523C96.0696 34.6355 95.9156 34.6948 95.7615 34.6948Z" fill="#0E0F11"/>
<path fill-rule="evenodd" clip-rule="evenodd" d="M87.6666 54.2385C87.5126 54.2385 87.3585 54.1733 87.2459 54.0667C87.1392 53.9541 87.074 53.8 87.074 53.6459C87.074 53.4859 87.1392 53.3318 87.2459 53.2252C87.4651 53.0059 87.8622 53.0059 88.0874 53.2252C88.194 53.3318 88.2592 53.4859 88.2592 53.6459C88.2592 53.8 88.194 53.9541 88.0874 54.0667C87.9748 54.1733 87.8207 54.2385 87.6666 54.2385Z" fill="#0E0F11"/>
<path fill-rule="evenodd" clip-rule="evenodd" d="M98.3333 35.7615C98.1733 35.7615 98.0252 35.6963 97.9126 35.5896C97.8059 35.477 97.7407 35.3289 97.7407 35.1689C97.7407 35.0148 97.8059 34.8607 97.9126 34.7482C98.1318 34.5289 98.5348 34.5289 98.7541 34.7482C98.8607 34.8607 98.9259 35.0148 98.9259 35.1689C98.9259 35.323 98.8607 35.477 98.7541 35.5896C98.6415 35.6963 98.4933 35.7615 98.3333 35.7615Z" fill="#0E0F11"/>
<path fill-rule="evenodd" clip-rule="evenodd" d="M85.4563 52.5437C85.3022 52.5437 85.1482 52.4785 85.0415 52.3718C84.9289 52.2592 84.8637 52.1052 84.8637 51.9511C84.8637 51.7911 84.9289 51.6429 85.0356 51.5304C85.2607 51.3111 85.6578 51.3111 85.877 51.5304C85.9837 51.637 86.0489 51.7911 86.0489 51.9511C86.0489 52.1052 85.9896 52.2592 85.877 52.3718C85.7644 52.4785 85.6104 52.5437 85.4563 52.5437Z" fill="#0E0F11"/>
<path fill-rule="evenodd" clip-rule="evenodd" d="M100.544 37.4563C100.384 37.4563 100.236 37.397 100.123 37.2844C100.01 37.1718 99.9511 37.0178 99.9511 36.8637C99.9511 36.7096 100.01 36.5555 100.123 36.4429C100.342 36.2237 100.739 36.2237 100.964 36.4429C101.071 36.5555 101.136 36.7096 101.136 36.8637C101.136 37.0178 101.071 37.1718 100.964 37.2844C100.852 37.397 100.698 37.4563 100.544 37.4563Z" fill="#0E0F11"/>
<path fill-rule="evenodd" clip-rule="evenodd" d="M83.7615 50.3333C83.6074 50.3333 83.4533 50.2681 83.3467 50.1615C83.2341 50.0489 83.1689 49.8948 83.1689 49.7407C83.1689 49.5867 83.2341 49.4326 83.3407 49.32C83.5659 49.1007 83.963 49.1007 84.1822 49.32C84.2889 49.4326 84.3541 49.5807 84.3541 49.7407C84.3541 49.8948 84.2889 50.0489 84.1822 50.1615C84.0696 50.2681 83.9156 50.3333 83.7615 50.3333Z" fill="#0E0F11"/>
<path fill-rule="evenodd" clip-rule="evenodd" d="M102.239 39.6667C102.079 39.6667 101.93 39.6015 101.818 39.4948C101.705 39.3822 101.646 39.2282 101.646 39.0741C101.646 38.92 101.711 38.7659 101.818 38.6533C102.037 38.4341 102.434 38.4341 102.659 38.6533C102.766 38.7659 102.831 38.92 102.831 39.0741C102.831 39.2282 102.766 39.3822 102.659 39.4948C102.547 39.6015 102.393 39.6667 102.239 39.6667Z" fill="#0E0F11"/>
<path fill-rule="evenodd" clip-rule="evenodd" d="M82.6948 47.7615C82.5408 47.7615 82.3867 47.6963 82.28 47.5896C82.1674 47.477 82.1022 47.323 82.1022 47.1689C82.1022 47.0148 82.1674 46.8607 82.28 46.7482C82.4993 46.5289 82.8963 46.5289 83.1156 46.7482C83.2282 46.8607 83.2874 47.0148 83.2874 47.1689C83.2874 47.323 83.2282 47.477 83.1156 47.5896C83.003 47.6963 82.8548 47.7615 82.6948 47.7615Z" fill="#0E0F11"/>
<path fill-rule="evenodd" clip-rule="evenodd" d="M103.305 42.2385C103.145 42.2385 102.991 42.1733 102.884 42.0667C102.772 41.9541 102.713 41.8059 102.713 41.6459C102.713 41.4918 102.772 41.3378 102.884 41.2252C103.104 41.0059 103.501 41.0059 103.72 41.2252C103.833 41.3378 103.898 41.4918 103.898 41.6459C103.898 41.8 103.833 41.9541 103.72 42.0667C103.613 42.1733 103.459 42.2385 103.305 42.2385Z" fill="#0E0F11"/>
<path fill-rule="evenodd" clip-rule="evenodd" d="M82.3333 45C82.1792 45 82.0252 44.9348 81.9126 44.8281C81.8059 44.7155 81.7407 44.5615 81.7407 44.4074C81.7407 44.2533 81.8059 44.0992 81.9126 43.9866C82.1378 43.7674 82.5348 43.7674 82.7541 43.9866C82.8607 44.0992 82.9259 44.2474 82.9259 44.4074C82.9259 44.5615 82.8607 44.7155 82.7541 44.8281C82.6415 44.9348 82.4874 45 82.3333 45Z" fill="#0E0F11"/>
<path fill-rule="evenodd" clip-rule="evenodd" d="M103.667 45C103.513 45 103.358 44.9348 103.246 44.8281C103.139 44.7155 103.074 44.5615 103.074 44.4074C103.074 44.2533 103.139 44.0992 103.246 43.9866C103.471 43.7674 103.868 43.7674 104.087 43.9866C104.194 44.0992 104.259 44.2533 104.259 44.4074C104.259 44.5615 104.194 44.7155 104.087 44.8281C103.975 44.9348 103.821 45 103.667 45Z" fill="#0E0F11"/>
<path fill-rule="evenodd" clip-rule="evenodd" d="M82.6948 42.2385C82.5408 42.2385 82.3867 42.1733 82.28 42.0667C82.1674 41.9541 82.1022 41.8 82.1022 41.6459C82.1022 41.4918 82.1674 41.3378 82.28 41.2252C82.4933 41.0059 82.8963 41.0059 83.1156 41.2252C83.2282 41.3378 83.2874 41.4918 83.2874 41.6459C83.2874 41.8 83.2282 41.9541 83.1156 42.0667C83.0089 42.1733 82.8548 42.2385 82.6948 42.2385Z" fill="#0E0F11"/>
<path fill-rule="evenodd" clip-rule="evenodd" d="M103.305 47.7615C103.145 47.7615 102.997 47.6963 102.884 47.5896C102.772 47.477 102.713 47.323 102.713 47.1689C102.713 47.0148 102.772 46.8607 102.884 46.7482C103.104 46.5289 103.501 46.5289 103.72 46.7482C103.833 46.8607 103.898 47.0148 103.898 47.1689C103.898 47.323 103.833 47.477 103.72 47.5896C103.613 47.6963 103.459 47.7615 103.305 47.7615Z" fill="#0E0F11"/>
<path fill-rule="evenodd" clip-rule="evenodd" d="M83.7615 39.6667C83.6074 39.6667 83.4533 39.6015 83.3407 39.4948C83.2341 39.3822 83.1689 39.2282 83.1689 39.0741C83.1689 38.92 83.2341 38.7659 83.3467 38.6533C83.5659 38.4341 83.957 38.4341 84.1822 38.6533C84.2948 38.7659 84.3541 38.92 84.3541 39.0741C84.3541 39.2282 84.2948 39.3822 84.1822 39.4948C84.0696 39.6015 83.9156 39.6667 83.7615 39.6667Z" fill="#0E0F11"/>
<path fill-rule="evenodd" clip-rule="evenodd" d="M102.239 50.3333C102.084 50.3333 101.93 50.2681 101.818 50.1615C101.711 50.0489 101.646 49.8948 101.646 49.7407C101.646 49.5867 101.711 49.4326 101.818 49.32C102.037 49.1007 102.434 49.1007 102.659 49.32C102.766 49.4326 102.831 49.5867 102.831 49.7407C102.831 49.8948 102.766 50.0489 102.659 50.1615C102.547 50.2681 102.393 50.3333 102.239 50.3333Z" fill="#0E0F11"/>
<path fill-rule="evenodd" clip-rule="evenodd" d="M85.4563 37.4563C85.3022 37.4563 85.1482 37.397 85.0356 37.2844C84.9289 37.1718 84.8637 37.0237 84.8637 36.8637C84.8637 36.7096 84.9289 36.5555 85.0356 36.4489C85.2607 36.2237 85.6519 36.2237 85.877 36.4429C85.9896 36.5555 86.0489 36.7096 86.0489 36.8637C86.0489 37.0237 85.9896 37.1718 85.877 37.2844C85.7644 37.397 85.6163 37.4563 85.4563 37.4563Z" fill="#0E0F11"/>
<path fill-rule="evenodd" clip-rule="evenodd" d="M100.544 52.5437C100.384 52.5437 100.236 52.4785 100.123 52.3718C100.01 52.2592 99.9511 52.1052 99.9511 51.9511C99.9511 51.7911 100.016 51.6429 100.123 51.5304C100.342 51.3111 100.745 51.3111 100.964 51.5304C101.071 51.6429 101.136 51.7911 101.136 51.9511C101.136 52.1052 101.071 52.2592 100.964 52.3659C100.852 52.4785 100.698 52.5437 100.544 52.5437Z" fill="#0E0F11"/>
<path fill-rule="evenodd" clip-rule="evenodd" d="M87.6666 35.7615C87.5126 35.7615 87.3585 35.7022 87.2459 35.5896C87.1392 35.477 87.074 35.3289 87.074 35.1689C87.074 35.0148 87.1392 34.8607 87.2459 34.7541C87.4711 34.5289 87.8681 34.5289 88.0874 34.7541C88.194 34.8607 88.2592 35.0148 88.2592 35.1689C88.2592 35.3289 88.194 35.477 88.0874 35.5896C87.9748 35.7022 87.8207 35.7615 87.6666 35.7615Z" fill="#0E0F11"/>
<path fill-rule="evenodd" clip-rule="evenodd" d="M98.3333 54.2385C98.1733 54.2385 98.0252 54.1733 97.9126 54.0607C97.8059 53.9541 97.7407 53.8 97.7407 53.6459C97.7407 53.4859 97.8059 53.3318 97.9126 53.2252C98.1318 53.0059 98.5348 53.0059 98.7541 53.2252C98.8607 53.3378 98.9259 53.4918 98.9259 53.6459C98.9259 53.8 98.8607 53.9541 98.7541 54.0667C98.6415 54.1733 98.4933 54.2385 98.3333 54.2385Z" fill="#0E0F11"/>
<path fill-rule="evenodd" clip-rule="evenodd" d="M90.2385 34.6948C90.0845 34.6948 89.9304 34.6355 89.8178 34.523C89.7111 34.4163 89.6459 34.2622 89.6459 34.1022C89.6459 33.9481 89.7111 33.7941 89.8178 33.6874C90.037 33.4681 90.4341 33.4622 90.6593 33.6815C90.7719 33.8 90.8311 33.9481 90.8311 34.1022C90.8311 34.2622 90.7719 34.4104 90.6593 34.523C90.5467 34.6355 90.3926 34.6948 90.2385 34.6948Z" fill="#0E0F11"/>
<path fill-rule="evenodd" clip-rule="evenodd" d="M95.7615 55.3052C95.6074 55.3052 95.4533 55.24 95.3407 55.1333C95.2341 55.0207 95.1689 54.8667 95.1689 54.7126C95.1689 54.5585 95.2341 54.4044 95.3407 54.2919C95.5659 54.0726 95.957 54.0726 96.1822 54.2919C96.2889 54.4044 96.3541 54.5585 96.3541 54.7126C96.3541 54.8667 96.2889 55.0207 96.1822 55.1274C96.0696 55.24 95.9156 55.3052 95.7615 55.3052Z" fill="#0E0F11"/>
<path fill-rule="evenodd" clip-rule="evenodd" d="M93 34.3333C92.8459 34.3333 92.6919 34.2681 92.5793 34.1615C92.4726 34.0489 92.4074 33.8948 92.4074 33.7407C92.4074 33.5867 92.4726 33.4326 92.5793 33.32C92.8044 33.1007 93.2015 33.1007 93.4207 33.32C93.5274 33.4326 93.5926 33.5867 93.5926 33.7407C93.5926 33.9007 93.5274 34.0489 93.4207 34.1615C93.3082 34.2681 93.1541 34.3333 93 34.3333Z" fill="#0E0F11"/>
<path fill-rule="evenodd" clip-rule="evenodd" d="M93 55.6667C92.8459 55.6667 92.6919 55.6015 92.5793 55.4948C92.4726 55.3822 92.4074 55.2282 92.4074 55.0741C92.4074 54.92 92.4726 54.7659 92.5793 54.6533C92.8044 54.4341 93.2015 54.4341 93.4207 54.6533C93.5274 54.7659 93.5926 54.92 93.5926 55.0741C93.5926 55.2282 93.5274 55.3822 93.4207 55.4948C93.3082 55.6015 93.1541 55.6667 93 55.6667Z" fill="#0E0F11"/>
<path fill-rule="evenodd" clip-rule="evenodd" d="M196.5 151C196.37 151 196.239 150.945 196.145 150.854C196.054 150.758 196 150.628 196 150.497C196 150.366 196.054 150.235 196.145 150.14C196.33 149.953 196.665 149.953 196.855 150.14C196.945 150.235 197 150.366 197 150.497C197 150.628 196.945 150.758 196.855 150.854C196.76 150.945 196.63 151 196.5 151Z" fill="#0E0F11"/>
<path fill-rule="evenodd" clip-rule="evenodd" d="M199 150.5C199 150.225 199.268 150 199.595 150C199.923 150 200.19 150.225 200.19 150.5C200.19 150.775 199.923 151 199.595 151C199.268 151 199 150.775 199 150.5ZM201.381 150.5C201.381 150.225 201.649 150 201.976 150C202.304 150 202.571 150.225 202.571 150.5C202.571 150.775 202.304 151 201.976 151C201.649 151 201.381 150.775 201.381 150.5ZM203.762 150.5C203.762 150.225 204.03 150 204.357 150C204.685 150 204.952 150.225 204.952 150.5C204.952 150.775 204.685 151 204.357 151C204.03 151 203.762 150.775 203.762 150.5ZM206.143 150.5C206.143 150.225 206.411 150 206.738 150C207.065 150 207.333 150.225 207.333 150.5C207.333 150.775 207.065 151 206.738 151C206.411 151 206.143 150.775 206.143 150.5ZM208.524 150.5C208.524 150.225 208.792 150 209.119 150C209.446 150 209.714 150.225 209.714 150.5C209.714 150.775 209.446 151 209.119 151C208.792 151 208.524 150.775 208.524 150.5ZM210.905 150.5C210.905 150.225 211.173 150 211.5 150C211.827 150 212.095 150.225 212.095 150.5C212.095 150.775 211.827 151 211.5 151C211.173 151 210.905 150.775 210.905 150.5ZM213.286 150.5C213.286 150.225 213.554 150 213.881 150C214.208 150 214.476 150.225 214.476 150.5C214.476 150.775 214.208 151 213.881 151C213.554 151 213.286 150.775 213.286 150.5ZM215.667 150.5C215.667 150.225 215.935 150 216.262 150C216.589 150 216.857 150.225 216.857 150.5C216.857 150.775 216.589 151 216.262 151C215.935 151 215.667 150.775 215.667 150.5ZM218.048 150.5C218.048 150.225 218.315 150 218.643 150C218.97 150 219.238 150.225 219.238 150.5C219.238 150.775 218.97 151 218.643 151C218.315 151 218.048 150.775 218.048 150.5ZM220.429 150.5C220.429 150.225 220.696 150 221.024 150C221.351 150 221.619 150.225 221.619 150.5C221.619 150.775 221.351 151 221.024 151C220.696 151 220.429 150.775 220.429 150.5ZM222.81 150.5C222.81 150.225 223.077 150 223.405 150C223.732 150 224 150.225 224 150.5C224 150.775 223.732 151 223.405 151C223.077 151 222.81 150.775 222.81 150.5Z" fill="#0E0F11"/>
<path fill-rule="evenodd" clip-rule="evenodd" d="M225.5 151C225.37 151 225.239 150.945 225.145 150.854C225.054 150.758 225 150.628 225 150.497C225 150.361 225.054 150.235 225.145 150.14C225.33 149.953 225.665 149.953 225.855 150.14C225.945 150.235 226 150.366 226 150.497C226 150.628 225.945 150.758 225.855 150.854C225.76 150.949 225.63 151 225.5 151Z" fill="#0E0F11"/>
<path fill-rule="evenodd" clip-rule="evenodd" d="M167.429 153H160.571C160.255 153 160 152.776 160 152.5C160 152.224 160.255 152 160.571 152H167.429C167.745 152 168 152.224 168 152.5C168 152.776 167.745 153 167.429 153Z" fill="#0E0F11"/>
<path fill-rule="evenodd" clip-rule="evenodd" d="M45.3889 153H35.6111C35.2738 153 35 152.776 35 152.5C35 152.224 35.2738 152 35.6111 152H45.3889C45.7262 152 46 152.224 46 152.5C46 152.776 45.7262 153 45.3889 153Z" fill="#0E0F11"/>
<path fill-rule="evenodd" clip-rule="evenodd" d="M48.4 155H43.6C43.2688 155 43 154.776 43 154.5C43 154.224 43.2688 154 43.6 154H48.4C48.7312 154 49 154.224 49 154.5C49 154.776 48.7312 155 48.4 155Z" fill="#0E0F11"/>
<path fill-rule="evenodd" clip-rule="evenodd" d="M154.4 34H149.6C149.268 34 149 33.776 149 33.5C149 33.224 149.268 33 149.6 33H154.4C154.732 33 155 33.224 155 33.5C155 33.776 154.732 34 154.4 34Z" fill="#0E0F11"/>
<path fill-rule="evenodd" clip-rule="evenodd" d="M152.5 32C152.37 32 152.239 31.9447 152.145 31.8541C152.054 31.7585 152 31.6327 152 31.4969C152 31.361 152.054 31.2352 152.145 31.1396C152.33 30.9535 152.67 30.9535 152.855 31.1396C152.945 31.2352 153 31.366 153 31.4969C153 31.6277 152.945 31.7585 152.855 31.8541C152.76 31.9447 152.63 32 152.5 32Z" fill="#0E0F11"/>
<path fill-rule="evenodd" clip-rule="evenodd" d="M154 31.5C154 31.225 154.27 31 154.6 31C154.93 31 155.2 31.225 155.2 31.5C155.2 31.775 154.93 32 154.6 32C154.27 32 154 31.775 154 31.5ZM156.4 31.5C156.4 31.225 156.67 31 157 31C157.33 31 157.6 31.225 157.6 31.5C157.6 31.775 157.33 32 157 32C156.67 32 156.4 31.775 156.4 31.5ZM158.8 31.5C158.8 31.225 159.07 31 159.4 31C159.73 31 160 31.225 160 31.5C160 31.775 159.73 32 159.4 32C159.07 32 158.8 31.775 158.8 31.5Z" fill="#0E0F11"/>
<path fill-rule="evenodd" clip-rule="evenodd" d="M161.5 32C161.364 32 161.239 31.9447 161.145 31.8541C161.054 31.7585 161 31.6327 161 31.4969C161 31.361 161.055 31.2352 161.15 31.1396C161.33 30.9535 161.67 30.9535 161.855 31.1396C161.945 31.2352 162 31.361 162 31.4969C162 31.6327 161.945 31.7585 161.855 31.8541C161.76 31.9447 161.635 32 161.5 32Z" fill="#0E0F11"/>
<path fill-rule="evenodd" clip-rule="evenodd" d="M107.333 68H104.667C104.299 68 104 67.776 104 67.5C104 67.224 104.299 67 104.667 67H107.333C107.701 67 108 67.224 108 67.5C108 67.776 107.701 68 107.333 68Z" fill="#0E0F11"/>
<path fill-rule="evenodd" clip-rule="evenodd" d="M43.5 151C43.37 151 43.24 150.945 43.145 150.854C43.055 150.758 43 150.628 43 150.497C43 150.361 43.055 150.235 43.145 150.14C43.33 149.953 43.665 149.953 43.855 150.14C43.945 150.235 44 150.366 44 150.497C44 150.628 43.945 150.758 43.855 150.854C43.76 150.945 43.63 151 43.5 151Z" fill="#0E0F11"/>
<path fill-rule="evenodd" clip-rule="evenodd" d="M45 150.5C45 150.225 45.2605 150 45.5789 150C45.8974 150 46.1579 150.225 46.1579 150.5C46.1579 150.775 45.8974 151 45.5789 151C45.2605 151 45 150.775 45 150.5ZM47.3158 150.5C47.3158 150.225 47.5763 150 47.8947 150C48.2132 150 48.4737 150.225 48.4737 150.5C48.4737 150.775 48.2132 151 47.8947 151C47.5763 151 47.3158 150.775 47.3158 150.5ZM49.6316 150.5C49.6316 150.225 49.8921 150 50.2105 150C50.5289 150 50.7895 150.225 50.7895 150.5C50.7895 150.775 50.5289 151 50.2105 151C49.8921 151 49.6316 150.775 49.6316 150.5ZM51.9474 150.5C51.9474 150.225 52.2079 150 52.5263 150C52.8447 150 53.1053 150.225 53.1053 150.5C53.1053 150.775 52.8447 151 52.5263 151C52.2079 151 51.9474 150.775 51.9474 150.5ZM54.2632 150.5C54.2632 150.225 54.5237 150 54.8421 150C55.1605 150 55.4211 150.225 55.4211 150.5C55.4211 150.775 55.1605 151 54.8421 151C54.5237 151 54.2632 150.775 54.2632 150.5ZM56.5789 150.5C56.5789 150.225 56.8395 150 57.1579 150C57.4763 150 57.7368 150.225 57.7368 150.5C57.7368 150.775 57.4763 151 57.1579 151C56.8395 151 56.5789 150.775 56.5789 150.5ZM58.8947 150.5C58.8947 150.225 59.1553 150 59.4737 150C59.7921 150 60.0526 150.225 60.0526 150.5C60.0526 150.775 59.7921 151 59.4737 151C59.1553 151 58.8947 150.775 58.8947 150.5ZM61.2105 150.5C61.2105 150.225 61.4711 150 61.7895 150C62.1079 150 62.3684 150.225 62.3684 150.5C62.3684 150.775 62.1079 151 61.7895 151C61.4711 151 61.2105 150.775 61.2105 150.5ZM63.5263 150.5C63.5263 150.225 63.7868 150 64.1053 150C64.4237 150 64.6842 150.225 64.6842 150.5C64.6842 150.775 64.4237 151 64.1053 151C63.7868 151 63.5263 150.775 63.5263 150.5ZM65.8421 150.5C65.8421 150.225 66.1026 150 66.4211 150C66.7395 150 67 150.225 67 150.5C67 150.775 66.7395 151 66.4211 151C66.1026 151 65.8421 150.775 65.8421 150.5Z" fill="#0E0F11"/>
<path fill-rule="evenodd" clip-rule="evenodd" d="M69.5 151C69.37 151 69.24 150.945 69.145 150.854C69.055 150.758 69 150.628 69 150.497C69 150.366 69.055 150.235 69.145 150.14C69.33 149.953 69.665 149.953 69.855 150.14C69.945 150.235 70 150.361 70 150.497C70 150.633 69.945 150.758 69.855 150.854C69.76 150.945 69.63 151 69.5 151Z" fill="#0E0F11"/>
<path fill-rule="evenodd" clip-rule="evenodd" d="M201.405 148H177.595C177.266 148 177 147.776 177 147.5C177 147.224 177.266 147 177.595 147H201.405C201.734 147 202 147.224 202 147.5C202 147.776 201.734 148 201.405 148Z" fill="#0E0F11"/>
<path fill-rule="evenodd" clip-rule="evenodd" d="M216 108.2C215.008 108.2 214.2 109.008 214.2 110C214.2 110.992 215.008 111.8 216 111.8C216.992 111.8 217.8 110.992 217.8 110C217.8 109.008 216.992 108.2 216 108.2ZM216 113C214.346 113 213 111.654 213 110C213 108.346 214.346 107 216 107C217.654 107 219 108.346 219 110C219 111.654 217.654 113 216 113Z" fill="#0E0F11"/>
<path fill-rule="evenodd" clip-rule="evenodd" d="M99 160.333C98.6327 160.333 98.3333 160.632 98.3333 161C98.3333 161.368 98.6327 161.667 99 161.667C99.3673 161.667 99.6667 161.368 99.6667 161C99.6667 160.632 99.3673 160.333 99 160.333ZM99 163C97.8973 163 97 162.103 97 161C97 159.897 97.8973 159 99 159C100.103 159 101 159.897 101 161C101 162.103 100.103 163 99 163Z" fill="#0E0F11"/>
<path fill-rule="evenodd" clip-rule="evenodd" d="M42 72.2C41.0076 72.2 40.2 73.0076 40.2 74C40.2 74.9924 41.0076 75.8 42 75.8C42.9924 75.8 43.8 74.9924 43.8 74C43.8 73.0076 42.9924 72.2 42 72.2ZM42 77C40.3458 77 39 75.6542 39 74C39 72.3458 40.3458 71 42 71C43.6542 71 45 72.3458 45 74C45 75.6542 43.6542 77 42 77Z" fill="#0E0F11"/>
<path fill-rule="evenodd" clip-rule="evenodd" d="M243 146.333C242.632 146.333 242.333 146.632 242.333 147C242.333 147.368 242.632 147.667 243 147.667C243.368 147.667 243.667 147.368 243.667 147C243.667 146.632 243.368 146.333 243 146.333ZM243 149C241.897 149 241 148.103 241 147C241 145.897 241.897 145 243 145C244.103 145 245 145.897 245 147C245 148.103 244.103 149 243 149Z" fill="#0E0F11"/>
<path fill-rule="evenodd" clip-rule="evenodd" d="M11 124.333C10.6327 124.333 10.3333 124.632 10.3333 125C10.3333 125.368 10.6327 125.667 11 125.667C11.3673 125.667 11.6667 125.368 11.6667 125C11.6667 124.632 11.3673 124.333 11 124.333ZM11 127C9.89733 127 9 126.103 9 125C9 123.897 9.89733 123 11 123C12.1027 123 13 123.897 13 125C13 126.103 12.1027 127 11 127Z" fill="#0E0F11"/>
<path fill-rule="evenodd" clip-rule="evenodd" d="M193 20.3333C192.632 20.3333 192.333 20.6327 192.333 21C192.333 21.3673 192.632 21.6667 193 21.6667C193.368 21.6667 193.667 21.3673 193.667 21C193.667 20.6327 193.368 20.3333 193 20.3333ZM193 23C191.897 23 191 22.1027 191 21C191 19.8973 191.897 19 193 19C194.103 19 195 19.8973 195 21C195 22.1027 194.103 23 193 23Z" fill="#0E0F11"/>
<path fill-rule="evenodd" clip-rule="evenodd" d="M244.4 91H227.6C227.268 91 227 90.7765 227 90.5C227 90.2235 227.268 90 227.6 90H244.4C244.732 90 245 90.2235 245 90.5C245 90.7765 244.732 91 244.4 91Z" fill="#0E0F11"/>
<path fill-rule="evenodd" clip-rule="evenodd" d="M232.389 94H222.611C222.273 94 222 93.7765 222 93.5C222 93.2235 222.273 93 222.611 93H232.389C232.727 93 233 93.2235 233 93.5C233 93.7765 232.727 94 232.389 94Z" fill="#0E0F11"/>
<path fill-rule="evenodd" clip-rule="evenodd" d="M216.4 60H211.6C211.268 60 211 59.776 211 59.5C211 59.224 211.268 59 211.6 59H216.4C216.732 59 217 59.224 217 59.5C217 59.776 216.732 60 216.4 60Z" fill="#0E0F11"/>
<path fill-rule="evenodd" clip-rule="evenodd" d="M144.412 148H125.588C125.264 148 125 147.776 125 147.5C125 147.224 125.264 147 125.588 147H144.412C144.737 147 145 147.224 145 147.5C145 147.776 144.737 148 144.412 148Z" fill="#0E0F11"/>
<path fill-rule="evenodd" clip-rule="evenodd" d="M34.3333 98H31.6667C31.2987 98 31 97.7765 31 97.5C31 97.2235 31.2987 97 31.6667 97H34.3333C34.7013 97 35 97.2235 35 97.5C35 97.7765 34.7013 98 34.3333 98Z" fill="#0E0F11"/>
<path fill-rule="evenodd" clip-rule="evenodd" d="M107.409 25H95.5909C95.2647 25 95 24.776 95 24.5C95 24.224 95.2647 24 95.5909 24H107.409C107.735 24 108 24.224 108 24.5C108 24.776 107.735 25 107.409 25Z" fill="#0E0F11"/>
<path fill-rule="evenodd" clip-rule="evenodd" d="M109.4 22H104.6C104.269 22 104 21.776 104 21.5C104 21.224 104.269 21 104.6 21H109.4C109.731 21 110 21.224 110 21.5C110 21.776 109.731 22 109.4 22Z" fill="#0E0F11"/>
<path fill-rule="evenodd" clip-rule="evenodd" d="M130.423 172H116.577C116.258 172 116 171.776 116 171.5C116 171.224 116.258 171 116.577 171H130.423C130.742 171 131 171.224 131 171.5C131 171.776 130.742 172 130.423 172Z" fill="#0E0F11"/>
<path fill-rule="evenodd" clip-rule="evenodd" d="M118.5 170C118.37 170 118.24 169.945 118.145 169.854C118.055 169.758 118 169.628 118 169.497C118 169.366 118.055 169.235 118.145 169.14C118.335 168.953 118.665 168.953 118.855 169.14C118.945 169.235 119 169.361 119 169.497C119 169.628 118.945 169.758 118.855 169.854C118.76 169.945 118.63 170 118.5 170Z" fill="#0E0F11"/>
<path fill-rule="evenodd" clip-rule="evenodd" d="M111 169.5C111 169.225 111.27 169 111.6 169C111.93 169 112.2 169.225 112.2 169.5C112.2 169.775 111.93 170 111.6 170C111.27 170 111 169.775 111 169.5ZM113.4 169.5C113.4 169.225 113.67 169 114 169C114.33 169 114.6 169.225 114.6 169.5C114.6 169.775 114.33 170 114 170C113.67 170 113.4 169.775 113.4 169.5ZM115.8 169.5C115.8 169.225 116.07 169 116.4 169C116.73 169 117 169.225 117 169.5C117 169.775 116.73 170 116.4 170C116.07 170 115.8 169.775 115.8 169.5Z" fill="#0E0F11"/>
<path fill-rule="evenodd" clip-rule="evenodd" d="M109.5 170C109.365 170 109.24 169.945 109.145 169.854C109.055 169.758 109 169.628 109 169.497C109 169.366 109.055 169.235 109.145 169.14C109.33 168.953 109.665 168.953 109.855 169.14C109.945 169.235 110 169.361 110 169.497C110 169.628 109.945 169.758 109.855 169.854C109.76 169.945 109.63 170 109.5 170Z" fill="#0E0F11"/>
<path fill-rule="evenodd" clip-rule="evenodd" d="M121 5.5C121 5.225 121.26 5 121.577 5C121.894 5 122.154 5.225 122.154 5.5C122.154 5.775 121.894 6 121.577 6C121.26 6 121 5.775 121 5.5ZM123.308 5.5C123.308 5.225 123.567 5 123.885 5C124.202 5 124.462 5.225 124.462 5.5C124.462 5.775 124.202 6 123.885 6C123.567 6 123.308 5.775 123.308 5.5ZM125.615 5.5C125.615 5.225 125.875 5 126.192 5C126.51 5 126.769 5.225 126.769 5.5C126.769 5.775 126.51 6 126.192 6C125.875 6 125.615 5.775 125.615 5.5ZM127.923 5.5C127.923 5.225 128.183 5 128.5 5C128.817 5 129.077 5.225 129.077 5.5C129.077 5.775 128.817 6 128.5 6C128.183 6 127.923 5.775 127.923 5.5ZM130.231 5.5C130.231 5.225 130.49 5 130.808 5C131.125 5 131.385 5.225 131.385 5.5C131.385 5.775 131.125 6 130.808 6C130.49 6 130.231 5.775 130.231 5.5ZM132.538 5.5C132.538 5.225 132.798 5 133.115 5C133.433 5 133.692 5.225 133.692 5.5C133.692 5.775 133.433 6 133.115 6C132.798 6 132.538 5.775 132.538 5.5ZM134.846 5.5C134.846 5.225 135.106 5 135.423 5C135.74 5 136 5.225 136 5.5C136 5.775 135.74 6 135.423 6C135.106 6 134.846 5.775 134.846 5.5Z" fill="#0E0F11"/>
<path fill-rule="evenodd" clip-rule="evenodd" d="M72.2821 69.6275C72.2531 69.3092 72.4911 69.0255 72.8103 69.0024C73.1295 68.9734 73.4081 69.2108 73.4372 69.5291C73.4662 69.8475 73.2282 70.1253 72.909 70.1543C72.8916 70.1543 72.8742 70.1543 72.8567 70.1543C72.5607 70.1543 72.3054 69.9285 72.2821 69.6275ZM75.0043 70.3221C74.6909 70.2411 74.4993 69.9285 74.5806 69.616C74.656 69.3092 74.9695 69.1182 75.2829 69.1934C75.5963 69.2744 75.782 69.587 75.7066 69.8996C75.6427 70.1601 75.4048 70.3337 75.1436 70.3337C75.0972 70.3337 75.0507 70.3337 75.0043 70.3221ZM70.1056 70.38C69.9779 70.0848 70.1114 69.7433 70.4016 69.616C70.6976 69.4828 71.04 69.616 71.1677 69.9112C71.3012 70.2006 71.1677 70.5421 70.8717 70.6752C70.7963 70.7042 70.715 70.7215 70.6396 70.7215C70.4132 70.7215 70.2042 70.5942 70.1056 70.38ZM76.9255 71.1557C76.6585 70.982 76.583 70.6231 76.7572 70.3511C76.9313 70.0848 77.2911 70.0096 77.5639 70.1832C77.8309 70.3569 77.9064 70.7157 77.7323 70.9878C77.622 71.1557 77.4362 71.2483 77.2447 71.2483C77.1344 71.2483 77.0241 71.2193 76.9255 71.1557ZM68.3005 71.7924C68.0799 71.5608 68.0973 71.1904 68.3295 70.9762C68.5675 70.7563 68.9331 70.7736 69.1479 71.0052C69.3684 71.2425 69.3568 71.6071 69.1189 71.8271C69.0086 71.9255 68.8635 71.9776 68.7242 71.9776C68.5675 71.9776 68.4108 71.9139 68.3005 71.7924ZM78.481 72.568C78.2836 72.3191 78.3243 71.9544 78.5797 71.7576C78.8292 71.5608 79.1949 71.6014 79.3922 71.856C79.5896 72.1049 79.549 72.4696 79.2936 72.6664C79.1891 72.7532 79.0614 72.7938 78.9337 72.7938C78.7654 72.7938 78.5913 72.7127 78.481 72.568ZM67.0468 73.7141C66.7624 73.5636 66.6579 73.2105 66.8088 72.9327C66.9597 72.649 67.3138 72.5449 67.5982 72.6954C67.8768 72.8459 67.9812 73.1989 67.8303 73.4826C67.7259 73.6736 67.5285 73.7836 67.3196 73.7836C67.2267 73.7836 67.1338 73.7604 67.0468 73.7141ZM79.4851 74.4087C79.3806 74.1077 79.5432 73.7778 79.845 73.6736C80.1468 73.5636 80.4776 73.7257 80.5821 74.0267C80.6866 74.3277 80.5299 74.6576 80.228 74.7618C80.1642 74.7849 80.1004 74.7965 80.0365 74.7965C79.7927 74.7965 79.5722 74.646 79.4851 74.4087ZM66.4896 75.9426C66.1703 75.8905 65.9556 75.5895 66.0078 75.277C66.0601 74.9586 66.3561 74.7444 66.6753 74.7965C66.9887 74.8486 67.2035 75.1438 67.1512 75.4622C67.1048 75.7458 66.861 75.9484 66.5824 75.9484C66.5476 75.9484 66.5186 75.9426 66.4896 75.9426ZM79.8392 76.4983C79.8392 76.4925 79.8392 76.4867 79.8392 76.4809C79.8392 76.4809 79.8392 76.4751 79.8392 76.4694C79.8392 76.151 80.0945 75.8905 80.4196 75.8905C80.733 75.8905 80.9942 76.1452 81 76.4578C81 76.4694 81 76.4867 81 76.4983C81 76.8167 80.7388 77.0771 80.4196 77.0771C80.1004 77.0771 79.8392 76.8167 79.8392 76.4983ZM66.0136 77.7486C65.9614 77.436 66.1761 77.135 66.4896 77.0829C66.803 77.0308 67.1048 77.245 67.1571 77.5576C67.2093 77.8759 67.0003 78.1711 66.6811 78.2232C66.6521 78.229 66.6173 78.2348 66.5882 78.2348C66.3038 78.2348 66.0601 78.0322 66.0136 77.7486ZM79.8566 79.2999C79.5548 79.1957 79.3922 78.8657 79.4967 78.5647C79.6012 78.2637 79.9262 78.1017 80.2338 78.2059C80.5357 78.3101 80.6982 78.64 80.5937 78.941C80.5124 79.1783 80.2861 79.3346 80.0423 79.3346C79.9843 79.3346 79.9204 79.323 79.8566 79.2999ZM66.8262 80.0929C66.6695 79.8092 66.774 79.4561 67.0584 79.3056C67.337 79.1552 67.691 79.2593 67.8419 79.5372C67.9929 79.8208 67.8942 80.1681 67.6098 80.3244C67.5227 80.3707 67.4298 80.3939 67.3312 80.3939C67.128 80.3939 66.9307 80.2839 66.8262 80.0929ZM78.5971 81.2216C78.3417 81.0248 78.2953 80.6601 78.4926 80.4054C78.6899 80.1565 79.0556 80.1102 79.311 80.307C79.5606 80.5038 79.607 80.8685 79.4097 81.1174C79.2936 81.2621 79.1253 81.3431 78.9511 81.3431C78.8292 81.3431 78.7015 81.3026 78.5971 81.2216ZM68.3527 82.0435C68.1147 81.8236 68.0973 81.4589 68.3179 81.2216C68.5326 80.9901 68.8983 80.9727 69.1363 81.1869C69.3742 81.4068 69.3859 81.7715 69.1711 82.0088C69.055 82.1304 68.8983 82.194 68.7416 82.194C68.6023 82.194 68.463 82.1419 68.3527 82.0435ZM76.7804 82.6282C76.6062 82.3619 76.6817 82.003 76.9487 81.8294C77.2157 81.6499 77.5755 81.7252 77.7555 81.9914C77.9296 82.2635 77.8541 82.6224 77.5871 82.796C77.4885 82.8597 77.3782 82.8886 77.2679 82.8886C77.0822 82.8886 76.8965 82.796 76.7804 82.6282ZM70.4306 83.3922C70.1346 83.2649 70.0011 82.9234 70.1346 82.6339C70.2623 82.3387 70.6047 82.2056 70.8949 82.333C71.1909 82.4603 71.3244 82.8018 71.1968 83.097C71.0981 83.317 70.8891 83.4443 70.6628 83.4443C70.5873 83.4443 70.5061 83.427 70.4306 83.3922ZM74.6096 83.3749C74.5283 83.0623 74.7141 82.7497 75.0275 82.6687C75.3351 82.5934 75.6544 82.7787 75.7298 83.0912C75.8111 83.398 75.6253 83.7164 75.3119 83.7916C75.2655 83.8032 75.219 83.809 75.1668 83.809C74.9114 83.809 74.6735 83.6353 74.6096 83.3749ZM72.8393 84C72.5201 83.9711 72.2821 83.6932 72.3054 83.3749C72.3344 83.0565 72.613 82.8192 72.9322 82.8423C73.2514 82.8713 73.4894 83.1491 73.4662 83.4675C73.443 83.7743 73.1876 84 72.8858 84C72.8684 84 72.8567 84 72.8393 84Z" fill="#0E0F11"/>
<path fill-rule="evenodd" clip-rule="evenodd" d="M192.891 86.5909C192.891 86.2659 193.151 86 193.482 86C193.807 86 194.073 86.2659 194.073 86.5909C194.073 86.9159 193.807 87.1818 193.482 87.1818C193.157 87.1818 192.891 86.9159 192.891 86.5909ZM195.521 87.5777C195.213 87.4536 195.072 87.1109 195.196 86.8095C195.32 86.5023 195.663 86.3605 195.97 86.4845C196.271 86.6086 196.413 86.9573 196.289 87.2586C196.195 87.4832 195.975 87.625 195.745 87.625C195.669 87.625 195.592 87.6073 195.521 87.5777ZM190.675 87.2764C190.551 86.975 190.693 86.6264 190.995 86.5023C191.296 86.3723 191.639 86.52 191.768 86.8155C191.893 87.1168 191.751 87.4655 191.45 87.5895C191.372 87.6191 191.296 87.6368 191.224 87.6368C190.989 87.6368 190.77 87.5009 190.675 87.2764ZM197.246 88.7241C197.016 88.4936 197.009 88.1214 197.24 87.8909C197.476 87.6605 197.849 87.6545 198.08 87.885C198.31 88.1155 198.31 88.4877 198.08 88.7241C197.967 88.8364 197.814 88.8955 197.66 88.8955C197.512 88.8955 197.365 88.8423 197.246 88.7241ZM188.891 88.7536C188.66 88.5232 188.66 88.145 188.891 87.9145C189.121 87.6841 189.494 87.6841 189.723 87.9145C189.96 88.145 189.96 88.5173 189.73 88.7477C189.612 88.8659 189.464 88.925 189.31 88.925C189.156 88.925 189.008 88.8659 188.891 88.7536ZM198.405 90.4436C198.28 90.1423 198.422 89.7995 198.724 89.6755C199.025 89.5455 199.373 89.6873 199.497 89.9886C199.621 90.29 199.48 90.6327 199.178 90.7627C199.108 90.7917 199.025 90.81 198.954 90.81C198.718 90.81 198.499 90.6741 198.405 90.4436ZM187.81 90.7982C187.508 90.6741 187.36 90.3249 187.49 90.0241C187.49 90.0241 187.49 90.0241 187.484 90.0241C187.609 89.7227 187.957 89.5809 188.259 89.705C188.56 89.8285 188.702 90.1718 188.578 90.4726C188.483 90.7036 188.265 90.839 188.034 90.839C187.957 90.839 187.88 90.8277 187.81 90.7982ZM198.818 92.5C198.818 92.4941 198.818 92.4876 198.818 92.4764C198.818 92.1514 199.078 91.8855 199.409 91.8855C199.734 91.8855 200 92.1449 200 92.4705C200 92.4764 200 92.4823 200 92.4876C200 92.4941 200 92.4941 200 92.5C200 92.825 199.734 93.0909 199.409 93.0909C199.084 93.0909 198.818 92.825 198.818 92.5ZM187 92.5118C187 92.1868 187.259 91.9209 187.591 91.9209C187.916 91.9209 188.182 92.1868 188.182 92.5118C188.182 92.8362 187.916 93.1027 187.591 93.1027C187.266 93.1027 187 92.8362 187 92.5118ZM198.735 95.3068C198.434 95.1827 198.292 94.8341 198.416 94.5321C198.54 94.2314 198.883 94.089 199.185 94.213C199.486 94.3371 199.634 94.6864 199.504 94.9877C199.409 95.2123 199.19 95.3476 198.96 95.3476C198.883 95.3476 198.806 95.3364 198.735 95.3068ZM187.496 94.999C187.372 94.6982 187.514 94.3495 187.815 94.2255C188.117 94.1014 188.465 94.2432 188.589 94.5445C188.713 94.8459 188.572 95.1886 188.27 95.3186C188.194 95.3476 188.117 95.36 188.046 95.36C187.81 95.36 187.591 95.2235 187.496 94.999ZM197.264 97.0914C197.033 96.8668 197.033 96.4886 197.264 96.2576C197.495 96.0277 197.867 96.0277 198.097 96.2576C198.328 96.4886 198.328 96.8609 198.097 97.0914C197.985 97.2095 197.831 97.268 197.684 97.268C197.529 97.268 197.376 97.2095 197.264 97.0914ZM188.908 97.1032C188.678 96.8721 188.678 96.5005 188.908 96.27C189.139 96.033 189.511 96.033 189.747 96.2641C189.978 96.4945 189.978 96.8721 189.747 97.1032C189.63 97.2149 189.475 97.2745 189.328 97.2745C189.175 97.2745 189.027 97.2149 188.908 97.1032ZM195.22 98.1845C195.095 97.8826 195.237 97.5405 195.539 97.4105C195.84 97.2864 196.183 97.4282 196.313 97.7295C196.437 98.0303 196.294 98.3795 195.994 98.5036C195.917 98.5332 195.84 98.5509 195.763 98.5509C195.532 98.5509 195.314 98.415 195.22 98.1845ZM191.018 98.5095C190.717 98.3855 190.575 98.0368 190.699 97.7349C190.823 97.4341 191.172 97.2917 191.473 97.4158C191.775 97.5405 191.916 97.8891 191.792 98.1905C191.698 98.415 191.479 98.5568 191.243 98.5568C191.172 98.5568 191.095 98.5391 191.018 98.5095ZM192.915 98.4091C192.915 98.0841 193.181 97.8182 193.506 97.8182C193.831 97.8182 194.097 98.0841 194.097 98.4091C194.097 98.7341 193.831 99 193.506 99C193.181 99 192.915 98.7341 192.915 98.4091Z" fill="#0E0F11"/>
<path fill-rule="evenodd" clip-rule="evenodd" d="M137.378 160.152C137.062 160.1 136.845 159.8 136.898 159.488C136.95 159.17 137.255 158.956 137.571 159.008C137.571 159.008 137.571 159.008 137.571 159.014C137.894 159.065 138.105 159.361 138.057 159.673C138.005 159.956 137.759 160.159 137.478 160.159C137.443 160.159 137.413 160.159 137.378 160.152ZM134.612 160.303C134.447 160.031 134.541 159.673 134.817 159.511C135.099 159.349 135.456 159.442 135.62 159.719C135.784 159.991 135.69 160.349 135.415 160.511C135.321 160.563 135.216 160.592 135.116 160.592C134.917 160.592 134.718 160.488 134.612 160.303ZM139.125 161.124H139.119C138.913 160.882 138.943 160.511 139.189 160.309C139.429 160.1 139.804 160.124 140.015 160.366C140.015 160.366 140.015 160.366 140.01 160.366C140.221 160.609 140.197 160.974 139.951 161.182C139.84 161.281 139.705 161.327 139.57 161.327C139.4 161.327 139.236 161.257 139.125 161.124ZM133.387 162.379C133.083 162.275 132.924 161.946 133.036 161.644C133.036 161.644 133.036 161.644 133.029 161.644C133.141 161.344 133.475 161.182 133.78 161.292C134.085 161.401 134.243 161.732 134.137 162.032C134.05 162.269 133.827 162.413 133.587 162.413C133.516 162.413 133.452 162.402 133.387 162.379ZM139.828 163.004C139.828 162.992 139.828 162.981 139.828 162.969C139.822 162.651 140.085 162.39 140.408 162.385C140.73 162.379 140.994 162.64 141 162.958C141 162.969 141 162.975 141 162.987C141 162.992 141 162.998 141 163.004C141 163.322 140.736 163.582 140.414 163.582C140.092 163.582 139.828 163.322 139.828 163.004ZM133.047 164.409C132.936 164.108 133.088 163.773 133.393 163.663C133.698 163.553 134.038 163.709 134.149 164.004C134.26 164.305 134.102 164.641 133.803 164.75C133.733 164.774 133.662 164.785 133.598 164.785C133.358 164.785 133.135 164.641 133.047 164.409ZM139.218 165.676C138.966 165.467 138.937 165.103 139.142 164.86C139.353 164.617 139.722 164.582 139.969 164.785C140.215 164.993 140.25 165.357 140.045 165.6C139.928 165.739 139.758 165.809 139.593 165.809C139.459 165.809 139.324 165.762 139.218 165.676ZM134.858 166.52C134.577 166.358 134.483 166.005 134.641 165.728C134.806 165.45 135.163 165.352 135.444 165.514C135.726 165.676 135.819 166.028 135.661 166.306C135.55 166.491 135.35 166.595 135.151 166.595C135.052 166.595 134.952 166.572 134.858 166.52ZM136.938 166.52C136.885 166.208 137.097 165.907 137.413 165.849C137.736 165.791 138.04 166.005 138.093 166.317C138.152 166.63 137.935 166.931 137.618 166.988C137.583 166.994 137.548 167 137.519 167C137.238 167 136.991 166.798 136.938 166.52Z" fill="#0E0F11"/>
<path fill-rule="evenodd" clip-rule="evenodd" d="M81.3333 165H78.6667C78.2987 165 78 164.776 78 164.5C78 164.224 78.2987 164 78.6667 164H81.3333C81.7013 164 82 164.224 82 164.5C82 164.776 81.7013 165 81.3333 165Z" fill="#0E0F11"/>
<path fill-rule="evenodd" clip-rule="evenodd" d="M79.5 166C79.224 166 79 165.702 79 165.333V162.667C79 162.298 79.224 162 79.5 162C79.776 162 80 162.298 80 162.667V165.333C80 165.702 79.776 166 79.5 166Z" fill="#0E0F11"/>
<path fill-rule="evenodd" clip-rule="evenodd" d="M236.333 120H233.667C233.298 120 233 119.776 233 119.5C233 119.224 233.298 119 233.667 119H236.333C236.702 119 237 119.224 237 119.5C237 119.776 236.702 120 236.333 120Z" fill="#0E0F11"/>
<path fill-rule="evenodd" clip-rule="evenodd" d="M234.5 121C234.224 121 234 120.702 234 120.333V117.667C234 117.298 234.224 117 234.5 117C234.776 117 235 117.298 235 117.667V120.333C235 120.702 234.776 121 234.5 121Z" fill="#0E0F11"/>
<path fill-rule="evenodd" clip-rule="evenodd" d="M61.3333 45H58.6667C58.2987 45 58 44.776 58 44.5C58 44.224 58.2987 44 58.6667 44H61.3333C61.7013 44 62 44.224 62 44.5C62 44.776 61.7013 45 61.3333 45Z" fill="#0E0F11"/>
<path fill-rule="evenodd" clip-rule="evenodd" d="M59.5 47C59.224 47 59 46.7013 59 46.3333V43.6667C59 43.2987 59.224 43 59.5 43C59.776 43 60 43.2987 60 43.6667V46.3333C60 46.7013 59.776 47 59.5 47Z" fill="#0E0F11"/>
<path fill-rule="evenodd" clip-rule="evenodd" d="M38.4118 96H19.5882C19.2635 96 19 95.7765 19 95.5C19 95.2235 19.2635 95 19.5882 95H38.4118C38.7365 95 39 95.2235 39 95.5C39 95.7765 38.7365 96 38.4118 96Z" fill="#0E0F11"/>
<path fill-rule="evenodd" clip-rule="evenodd" d="M142.412 56H123.588C123.264 56 123 55.776 123 55.5C123 55.224 123.264 55 123.588 55H142.412C142.737 55 143 55.224 143 55.5C143 55.776 142.737 56 142.412 56Z" fill="#0E0F11"/>
<path fill-rule="evenodd" clip-rule="evenodd" d="M125.429 58H118.571C118.256 58 118 57.776 118 57.5C118 57.224 118.256 57 118.571 57H125.429C125.744 57 126 57.224 126 57.5C126 57.776 125.744 58 125.429 58Z" fill="#0E0F11"/>
<path fill-rule="evenodd" clip-rule="evenodd" d="M211.5 73C211.37 73 211.239 72.9447 211.145 72.8541C211.054 72.7585 211 72.6277 211 72.4969C211 72.361 211.054 72.2352 211.145 72.1396C211.335 71.9535 211.67 71.9535 211.855 72.1396C211.945 72.2352 212 72.361 212 72.4969C212 72.6277 211.945 72.7585 211.855 72.8541C211.76 72.9447 211.635 73 211.5 73Z" fill="#0E0F11"/>
<path fill-rule="evenodd" clip-rule="evenodd" d="M213 72.5C213 72.225 213.269 72 213.597 72C213.925 72 214.194 72.225 214.194 72.5C214.194 72.775 213.925 73 213.597 73C213.269 73 213 72.775 213 72.5ZM215.387 72.5C215.387 72.225 215.656 72 215.984 72C216.312 72 216.581 72.225 216.581 72.5C216.581 72.775 216.312 73 215.984 73C215.656 73 215.387 72.775 215.387 72.5ZM217.774 72.5C217.774 72.225 218.043 72 218.371 72C218.699 72 218.968 72.225 218.968 72.5C218.968 72.775 218.699 73 218.371 73C218.043 73 217.774 72.775 217.774 72.5ZM220.161 72.5C220.161 72.225 220.43 72 220.758 72C221.086 72 221.355 72.225 221.355 72.5C221.355 72.775 221.086 73 220.758 73C220.43 73 220.161 72.775 220.161 72.5ZM222.548 72.5C222.548 72.225 222.817 72 223.145 72C223.473 72 223.742 72.225 223.742 72.5C223.742 72.775 223.473 73 223.145 73C222.817 73 222.548 72.775 222.548 72.5ZM224.935 72.5C224.935 72.225 225.204 72 225.532 72C225.86 72 226.129 72.225 226.129 72.5C226.129 72.775 225.86 73 225.532 73C225.204 73 224.935 72.775 224.935 72.5ZM227.323 72.5C227.323 72.225 227.591 72 227.919 72C228.248 72 228.516 72.225 228.516 72.5C228.516 72.775 228.248 73 227.919 73C227.591 73 227.323 72.775 227.323 72.5ZM229.71 72.5C229.71 72.225 229.978 72 230.306 72C230.635 72 230.903 72.225 230.903 72.5C230.903 72.775 230.635 73 230.306 73C229.978 73 229.71 72.775 229.71 72.5ZM232.097 72.5C232.097 72.225 232.365 72 232.694 72C233.022 72 233.29 72.225 233.29 72.5C233.29 72.775 233.022 73 232.694 73C232.365 73 232.097 72.775 232.097 72.5ZM234.484 72.5C234.484 72.225 234.752 72 235.081 72C235.409 72 235.677 72.225 235.677 72.5C235.677 72.775 235.409 73 235.081 73C234.752 73 234.484 72.775 234.484 72.5ZM236.871 72.5C236.871 72.225 237.14 72 237.468 72C237.796 72 238.065 72.225 238.065 72.5C238.065 72.775 237.796 73 237.468 73C237.14 73 236.871 72.775 236.871 72.5ZM239.258 72.5C239.258 72.225 239.527 72 239.855 72C240.183 72 240.452 72.225 240.452 72.5C240.452 72.775 240.183 73 239.855 73C239.527 73 239.258 72.775 239.258 72.5ZM241.645 72.5C241.645 72.225 241.914 72 242.242 72C242.57 72 242.839 72.225 242.839 72.5C242.839 72.775 242.57 73 242.242 73C241.914 73 241.645 72.775 241.645 72.5ZM244.032 72.5C244.032 72.225 244.301 72 244.629 72C244.957 72 245.226 72.225 245.226 72.5C245.226 72.775 244.957 73 244.629 73C244.301 73 244.032 72.775 244.032 72.5ZM246.419 72.5C246.419 72.225 246.681 72 247.016 72C247.344 72 247.613 72.225 247.613 72.5C247.613 72.775 247.344 73 247.016 73C246.681 73 246.419 72.775 246.419 72.5ZM248.806 72.5C248.806 72.225 249.075 72 249.403 72C249.731 72 250 72.225 250 72.5C250 72.775 249.731 73 249.403 73C249.075 73 248.806 72.775 248.806 72.5Z" fill="#0E0F11"/>
<path fill-rule="evenodd" clip-rule="evenodd" d="M251.5 73C251.364 73 251.235 72.9447 251.145 72.8491C251.054 72.7585 251 72.6277 251 72.4969C251 72.366 251.054 72.2352 251.145 72.1396C251.33 71.9535 251.665 71.9535 251.855 72.1396C251.945 72.2352 252 72.366 252 72.4969C252 72.6277 251.945 72.7585 251.855 72.8541C251.76 72.9447 251.635 73 251.5 73Z" fill="#0E0F11"/>
<path fill-rule="evenodd" clip-rule="evenodd" d="M0 109.5C0 109.225 0.266667 109 0.592593 109C0.918519 109 1.18519 109.225 1.18519 109.5C1.18519 109.775 0.918519 110 0.592593 110C0.266667 110 0 109.775 0 109.5ZM2.37037 109.5C2.37037 109.225 2.63704 109 2.96296 109C3.28889 109 3.55556 109.225 3.55556 109.5C3.55556 109.775 3.28889 110 2.96296 110C2.63704 110 2.37037 109.775 2.37037 109.5ZM4.74074 109.5C4.74074 109.225 5.00741 109 5.33333 109C5.65926 109 5.92593 109.225 5.92593 109.5C5.92593 109.775 5.65926 110 5.33333 110C5.00741 110 4.74074 109.775 4.74074 109.5ZM7.11111 109.5C7.11111 109.225 7.37778 109 7.7037 109C8.02963 109 8.2963 109.225 8.2963 109.5C8.2963 109.775 8.02963 110 7.7037 110C7.37778 110 7.11111 109.775 7.11111 109.5ZM9.48148 109.5C9.48148 109.225 9.74815 109 10.0741 109C10.4 109 10.6667 109.225 10.6667 109.5C10.6667 109.775 10.4 110 10.0741 110C9.74815 110 9.48148 109.775 9.48148 109.5ZM11.8519 109.5C11.8519 109.225 12.1185 109 12.4444 109C12.7704 109 13.037 109.225 13.037 109.5C13.037 109.775 12.7704 110 12.4444 110C12.1185 110 11.8519 109.775 11.8519 109.5ZM14.2222 109.5C14.2222 109.225 14.4889 109 14.8148 109C15.1407 109 15.4074 109.225 15.4074 109.5C15.4074 109.775 15.1407 110 14.8148 110C14.4889 110 14.2222 109.775 14.2222 109.5ZM16.5926 109.5C16.5926 109.225 16.8593 109 17.1852 109C17.5111 109 17.7778 109.225 17.7778 109.5C17.7778 109.775 17.5111 110 17.1852 110C16.8593 110 16.5926 109.775 16.5926 109.5ZM18.963 109.5C18.963 109.225 19.2296 109 19.5556 109C19.8815 109 20.1481 109.225 20.1481 109.5C20.1481 109.775 19.8815 110 19.5556 110C19.2296 110 18.963 109.775 18.963 109.5ZM21.3333 109.5C21.3333 109.225 21.6 109 21.9259 109C22.2519 109 22.5185 109.225 22.5185 109.5C22.5185 109.775 22.2519 110 21.9259 110C21.6 110 21.3333 109.775 21.3333 109.5ZM23.7037 109.5C23.7037 109.225 23.9704 109 24.2963 109C24.6222 109 24.8889 109.225 24.8889 109.5C24.8889 109.775 24.6222 110 24.2963 110C23.9704 110 23.7037 109.775 23.7037 109.5ZM26.0741 109.5C26.0741 109.225 26.3407 109 26.6667 109C26.9926 109 27.2593 109.225 27.2593 109.5C27.2593 109.775 26.9926 110 26.6667 110C26.3407 110 26.0741 109.775 26.0741 109.5ZM28.4444 109.5C28.4444 109.225 28.7111 109 29.037 109C29.363 109 29.6296 109.225 29.6296 109.5C29.6296 109.775 29.363 110 29.037 110C28.7111 110 28.4444 109.775 28.4444 109.5ZM30.8148 109.5C30.8148 109.225 31.0815 109 31.4074 109C31.7333 109 32 109.225 32 109.5C32 109.775 31.7333 110 31.4074 110C31.0815 110 30.8148 109.775 30.8148 109.5Z" fill="#0E0F11"/>
<path fill-rule="evenodd" clip-rule="evenodd" d="M244 128.5C244 128.225 244.257 128 244.571 128C244.886 128 245.143 128.225 245.143 128.5C245.143 128.775 244.886 129 244.571 129C244.257 129 244 128.775 244 128.5ZM246.286 128.5C246.286 128.225 246.543 128 246.857 128C247.171 128 247.429 128.225 247.429 128.5C247.429 128.775 247.171 129 246.857 129C246.543 129 246.286 128.775 246.286 128.5ZM248.571 128.5C248.571 128.225 248.829 128 249.143 128C249.457 128 249.714 128.225 249.714 128.5C249.714 128.775 249.457 129 249.143 129C248.829 129 248.571 128.775 248.571 128.5ZM250.857 128.5C250.857 128.225 251.114 128 251.429 128C251.743 128 252 128.225 252 128.5C252 128.775 251.743 129 251.429 129C251.114 129 250.857 128.775 250.857 128.5Z" fill="#0E0F11"/>
<path fill-rule="evenodd" clip-rule="evenodd" d="M78 21.5C78 21.225 78.275 21 78.6111 21C78.9472 21 79.2222 21.225 79.2222 21.5C79.2222 21.775 78.9472 22 78.6111 22C78.275 22 78 21.775 78 21.5ZM80.4444 21.5C80.4444 21.225 80.7194 21 81.0556 21C81.3917 21 81.6667 21.225 81.6667 21.5C81.6667 21.775 81.3917 22 81.0556 22C80.7194 22 80.4444 21.775 80.4444 21.5ZM82.8889 21.5C82.8889 21.225 83.1639 21 83.5 21C83.8361 21 84.1111 21.225 84.1111 21.5C84.1111 21.775 83.8361 22 83.5 22C83.1639 22 82.8889 21.775 82.8889 21.5ZM85.3333 21.5C85.3333 21.225 85.6083 21 85.9444 21C86.2806 21 86.5556 21.225 86.5556 21.5C86.5556 21.775 86.2806 22 85.9444 22C85.6083 22 85.3333 21.775 85.3333 21.5ZM87.7778 21.5C87.7778 21.225 88.0528 21 88.3889 21C88.725 21 89 21.225 89 21.5C89 21.775 88.725 22 88.3889 22C88.0528 22 87.7778 21.775 87.7778 21.5Z" fill="#0E0F11"/>
<path fill-rule="evenodd" clip-rule="evenodd" d="M154 179.2C153.008 179.2 152.2 180.008 152.2 181C152.2 181.992 153.008 182.8 154 182.8C154.992 182.8 155.8 181.992 155.8 181C155.8 180.008 154.992 179.2 154 179.2ZM154 184C152.346 184 151 182.654 151 181C151 179.346 152.346 178 154 178C155.654 178 157 179.346 157 181C157 182.654 155.654 184 154 184Z" fill="#0E0F11"/>
<path fill-rule="evenodd" clip-rule="evenodd" d="M104 1.33333C103.633 1.33333 103.333 1.63267 103.333 2C103.333 2.36733 103.633 2.66667 104 2.66667C104.367 2.66667 104.667 2.36733 104.667 2C104.667 1.63267 104.367 1.33333 104 1.33333ZM104 4C102.897 4 102 3.10267 102 2C102 0.897333 102.897 0 104 0C105.103 0 106 0.897333 106 2C106 3.10267 105.103 4 104 4Z" fill="#0E0F11"/>
<path fill-rule="evenodd" clip-rule="evenodd" d="M194.5 137C194.224 137 194 136.732 194 136.4V125.6C194 125.268 194.224 125 194.5 125C194.776 125 195 125.268 195 125.6V136.4C195 136.732 194.776 137 194.5 137Z" fill="#FFFFFE"/>
<path fill-rule="evenodd" clip-rule="evenodd" d="M194.5 123C194.224 123 194 122.776 194 122.5V121.5C194 121.224 194.224 121 194.5 121C194.776 121 195 121.224 195 121.5V122.5C195 122.776 194.776 123 194.5 123Z" fill="#FFFFFE"/>
<path fill-rule="evenodd" clip-rule="evenodd" d="M88 135.667C88 136.95 86.9071 138 85.5714 138H73.4286C72.0929 138 71 136.95 71 135.667V112.333C71 111.05 72.0929 110 73.4286 110H85.5714C86.9071 110 88 111.05 88 112.333V135.667Z" fill="#454543"/>
<path fill-rule="evenodd" clip-rule="evenodd" d="M74 110.2C73.0076 110.2 72.2 111.008 72.2 112V136C72.2 136.992 73.0076 137.8 74 137.8H86C86.9924 137.8 87.8 136.992 87.8 136V112C87.8 111.008 86.9924 110.2 86 110.2H74ZM86 139H74C72.3458 139 71 137.654 71 136V112C71 110.346 72.3458 109 74 109H86C87.6542 109 89 110.346 89 112V136C89 137.654 87.6542 139 86 139Z" fill="#0E0F11"/>
<path fill-rule="evenodd" clip-rule="evenodd" d="M74 134H86V115H74V134Z" fill="#FFFFFE"/>
<path fill-rule="evenodd" clip-rule="evenodd" d="M74.1818 132.824H84.8182V115.176H74.1818V132.824ZM85.4091 134H73.5909C73.2647 134 73 133.737 73 133.412V114.588C73 114.263 73.2647 114 73.5909 114H85.4091C85.7353 114 86 114.263 86 114.588V133.412C86 133.737 85.7353 134 85.4091 134Z" fill="#0E0F11"/>
<path fill-rule="evenodd" clip-rule="evenodd" d="M81.3333 113H78.6667C78.2987 113 78 112.776 78 112.5C78 112.224 78.2987 112 78.6667 112H81.3333C81.7013 112 82 112.224 82 112.5C82 112.776 81.7013 113 81.3333 113Z" fill="#0E0F11"/>
<path fill-rule="evenodd" clip-rule="evenodd" d="M79.5 136C79.37 136 79.24 135.945 79.145 135.854C79.055 135.758 79 135.633 79 135.497C79 135.366 79.055 135.235 79.145 135.14C79.33 134.953 79.665 134.953 79.855 135.14C79.945 135.235 80 135.366 80 135.497C80 135.628 79.945 135.758 79.855 135.854C79.76 135.945 79.63 136 79.5 136Z" fill="#0E0F11"/>
<path fill-rule="evenodd" clip-rule="evenodd" d="M83.4286 132H76.5714C76.256 132 76 131.776 76 131.5C76 131.224 76.256 131 76.5714 131H83.4286C83.744 131 84 131.224 84 131.5C84 131.776 83.744 132 83.4286 132Z" fill="#0E0F11"/>
<path fill-rule="evenodd" clip-rule="evenodd" d="M76 119H78V117H76V119Z" fill="#54B1AC"/>
<path fill-rule="evenodd" clip-rule="evenodd" d="M81 124H83V122H81V124Z" fill="#54B1AC"/>
<path fill-rule="evenodd" clip-rule="evenodd" d="M76.3333 118.667H77.6667V117.333H76.3333V118.667ZM78.3333 120H75.6667C75.2987 120 75 119.702 75 119.333V116.667C75 116.298 75.2987 116 75.6667 116H78.3333C78.7013 116 79 116.298 79 116.667V119.333C79 119.702 78.7013 120 78.3333 120Z" fill="#0E0F11"/>
<path fill-rule="evenodd" clip-rule="evenodd" d="M81.3333 123.667H82.6667V122.333H81.3333V123.667ZM83.3333 125H80.6667C80.2987 125 80 124.702 80 124.333V121.667C80 121.298 80.2987 121 80.6667 121H83.3333C83.7013 121 84 121.298 84 121.667V124.333C84 124.702 83.7013 125 83.3333 125Z" fill="#0E0F11"/>
<path fill-rule="evenodd" clip-rule="evenodd" d="M81 119H83V117H81V119Z" fill="#E68F2E"/>
<path fill-rule="evenodd" clip-rule="evenodd" d="M81.3333 118.667H82.6667V117.333H81.3333V118.667ZM83.3333 120H80.6667C80.2987 120 80 119.702 80 119.333V116.667C80 116.298 80.2987 116 80.6667 116H83.3333C83.7013 116 84 116.298 84 116.667V119.333C84 119.702 83.7013 120 83.3333 120Z" fill="#0E0F11"/>
<path fill-rule="evenodd" clip-rule="evenodd" d="M76.3333 128.667H77.6667V127.333H76.3333V128.667ZM78.3333 130H75.6667C75.2987 130 75 129.702 75 129.333V126.667C75 126.298 75.2987 126 75.6667 126H78.3333C78.7013 126 79 126.298 79 126.667V129.333C79 129.702 78.7013 130 78.3333 130Z" fill="#0E0F11"/>
</svg>
